<?xml version="1.0" encoding="UTF-8"?>
<!DOCTYPE svg PUBLIC "-//W3C//DTD SVG 1.1//EN" "http://www.w3.org/Graphics/SVG/1.1/DTD/svg11.dtd">
<svg width="246mm" height="124mm" viewBox="0 0 24600 12400" version="1.1" xmlns="http://www.w3.org/2000/svg" xmlns:xlink="http://www.w3.org/1999/xlink" stroke-width="28.222" stroke-linejoin="round" xml:space="preserve">
 <path fill="rgb(255,255,255)" stroke="none" d="M 12303,12357 L -13,12357 -13,-13 24618,-13 24618,12357 12303,12357 Z"/>
 <path fill="none" stroke="rgb(179,179,179)" stroke-linejoin="round" d="M 12249,11463 L 2582,11463 2582,433 21916,433 21916,11463 12249,11463 Z"/>
 <path fill="none" stroke="rgb(179,179,179)" stroke-linejoin="round" d="M 21916,11462 L 2582,11462"/>
 <path fill="none" stroke="rgb(179,179,179)" stroke-linejoin="round" d="M 21916,10542 L 2582,10542"/>
 <path fill="none" stroke="rgb(179,179,179)" stroke-linejoin="round" d="M 21916,9623 L 2582,9623"/>
 <path fill="none" stroke="rgb(179,179,179)" stroke-linejoin="round" d="M 21916,8704 L 2582,8704"/>
 <path fill="none" stroke="rgb(179,179,179)" stroke-linejoin="round" d="M 21916,7785 L 2582,7785"/>
 <path fill="none" stroke="rgb(179,179,179)" stroke-linejoin="round" d="M 21916,6865 L 2582,6865"/>
 <path fill="none" stroke="rgb(179,179,179)" stroke-linejoin="round" d="M 21916,5947 L 2582,5947"/>
 <path fill="none" stroke="rgb(179,179,179)" stroke-linejoin="round" d="M 21916,5028 L 2582,5028"/>
 <path fill="none" stroke="rgb(179,179,179)" stroke-linejoin="round" d="M 21916,4108 L 2582,4108"/>
 <path fill="none" stroke="rgb(179,179,179)" stroke-linejoin="round" d="M 21916,3189 L 2582,3189"/>
 <path fill="none" stroke="rgb(179,179,179)" stroke-linejoin="round" d="M 21916,2270 L 2582,2270"/>
 <path fill="none" stroke="rgb(179,179,179)" stroke-linejoin="round" d="M 21916,1351 L 2582,1351"/>
 <path fill="none" stroke="rgb(179,179,179)" stroke-linejoin="round" d="M 21916,431 L 2582,431"/>
 <path fill="none" stroke="rgb(179,179,179)" stroke-linejoin="round" d="M 2582,11612 L 2582,11462"/>
 <path fill="none" stroke="rgb(179,179,179)" stroke-linejoin="round" d="M 2582,11612 L 2582,11462"/>
 <path fill="none" stroke="rgb(179,179,179)" stroke-linejoin="round" d="M 7415,11612 L 7415,11462"/>
 <path fill="none" stroke="rgb(179,179,179)" stroke-linejoin="round" d="M 7415,11612 L 7415,11462"/>
 <path fill="none" stroke="rgb(179,179,179)" stroke-linejoin="round" d="M 12249,11612 L 12249,11462"/>
 <path fill="none" stroke="rgb(179,179,179)" stroke-linejoin="round" d="M 12249,11612 L 12249,11462"/>
 <path fill="none" stroke="rgb(179,179,179)" stroke-linejoin="round" d="M 17082,11612 L 17082,11462"/>
 <path fill="none" stroke="rgb(179,179,179)" stroke-linejoin="round" d="M 17082,11612 L 17082,11462"/>
 <path fill="none" stroke="rgb(179,179,179)" stroke-linejoin="round" d="M 21916,11612 L 21916,11462"/>
 <path fill="none" stroke="rgb(179,179,179)" stroke-linejoin="round" d="M 21916,11612 L 21916,11462"/>
 <path fill="none" stroke="rgb(179,179,179)" stroke-linejoin="round" d="M 2582,11462 L 21916,11462"/>
 <path fill="none" stroke="rgb(179,179,179)" stroke-linejoin="round" d="M 2432,11462 L 2582,11462"/>
 <path fill="none" stroke="rgb(179,179,179)" stroke-linejoin="round" d="M 2432,11462 L 2582,11462"/>
 <path fill="none" stroke="rgb(179,179,179)" stroke-linejoin="round" d="M 2432,10542 L 2582,10542"/>
 <path fill="none" stroke="rgb(179,179,179)" stroke-linejoin="round" d="M 2432,10542 L 2582,10542"/>
 <path fill="none" stroke="rgb(179,179,179)" stroke-linejoin="round" d="M 2432,9623 L 2582,9623"/>
 <path fill="none" stroke="rgb(179,179,179)" stroke-linejoin="round" d="M 2432,9623 L 2582,9623"/>
 <path fill="none" stroke="rgb(179,179,179)" stroke-linejoin="round" d="M 2432,8704 L 2582,8704"/>
 <path fill="none" stroke="rgb(179,179,179)" stroke-linejoin="round" d="M 2432,8704 L 2582,8704"/>
 <path fill="none" stroke="rgb(179,179,179)" stroke-linejoin="round" d="M 2432,7785 L 2582,7785"/>
 <path fill="none" stroke="rgb(179,179,179)" stroke-linejoin="round" d="M 2432,7785 L 2582,7785"/>
 <path fill="none" stroke="rgb(179,179,179)" stroke-linejoin="round" d="M 2432,6865 L 2582,6865"/>
 <path fill="none" stroke="rgb(179,179,179)" stroke-linejoin="round" d="M 2432,6865 L 2582,6865"/>
 <path fill="none" stroke="rgb(179,179,179)" stroke-linejoin="round" d="M 2432,5947 L 2582,5947"/>
 <path fill="none" stroke="rgb(179,179,179)" stroke-linejoin="round" d="M 2432,5947 L 2582,5947"/>
 <path fill="none" stroke="rgb(179,179,179)" stroke-linejoin="round" d="M 2432,5028 L 2582,5028"/>
 <path fill="none" stroke="rgb(179,179,179)" stroke-linejoin="round" d="M 2432,5028 L 2582,5028"/>
 <path fill="none" stroke="rgb(179,179,179)" stroke-linejoin="round" d="M 2432,4108 L 2582,4108"/>
 <path fill="none" stroke="rgb(179,179,179)" stroke-linejoin="round" d="M 2432,4108 L 2582,4108"/>
 <path fill="none" stroke="rgb(179,179,179)" stroke-linejoin="round" d="M 2432,3189 L 2582,3189"/>
 <path fill="none" stroke="rgb(179,179,179)" stroke-linejoin="round" d="M 2432,3189 L 2582,3189"/>
 <path fill="none" stroke="rgb(179,179,179)" stroke-linejoin="round" d="M 2432,2270 L 2582,2270"/>
 <path fill="none" stroke="rgb(179,179,179)" stroke-linejoin="round" d="M 2432,2270 L 2582,2270"/>
 <path fill="none" stroke="rgb(179,179,179)" stroke-linejoin="round" d="M 2432,1351 L 2582,1351"/>
 <path fill="none" stroke="rgb(179,179,179)" stroke-linejoin="round" d="M 2432,1351 L 2582,1351"/>
 <path fill="none" stroke="rgb(179,179,179)" stroke-linejoin="round" d="M 2432,432 L 2582,432"/>
 <path fill="none" stroke="rgb(179,179,179)" stroke-linejoin="round" d="M 2432,432 L 2582,432"/>
 <path fill="none" stroke="rgb(179,179,179)" stroke-linejoin="round" d="M 2582,11462 L 2582,432"/>
 <path fill="rgb(0,69,134)" stroke="none" d="M 3790,11462 L 6207,11462 6207,10602 3790,10602 3790,11462 Z"/>
 <path fill="rgb(0,69,134)" stroke="none" d="M 8624,11462 L 11041,11462 11041,8131 8624,8131 8624,11462 Z"/>
 <path fill="rgb(0,69,134)" stroke="none" d="M 13456,11462 L 15873,11462 15873,6591 13456,6591 13456,11462 Z"/>
 <path fill="rgb(0,69,134)" stroke="none" d="M 18290,11462 L 20707,11462 20707,909 18290,909 18290,11462 Z"/>
 <text class="SVGTextShape"><tspan class="TextParagraph" font-family="Liberation Sans, sans-serif" font-size="353px" font-weight="400"><tspan class="TextPosition" x="3582" y="12030"><tspan fill="rgb(0,0,0)" stroke="none" style="white-space: pre">border intersection</tspan></tspan></tspan></text>
 <text class="SVGTextShape"><tspan class="TextParagraph" font-family="Liberation Sans, sans-serif" font-size="353px" font-weight="400"><tspan class="TextPosition" x="8628" y="12030"><tspan fill="rgb(0,0,0)" stroke="none" style="white-space: pre">range exclusion</tspan></tspan></tspan></text>
 <text class="SVGTextShape"><tspan class="TextParagraph" font-family="Liberation Sans, sans-serif" font-size="353px" font-weight="400"><tspan class="TextPosition" x="13422" y="12030"><tspan fill="rgb(0,0,0)" stroke="none" style="white-space: pre">column skipping</tspan></tspan></tspan></text>
 <text class="SVGTextShape"><tspan class="TextParagraph" font-family="Liberation Sans, sans-serif" font-size="353px" font-weight="400"><tspan class="TextPosition" x="18680" y="12030"><tspan fill="rgb(0,0,0)" stroke="none" style="white-space: pre">brute force</tspan></tspan></tspan></text>
 <text class="SVGTextShape"><tspan class="TextParagraph" font-family="Liberation Sans, sans-serif" font-size="353px" font-weight="400"><tspan class="TextPosition" x="1485" y="11583"><tspan fill="rgb(0,0,0)" stroke="none" style="white-space: pre">0.001</tspan></tspan></tspan></text>
 <text class="SVGTextShape"><tspan class="TextParagraph" font-family="Liberation Sans, sans-serif" font-size="353px" font-weight="400"><tspan class="TextPosition" x="1671" y="10663"><tspan fill="rgb(0,0,0)" stroke="none" style="white-space: pre">0.01</tspan></tspan></tspan></text>
 <text class="SVGTextShape"><tspan class="TextParagraph" font-family="Liberation Sans, sans-serif" font-size="353px" font-weight="400"><tspan class="TextPosition" x="1856" y="9744"><tspan fill="rgb(0,0,0)" stroke="none" style="white-space: pre">0.1</tspan></tspan></tspan></text>
 <text class="SVGTextShape"><tspan class="TextParagraph" font-family="Liberation Sans, sans-serif" font-size="353px" font-weight="400"><tspan class="TextPosition" x="2147" y="8825"><tspan fill="rgb(0,0,0)" stroke="none" style="white-space: pre">1</tspan></tspan></tspan></text>
 <text class="SVGTextShape"><tspan class="TextParagraph" font-family="Liberation Sans, sans-serif" font-size="353px" font-weight="400"><tspan class="TextPosition" x="1962" y="7906"><tspan fill="rgb(0,0,0)" stroke="none" style="white-space: pre">10</tspan></tspan></tspan></text>
 <text class="SVGTextShape"><tspan class="TextParagraph" font-family="Liberation Sans, sans-serif" font-size="353px" font-weight="400"><tspan class="TextPosition" x="1776" y="6986"><tspan fill="rgb(0,0,0)" stroke="none" style="white-space: pre">100</tspan></tspan></tspan></text>
 <text class="SVGTextShape"><tspan class="TextParagraph" font-family="Liberation Sans, sans-serif" font-size="353px" font-weight="400"><tspan class="TextPosition" x="1591" y="6067"><tspan fill="rgb(0,0,0)" stroke="none" style="white-space: pre">1000</tspan></tspan></tspan></text>
 <text class="SVGTextShape"><tspan class="TextParagraph" font-family="Liberation Sans, sans-serif" font-size="353px" font-weight="400"><tspan class="TextPosition" x="1406" y="5148"><tspan fill="rgb(0,0,0)" stroke="none" style="white-space: pre">10000</tspan></tspan></tspan></text>
 <text class="SVGTextShape"><tspan class="TextParagraph" font-family="Liberation Sans, sans-serif" font-size="353px" font-weight="400"><tspan class="TextPosition" x="1221" y="4228"><tspan fill="rgb(0,0,0)" stroke="none" style="white-space: pre">100000</tspan></tspan></tspan></text>
 <text class="SVGTextShape"><tspan class="TextParagraph" font-family="Liberation Sans, sans-serif" font-size="353px" font-weight="400"><tspan class="TextPosition" x="1036" y="3309"><tspan fill="rgb(0,0,0)" stroke="none" style="white-space: pre">1000000</tspan></tspan></tspan></text>
 <text class="SVGTextShape"><tspan class="TextParagraph" font-family="Liberation Sans, sans-serif" font-size="353px" font-weight="400"><tspan class="TextPosition" x="850" y="2390"><tspan fill="rgb(0,0,0)" stroke="none" style="white-space: pre">10000000</tspan></tspan></tspan></text>
 <text class="SVGTextShape"><tspan class="TextParagraph" font-family="Liberation Sans, sans-serif" font-size="353px" font-weight="400"><tspan class="TextPosition" x="665" y="1471"><tspan fill="rgb(0,0,0)" stroke="none" style="white-space: pre">100000000</tspan></tspan></tspan></text>
 <text class="SVGTextShape"><tspan class="TextParagraph" font-family="Liberation Sans, sans-serif" font-size="353px" font-weight="400"><tspan class="TextPosition" x="480" y="552"><tspan fill="rgb(0,0,0)" stroke="none" style="white-space: pre">1000000000</tspan></tspan></tspan></text>
 <path fill="rgb(0,69,134)" stroke="none" d="M 22630,6276 L 22524,6276 22524,6066 22735,6066 22735,6276 22630,6276 Z"/>
 <text class="SVGTextShape"><tspan class="TextParagraph" font-family="Liberation Sans, sans-serif" font-size="353px" font-weight="400"><tspan class="TextPosition" x="22835" y="6290"><tspan fill="rgb(0,0,0)" stroke="none" style="white-space: pre">time (ms)</tspan></tspan></tspan></text>
</svg>