<?xml version="1.0" encoding="UTF-8"?>
<!DOCTYPE svg PUBLIC "-//W3C//DTD SVG 1.1//EN" "http://www.w3.org/Graphics/SVG/1.1/DTD/svg11.dtd">
<svg xmlns="http://www.w3.org/2000/svg" style="background-color: rgb(255, 255, 255);" xmlns:xlink="http://www.w3.org/1999/xlink" version="1.1" width="802px" height="802px" viewBox="-0.5 -0.5 802 802"><defs><style type="text/css">@import url(https://fonts.googleapis.com/css2?family=Architects+Daughter:wght@400;500);&#xa;</style></defs><g><path d="M 0 0 L 800 0" fill="none" stroke="rgb(0, 0, 0)" stroke-width="0.3" stroke-miterlimit="10" pointer-events="stroke"/><path d="M 0 80 L 800 80" fill="none" stroke="rgb(0, 0, 0)" stroke-width="0.3" stroke-miterlimit="10" pointer-events="stroke"/><path d="M 0 160 L 800 160" fill="none" stroke="rgb(0, 0, 0)" stroke-width="0.3" stroke-miterlimit="10" pointer-events="stroke"/><path d="M 0 240 L 800 240" fill="none" stroke="rgb(0, 0, 0)" stroke-width="0.3" stroke-miterlimit="10" pointer-events="stroke"/><path d="M 0 320 L 800 320" fill="none" stroke="rgb(0, 0, 0)" stroke-width="0.3" stroke-miterlimit="10" pointer-events="stroke"/><path d="M 0 400 L 800 400" fill="none" stroke="rgb(0, 0, 0)" stroke-width="0.3" stroke-miterlimit="10" pointer-events="stroke"/><path d="M 0 480 L 800 480" fill="none" stroke="rgb(0, 0, 0)" stroke-width="0.3" stroke-miterlimit="10" pointer-events="stroke"/><path d="M 0 560 L 800 560" fill="none" stroke="rgb(0, 0, 0)" stroke-width="0.3" stroke-miterlimit="10" pointer-events="stroke"/><path d="M 0 640 L 800 640" fill="none" stroke="rgb(0, 0, 0)" stroke-width="0.3" stroke-miterlimit="10" pointer-events="stroke"/><path d="M 0 0 L 0 800" fill="none" stroke="rgb(0, 0, 0)" stroke-width="0.3" stroke-miterlimit="10" pointer-events="stroke"/><path d="M 80 0 L 80 800" fill="none" stroke="rgb(0, 0, 0)" stroke-width="0.3" stroke-miterlimit="10" pointer-events="stroke"/><path d="M 160 0 L 160 800" fill="none" stroke="rgb(0, 0, 0)" stroke-width="0.3" stroke-miterlimit="10" pointer-events="stroke"/><path d="M 240 0 L 240 800" fill="none" stroke="rgb(0, 0, 0)" stroke-width="0.3" stroke-miterlimit="10" pointer-events="stroke"/><path d="M 320 0 L 320 800" fill="none" stroke="rgb(0, 0, 0)" stroke-width="0.3" stroke-miterlimit="10" pointer-events="stroke"/><path d="M 400 0 L 400 800" fill="none" stroke="rgb(0, 0, 0)" stroke-width="0.3" stroke-miterlimit="10" pointer-events="stroke"/><path d="M 480 0 L 480 800" fill="none" stroke="rgb(0, 0, 0)" stroke-width="0.3" stroke-miterlimit="10" pointer-events="stroke"/><path d="M 560 0 L 560 800" fill="none" stroke="rgb(0, 0, 0)" stroke-width="0.3" stroke-miterlimit="10" pointer-events="stroke"/><path d="M 640 0 L 640 800" fill="none" stroke="rgb(0, 0, 0)" stroke-width="0.3" stroke-miterlimit="10" pointer-events="stroke"/><path d="M 0 720 L 800 720" fill="none" stroke="rgb(0, 0, 0)" stroke-width="0.3" stroke-miterlimit="10" pointer-events="stroke"/><path d="M 0 800 L 800 800" fill="none" stroke="rgb(0, 0, 0)" stroke-width="0.3" stroke-miterlimit="10" pointer-events="stroke"/><path d="M 720 0 L 720 800" fill="none" stroke="rgb(0, 0, 0)" stroke-width="0.3" stroke-miterlimit="10" pointer-events="stroke"/><path d="M 800 0 L 800 800" fill="none" stroke="rgb(0, 0, 0)" stroke-width="0.3" stroke-miterlimit="10" pointer-events="stroke"/><path d="M 320 160 L 480 320 L 320 480 L 160 320 Z" fill="none" stroke="rgb(0, 0, 0)" stroke-width="2" stroke-miterlimit="10" pointer-events="all"/><path d="M 560 160 L 720 320 L 560 480 L 400 320 Z" fill="none" stroke="rgb(0, 0, 0)" stroke-width="2" stroke-miterlimit="10" pointer-events="all"/><path d="M 240 320 L 400 480 L 240 640 L 80 480 Z" fill="none" stroke="rgb(0, 0, 0)" stroke-width="2" stroke-miterlimit="10" pointer-events="all"/><path d="M 480 320 L 640 480 L 480 640 L 320 480 Z" fill="none" stroke="rgb(0, 0, 0)" stroke-width="2" stroke-miterlimit="10" pointer-events="all"/><ellipse cx="400" cy="400" rx="10" ry="10" fill="transparent" stroke="#33ff33" stroke-width="2" pointer-events="all"/><ellipse cx="320" cy="560" rx="6" ry="6" fill="rgb(0, 0, 0)" stroke="none" pointer-events="all"/><rect x="300" y="540" width="40" height="40" fill="none" stroke="none" pointer-events="all"/><ellipse cx="400" cy="560" rx="6" ry="6" fill="rgb(0, 0, 0)" stroke="none" pointer-events="all"/><rect x="380" y="540" width="40" height="40" fill="none" stroke="none" pointer-events="all"/><ellipse cx="320" cy="480" rx="6" ry="6" fill="rgb(0, 0, 0)" stroke="none" pointer-events="all"/><rect x="300" y="460" width="40" height="40" fill="none" stroke="none" pointer-events="all"/><ellipse cx="400" cy="480" rx="6" ry="6" fill="rgb(0, 0, 0)" stroke="none" pointer-events="all"/><rect x="380" y="460" width="40" height="40" fill="none" stroke="none" pointer-events="all"/><ellipse cx="320" cy="480" rx="6" ry="6" fill="rgb(0, 0, 0)" stroke="none" pointer-events="all"/><rect x="300" y="460" width="40" height="40" fill="none" stroke="none" pointer-events="all"/><ellipse cx="400" cy="480" rx="6" ry="6" fill="rgb(0, 0, 0)" stroke="none" pointer-events="all"/><rect x="380" y="460" width="40" height="40" fill="none" stroke="none" pointer-events="all"/><ellipse cx="320" cy="400" rx="6" ry="6" fill="rgb(0, 0, 0)" stroke="none" pointer-events="all"/><rect x="300" y="380" width="40" height="40" fill="none" stroke="none" pointer-events="all"/><ellipse cx="400" cy="400" rx="6" ry="6" fill="rgb(0, 0, 0)" stroke="none" pointer-events="all"/><rect x="380" y="380" width="40" height="40" fill="none" stroke="none" pointer-events="all"/><ellipse cx="400" cy="400" rx="6" ry="6" fill="rgb(0, 0, 0)" stroke="none" pointer-events="all"/><rect x="380" y="380" width="40" height="40" fill="none" stroke="none" pointer-events="all"/><ellipse cx="480" cy="400" rx="6" ry="6" fill="rgb(0, 0, 0)" stroke="none" pointer-events="all"/><rect x="460" y="380" width="40" height="40" fill="none" stroke="none" pointer-events="all"/><ellipse cx="400" cy="320" rx="6" ry="6" fill="rgb(0, 0, 0)" stroke="none" pointer-events="all"/><rect x="380" y="300" width="40" height="40" fill="none" stroke="none" pointer-events="all"/><ellipse cx="480" cy="320" rx="6" ry="6" fill="rgb(0, 0, 0)" stroke="none" pointer-events="all"/><rect x="460" y="300" width="40" height="40" fill="none" stroke="none" pointer-events="all"/><ellipse cx="400" cy="320" rx="6" ry="6" fill="rgb(0, 0, 0)" stroke="none" pointer-events="all"/><rect x="380" y="300" width="40" height="40" fill="none" stroke="none" pointer-events="all"/><ellipse cx="480" cy="320" rx="6" ry="6" fill="rgb(0, 0, 0)" stroke="none" pointer-events="all"/><rect x="460" y="300" width="40" height="40" fill="none" stroke="none" pointer-events="all"/><ellipse cx="400" cy="240" rx="6" ry="6" fill="rgb(0, 0, 0)" stroke="none" pointer-events="all"/><rect x="380" y="220" width="40" height="40" fill="none" stroke="none" pointer-events="all"/><ellipse cx="480" cy="240" rx="6" ry="6" fill="rgb(0, 0, 0)" stroke="none" pointer-events="all"/><rect x="460" y="220" width="40" height="40" fill="none" stroke="none" pointer-events="all"/><ellipse cx="160" cy="400" rx="6" ry="6" fill="rgb(0, 0, 0)" stroke="none" pointer-events="all"/><rect x="140" y="380" width="40" height="40" fill="none" stroke="none" pointer-events="all"/><ellipse cx="240" cy="400" rx="6" ry="6" fill="rgb(0, 0, 0)" stroke="none" pointer-events="all"/><rect x="220" y="380" width="40" height="40" fill="none" stroke="none" pointer-events="all"/><ellipse cx="160" cy="320" rx="6" ry="6" fill="rgb(0, 0, 0)" stroke="none" pointer-events="all"/><rect x="140" y="300" width="40" height="40" fill="none" stroke="none" pointer-events="all"/><ellipse cx="240" cy="320" rx="6" ry="6" fill="rgb(0, 0, 0)" stroke="none" pointer-events="all"/><rect x="220" y="300" width="40" height="40" fill="none" stroke="none" pointer-events="all"/><ellipse cx="160" cy="320" rx="6" ry="6" fill="rgb(0, 0, 0)" stroke="none" pointer-events="all"/><rect x="140" y="300" width="40" height="40" fill="none" stroke="none" pointer-events="all"/><ellipse cx="240" cy="320" rx="6" ry="6" fill="rgb(0, 0, 0)" stroke="none" pointer-events="all"/><rect x="220" y="300" width="40" height="40" fill="none" stroke="none" pointer-events="all"/><ellipse cx="560" cy="480" rx="6" ry="6" fill="rgb(0, 0, 0)" stroke="none" pointer-events="all"/><rect x="540" y="460" width="40" height="40" fill="none" stroke="none" pointer-events="all"/><ellipse cx="640" cy="480" rx="6" ry="6" fill="rgb(0, 0, 0)" stroke="none" pointer-events="all"/><rect x="620" y="460" width="40" height="40" fill="none" stroke="none" pointer-events="all"/><ellipse cx="560" cy="400" rx="6" ry="6" fill="rgb(0, 0, 0)" stroke="none" pointer-events="all"/><rect x="540" y="380" width="40" height="40" fill="none" stroke="none" pointer-events="all"/><ellipse cx="640" cy="400" rx="6" ry="6" fill="rgb(0, 0, 0)" stroke="none" pointer-events="all"/><rect x="620" y="380" width="40" height="40" fill="none" stroke="none" pointer-events="all"/><ellipse cx="560" cy="400" rx="6" ry="6" fill="rgb(0, 0, 0)" stroke="none" pointer-events="all"/><rect x="540" y="380" width="40" height="40" fill="none" stroke="none" pointer-events="all"/><ellipse cx="640" cy="400" rx="6" ry="6" fill="rgb(0, 0, 0)" stroke="none" pointer-events="all"/><rect x="620" y="380" width="40" height="40" fill="none" stroke="none" pointer-events="all"/><path d="M 320 240 L 400 320 L 320 400 L 240 320 Z" fill-opacity="0.25" fill="#000000" stroke="none" pointer-events="all"/><path d="M 240 400 L 320 480 L 240 560 L 160 480 Z" fill-opacity="0.25" fill="#000000" stroke="none" pointer-events="all"/><path d="M 480 400 L 560 480 L 480 560 L 400 480 Z" fill-opacity="0.25" fill="#000000" stroke="none" pointer-events="all"/><path d="M 560 240 L 640 320 L 560 400 L 480 320 Z" fill-opacity="0.25" fill="#000000" stroke="none" pointer-events="all"/><ellipse cx="400" cy="400" rx="10" ry="10" fill="transparent" stroke="none" pointer-events="all"/></g></svg>