<?xml version="1.0" encoding="UTF-8"?>
<!DOCTYPE svg PUBLIC "-//W3C//DTD SVG 1.1//EN" "http://www.w3.org/Graphics/SVG/1.1/DTD/svg11.dtd">
<svg xmlns="http://www.w3.org/2000/svg" style="background-color: rgb(255, 255, 255);" xmlns:xlink="http://www.w3.org/1999/xlink" version="1.1" width="482px" height="482px" viewBox="-0.5 -0.5 482 482"><defs/><g><path d="M 0 0 L 480 0" fill="none" stroke="rgb(0, 0, 0)" stroke-width="0.3" stroke-miterlimit="10" pointer-events="stroke"/><path d="M 0 80 L 480 80" fill="none" stroke="rgb(0, 0, 0)" stroke-width="0.3" stroke-miterlimit="10" pointer-events="stroke"/><path d="M 0 160 L 480 160" fill="none" stroke="rgb(0, 0, 0)" stroke-width="0.3" stroke-miterlimit="10" pointer-events="stroke"/><path d="M 0 240 L 480 240" fill="none" stroke="rgb(0, 0, 0)" stroke-width="0.3" stroke-miterlimit="10" pointer-events="stroke"/><path d="M 0 320 L 480 320" fill="none" stroke="rgb(0, 0, 0)" stroke-width="0.3" stroke-miterlimit="10" pointer-events="stroke"/><path d="M 0 400 L 480 400" fill="none" stroke="rgb(0, 0, 0)" stroke-width="0.3" stroke-miterlimit="10" pointer-events="stroke"/><path d="M 0 480 L 480 480" fill="none" stroke="rgb(0, 0, 0)" stroke-width="0.3" stroke-miterlimit="10" pointer-events="stroke"/><path d="M 0 0 L 0 480" fill="none" stroke="rgb(0, 0, 0)" stroke-width="0.3" stroke-miterlimit="10" pointer-events="stroke"/><path d="M 80 0 L 80 480" fill="none" stroke="rgb(0, 0, 0)" stroke-width="0.3" stroke-miterlimit="10" pointer-events="stroke"/><path d="M 160 0 L 160 480" fill="none" stroke="rgb(0, 0, 0)" stroke-width="0.3" stroke-miterlimit="10" pointer-events="stroke"/><path d="M 240 0 L 240 480" fill="none" stroke="rgb(0, 0, 0)" stroke-width="0.3" stroke-miterlimit="10" pointer-events="stroke"/><path d="M 320 0 L 320 480" fill="none" stroke="rgb(0, 0, 0)" stroke-width="0.3" stroke-miterlimit="10" pointer-events="stroke"/><path d="M 400 0 L 400 480" fill="none" stroke="rgb(0, 0, 0)" stroke-width="0.3" stroke-miterlimit="10" pointer-events="stroke"/><path d="M 480 0 L 480 480" fill="none" stroke="rgb(0, 0, 0)" stroke-width="0.3" stroke-miterlimit="10" pointer-events="stroke"/><path d="M 152 150 L 160 158 L 168 150 L 170 152 L 162 160 L 170 168 L 168 170 L 160 162 L 152 170 L 150 168 L 158 160 L 150 152 Z" fill="#ff0000" stroke="none" pointer-events="all"/><path d="M 152 230 L 160 238 L 168 230 L 170 232 L 162 240 L 170 248 L 168 250 L 160 242 L 152 250 L 150 248 L 158 240 L 150 232 Z" fill="#ff0000" stroke="none" pointer-events="all"/><path d="M 312 310 L 320 318 L 328 310 L 330 312 L 322 320 L 330 328 L 328 330 L 320 322 L 312 330 L 310 328 L 318 320 L 310 312 Z" fill="#ff0000" stroke="none" pointer-events="all"/><path d="M 232 150 L 240 158 L 248 150 L 250 152 L 242 160 L 250 168 L 248 170 L 240 162 L 232 170 L 230 168 L 238 160 L 230 152 Z" fill="#ff0000" stroke="none" pointer-events="all"/><path d="M 312 230 L 320 238 L 328 230 L 330 232 L 322 240 L 330 248 L 328 250 L 320 242 L 312 250 L 310 248 L 318 240 L 310 232 Z" fill="#ff0000" stroke="none" pointer-events="all"/><path d="M 312 150 L 320 158 L 328 150 L 330 152 L 322 160 L 330 168 L 328 170 L 320 162 L 312 170 L 310 168 L 318 160 L 310 152 Z" fill="#ff0000" stroke="none" pointer-events="all"/><path d="M 152 310 L 160 318 L 168 310 L 170 312 L 162 320 L 170 328 L 168 330 L 160 322 L 152 330 L 150 328 L 158 320 L 150 312 Z" fill="#ff0000" stroke="none" pointer-events="all"/><path d="M 232 310 L 240 318 L 248 310 L 250 312 L 242 320 L 250 328 L 248 330 L 240 322 L 232 330 L 230 328 L 238 320 L 230 312 Z" fill="#ff0000" stroke="none" pointer-events="all"/><ellipse cx="240" cy="240" rx="10" ry="10" fill="transparent" stroke="#33ff33" stroke-width="2" pointer-events="all"/></g></svg>