<!-- x: 3270298; y: 2638237, -->
<svg xmlns="http://www.w3.org/2000/svg" width="100%" height="100%" viewBox="3270235.5 2638174.5 125 125">
    <rect x="0" y="0" width="4000000" height="4000000" fill="none" stroke="black" stroke-width="0.1%" stroke-dasharray="1%" />
    <polygon points="1112863,2092263,2708339,496787,1112863,-1098689,-482613,496787" fill="#ff0080" fill-opacity="0.25" stroke="black" stroke-width="0.1%" />
    <polygon points="2980210,1745990,3013773,1712427,2980210,1678864,2946647,1712427" fill="#ff8000" fill-opacity="0.25" stroke="black" stroke-width="0.1%" />
    <polygon points="2799204,1860226,3234147,1425283,2799204,990340,2364261,1425283" fill="#ff0000" fill-opacity="0.25" stroke="black" stroke-width="0.1%" />
    <polygon points="3999908,2921276,4166901,2754283,3999908,2587290,3832915,2754283" fill="#00ffaa" fill-opacity="0.25" stroke="black" stroke-width="0.1%" />
    <polygon points="760990,2259610,1564975,1455625,760990,651640,-42995,1455625" fill="#0040ff" fill-opacity="0.25" stroke="black" stroke-width="0.1%" />
    <polygon points="3996490,3896086,4652597,3239979,3996490,2583872,3340383,3239979" fill="#006aff" fill-opacity="0.25" stroke="black" stroke-width="0.1%" />
    <polygon points="3347352,3889084,3632847,3603589,3347352,3318094,3061857,3603589" fill="#d4ff00" fill-opacity="0.25" stroke="black" stroke-width="0.1%" />
    <polygon points="2888433,3020101,3571377,2337157,2888433,1654213,2205489,2337157" fill="#ffbf00" fill-opacity="0.25" stroke="black" stroke-width="0.1%" />
    <polygon points="3423261,2791199,4022502,2191958,3423261,1592717,2824020,2191958" fill="#ff00ff" fill-opacity="0.25" stroke="black" stroke-width="0.1%" />
    <polygon points="1160237,5465542,2625819,3999960,1160237,2534378,-305345,3999960" fill="#ff002b" fill-opacity="0.25" stroke="black" stroke-width="0.1%" />
    <polygon points="693519,4401482,1393712,3701289,693519,3001096,-6674,3701289" fill="#40ff00" fill-opacity="0.25" stroke="black" stroke-width="0.1%" />   
    <polygon points="2615270,2996222,2786684,2824808,2615270,2653394,2443856,2824808" fill="#aa00ff" fill-opacity="0.25" stroke="black" stroke-width="0.1%" />
    <polygon points="3046971,1898529,3190006,1755494,3046971,1612459,2903936,1755494" fill="#95ff00" fill-opacity="0.25" stroke="black" stroke-width="0.1%" />
    <polygon points="139591,2881009,1833688,1186912,139591,-507185,-1554506,1186912" fill="#0095ff" fill-opacity="0.25" stroke="black" stroke-width="0.1%" />
    <polygon points="2309134,1789538,4051582,47090,2309134,-1695358,566686,47090" fill="#00eaff" fill-opacity="0.25" stroke="black" stroke-width="0.1%" />   
    <polygon points="1849154,2810276,3282171,1377259,1849154,-55758,416137,1377259" fill="#ffea00" fill-opacity="0.25" stroke="black" stroke-width="0.1%" /> 
    <polygon points="2515971,2973225,2637343,2851853,2515971,2730481,2394599,2851853" fill="#0000ff" fill-opacity="0.25" stroke="black" stroke-width="0.1%" />
    <polygon points="2524614,2964582,2751058,2738138,2524614,2511694,2298170,2738138" fill="#00ffea" fill-opacity="0.25" stroke="black" stroke-width="0.1%" />
    <polygon points="3811778,2520300,4961798,1370280,3811778,220260,2661758,1370280" fill="#ff00bf" fill-opacity="0.25" stroke="black" stroke-width="0.1%" />
    <polygon points="2615590,4765136,3561355,3819371,2615590,2873606,1669825,3819371" fill="#00bfff" fill-opacity="0.25" stroke="black" stroke-width="0.1%" />
    <polygon points="3996286,4198276,4475349,3719213,3996286,3240150,3517223,3719213" fill="#ff0080" fill-opacity="0.25" stroke="black" stroke-width="0.1%" />
    <polygon points="3963152,2752488,4346713,2368927,3963152,1985366,3579591,2368927" fill="#ff8000" fill-opacity="0.25" stroke="black" stroke-width="0.1%" />
    <polygon points="3495504,3740932,4159454,3076982,3495504,2413032,2831554,3076982" fill="#ff0000" fill-opacity="0.25" stroke="black" stroke-width="0.1%" />
    <polygon points="3725521,2990119,4154876,2560764,3725521,2131409,3296166,2560764" fill="#00ffaa" fill-opacity="0.25" stroke="black" stroke-width="0.1%" />
    <polygon points="952643,2838759,1406001,2385401,952643,1932043,499285,2385401" fill="#0040ff" fill-opacity="0.25" stroke="black" stroke-width="0.1%" />  
    <polygon points="3934384,2781256,4119534,2596106,3934384,2410956,3749234,2596106" fill="#006aff" fill-opacity="0.25" stroke="black" stroke-width="0.1%" />
    <polygon points="3060628,3736892,3714790,3082730,3060628,2428568,2406466,3082730" fill="#d4ff00" fill-opacity="0.25" stroke="black" stroke-width="0.1%" />
    <polygon points="3468382,4372496,3924061,3916817,3468382,3461138,3012703,3916817" fill="#ffbf00" fill-opacity="0.25" stroke="black" stroke-width="0.1%" />
    <polygon points="3300107,1819665,4650408,469364,3300107,-880937,1949806,469364" fill="#ff00ff" fill-opacity="0.25" stroke="black" stroke-width="0.1%" /> 
    <polygon points="2306388,2792354,3166481,1932261,2306388,1072168,1446295,1932261" fill="#ff002b" fill-opacity="0.25" stroke="black" stroke-width="0.1%" />
    <polygon points="1965,3692650,180545,3514070,1965,3335490,-176615,3514070" fill="#40ff00" fill-opacity="0.25" stroke="black" stroke-width="0.1%" />      
    <polygon points="3081537,1934441,3174117,1841861,3081537,1749281,2988957,1841861" fill="#aa00ff" fill-opacity="0.25" stroke="black" stroke-width="0.1%" />
    <polygon points="2997643,1797771,3065635,1729779,2997643,1661787,2929651,1729779" fill="#95ff00" fill-opacity="0.25" stroke="black" stroke-width="0.1%" />
    <polygon points="21714,3750339,147872,3624181,21714,3498023,-104444,3624181" fill="#0095ff" fill-opacity="0.25" stroke="black" stroke-width="0.1%" />    
    <polygon points="1549467,4288119,2728317,3109269,1549467,1930419,370617,3109269" fill="#00eaff" fill-opacity="0.25" stroke="black" stroke-width="0.1%" />
    <polygon points="3722307,4164691,4047588,3839410,3722307,3514129,3397026,3839410" fill="#ffea00" fill-opacity="0.25" stroke="black" stroke-width="0.1%" />
    <polygon points="3848580,3841336,4145038,3544878,3848580,3248420,3552122,3544878" fill="#0000ff" fill-opacity="0.25" stroke="black" stroke-width="0.1%" />
    <polygon points="1189516,2475394,1511671,2153239,1189516,1831084,867361,2153239" fill="#00ffea" fill-opacity="0.25" stroke="black" stroke-width="0.1%" />
    <polygon points="468190,2552410,1131396,1889204,468190,1225998,-195016,1889204" fill="#ff00bf" fill-opacity="0.25" stroke="black" stroke-width="0.1%" /> 
    <polygon points="270403,3746712,1254547,2762568,270403,1778424,-713741,2762568" fill="#00bfff" fill-opacity="0.25" stroke="black" stroke-width="0.1%" />
    <circle cx="3270298" cy="2638237" r="2%" stroke="black" stroke-width="0.2%" fill="none" />
</svg>