<?xml version="1.0" encoding="UTF-8"?>
<!DOCTYPE svg PUBLIC "-//W3C//DTD SVG 1.1//EN" "http://www.w3.org/Graphics/SVG/1.1/DTD/svg11.dtd">
<svg xmlns="http://www.w3.org/2000/svg" style="background-color: rgb(255, 255, 255);" xmlns:xlink="http://www.w3.org/1999/xlink" version="1.1" width="802px" height="802px" viewBox="-0.5 -0.5 802 802"><defs/><g><path d="M 0 0 L 800 0" fill="none" stroke="rgb(0, 0, 0)" stroke-width="0.3" stroke-miterlimit="10" pointer-events="stroke"/><path d="M 0 80 L 800 80" fill="none" stroke="rgb(0, 0, 0)" stroke-width="0.3" stroke-miterlimit="10" pointer-events="stroke"/><path d="M 0 160 L 800 160" fill="none" stroke="rgb(0, 0, 0)" stroke-width="0.3" stroke-miterlimit="10" pointer-events="stroke"/><path d="M 0 240 L 800 240" fill="none" stroke="rgb(0, 0, 0)" stroke-width="0.3" stroke-miterlimit="10" pointer-events="stroke"/><path d="M 0 320 L 800 320" fill="none" stroke="rgb(0, 0, 0)" stroke-width="0.3" stroke-miterlimit="10" pointer-events="stroke"/><path d="M 0 400 L 800 400" fill="none" stroke="rgb(0, 0, 0)" stroke-width="0.3" stroke-miterlimit="10" pointer-events="stroke"/><path d="M 0 480 L 800 480" fill="none" stroke="rgb(0, 0, 0)" stroke-width="0.3" stroke-miterlimit="10" pointer-events="stroke"/><path d="M 0 560 L 800 560" fill="none" stroke="rgb(0, 0, 0)" stroke-width="0.3" stroke-miterlimit="10" pointer-events="stroke"/><path d="M 0 640 L 800 640" fill="none" stroke="rgb(0, 0, 0)" stroke-width="0.3" stroke-miterlimit="10" pointer-events="stroke"/><path d="M 0 0 L 0 800" fill="none" stroke="rgb(0, 0, 0)" stroke-width="0.3" stroke-miterlimit="10" pointer-events="stroke"/><path d="M 80 0 L 80 800" fill="none" stroke="rgb(0, 0, 0)" stroke-width="0.3" stroke-miterlimit="10" pointer-events="stroke"/><path d="M 160 0 L 160 800" fill="none" stroke="rgb(0, 0, 0)" stroke-width="0.3" stroke-miterlimit="10" pointer-events="stroke"/><path d="M 240 0 L 240 800" fill="none" stroke="rgb(0, 0, 0)" stroke-width="0.3" stroke-miterlimit="10" pointer-events="stroke"/><path d="M 320 0 L 320 800" fill="none" stroke="rgb(0, 0, 0)" stroke-width="0.3" stroke-miterlimit="10" pointer-events="stroke"/><path d="M 400 0 L 400 800" fill="none" stroke="rgb(0, 0, 0)" stroke-width="0.3" stroke-miterlimit="10" pointer-events="stroke"/><path d="M 480 0 L 480 800" fill="none" stroke="rgb(0, 0, 0)" stroke-width="0.3" stroke-miterlimit="10" pointer-events="stroke"/><path d="M 560 0 L 560 800" fill="none" stroke="rgb(0, 0, 0)" stroke-width="0.3" stroke-miterlimit="10" pointer-events="stroke"/><path d="M 640 0 L 640 800" fill="none" stroke="rgb(0, 0, 0)" stroke-width="0.3" stroke-miterlimit="10" pointer-events="stroke"/><path d="M 0 720 L 800 720" fill="none" stroke="rgb(0, 0, 0)" stroke-width="0.3" stroke-miterlimit="10" pointer-events="stroke"/><path d="M 0 800 L 800 800" fill="none" stroke="rgb(0, 0, 0)" stroke-width="0.3" stroke-miterlimit="10" pointer-events="stroke"/><path d="M 720 0 L 720 800" fill="none" stroke="rgb(0, 0, 0)" stroke-width="0.3" stroke-miterlimit="10" pointer-events="stroke"/><path d="M 800 0 L 800 800" fill="none" stroke="rgb(0, 0, 0)" stroke-width="0.3" stroke-miterlimit="10" pointer-events="stroke"/><path d="M 320 160 L 480 320 L 320 480 L 160 320 Z" fill-opacity="0.25" fill="#000000" stroke="rgb(0, 0, 0)" stroke-width="2" stroke-miterlimit="10" pointer-events="all"/><path d="M 240 320 L 400 480 L 240 640 L 80 480 Z" fill-opacity="0.25" fill="#000000" stroke="rgb(0, 0, 0)" stroke-width="2" stroke-miterlimit="10" pointer-events="all"/><path d="M 480 320 L 640 480 L 480 640 L 320 480 Z" fill-opacity="0.25" fill="#000000" stroke="rgb(0, 0, 0)" stroke-width="2" stroke-miterlimit="10" pointer-events="all"/><path d="M 560 160 L 720 320 L 560 480 L 400 320 Z" fill-opacity="0.25" fill="#000000" stroke="rgb(0, 0, 0)" stroke-width="2" stroke-miterlimit="10" pointer-events="all"/><ellipse cx="400" cy="400" rx="10" ry="10" fill="transparent" stroke="#33ff33" stroke-width="2" pointer-events="all"/></g></svg>