<?xml version="1.0" encoding="UTF-8"?>
<!DOCTYPE svg PUBLIC "-//W3C//DTD SVG 1.1//EN" "http://www.w3.org/Graphics/SVG/1.1/DTD/svg11.dtd">
<svg xmlns="http://www.w3.org/2000/svg" style="background-color: rgb(255, 255, 255);" xmlns:xlink="http://www.w3.org/1999/xlink" version="1.1" width="482px" height="482px" viewBox="-0.5 -0.5 482 482"><defs/><g><path d="M 0 0 L 480 0" fill="none" stroke="rgb(0, 0, 0)" stroke-width="0.3" stroke-miterlimit="10" pointer-events="stroke"/><path d="M 0 80 L 480 80" fill="none" stroke="rgb(0, 0, 0)" stroke-width="0.3" stroke-miterlimit="10" pointer-events="stroke"/><path d="M 0 160 L 480 160" fill="none" stroke="rgb(0, 0, 0)" stroke-width="0.3" stroke-miterlimit="10" pointer-events="stroke"/><path d="M 0 240 L 480 240" fill="none" stroke="rgb(0, 0, 0)" stroke-width="0.3" stroke-miterlimit="10" pointer-events="stroke"/><path d="M 0 320 L 480 320" fill="none" stroke="rgb(0, 0, 0)" stroke-width="0.3" stroke-miterlimit="10" pointer-events="stroke"/><path d="M 0 400 L 480 400" fill="none" stroke="rgb(0, 0, 0)" stroke-width="0.3" stroke-miterlimit="10" pointer-events="stroke"/><path d="M 0 480 L 480 480" fill="none" stroke="rgb(0, 0, 0)" stroke-width="0.3" stroke-miterlimit="10" pointer-events="stroke"/><path d="M 0 0 L 0 480" fill="none" stroke="rgb(0, 0, 0)" stroke-width="0.3" stroke-miterlimit="10" pointer-events="stroke"/><path d="M 80 240 L 80 480" fill="none" stroke="rgb(0, 0, 0)" stroke-width="0.3" stroke-miterlimit="10" pointer-events="stroke"/><path d="M 160 240 L 160 480" fill="none" stroke="rgb(0, 0, 0)" stroke-width="0.3" stroke-miterlimit="10" pointer-events="stroke"/><path d="M 240 80 L 240 480" fill="none" stroke="rgb(0, 0, 0)" stroke-width="0.3" stroke-miterlimit="10" pointer-events="stroke"/><path d="M 320 160 L 320 480" fill="none" stroke="rgb(0, 0, 0)" stroke-width="0.3" stroke-miterlimit="10" pointer-events="stroke"/><path d="M 400 0 L 400 480" fill="none" stroke="rgb(0, 0, 0)" stroke-width="0.3" stroke-miterlimit="10" pointer-events="stroke"/><path d="M 480 0 L 480 480" fill="none" stroke="rgb(0, 0, 0)" stroke-width="0.3" stroke-miterlimit="10" pointer-events="stroke"/><path d="M 240 0 L 240 80" fill="none" stroke="rgb(0, 0, 0)" stroke-width="0.3" stroke-miterlimit="10" pointer-events="stroke"/><path d="M 80 0 L 80 240" fill="none" stroke="rgb(0, 0, 0)" stroke-width="0.3" stroke-miterlimit="10" pointer-events="stroke"/><path d="M 320 0 L 320 160" fill="none" stroke="rgb(0, 0, 0)" stroke-width="0.3" stroke-miterlimit="10" pointer-events="stroke"/><ellipse cx="240" cy="160" rx="5.999999999999999" ry="5.999999999999999" fill="#4400ff" stroke="none" pointer-events="all"/><rect x="220" y="140" width="40" height="40" fill="none" stroke="none" pointer-events="all"/><path d="M 160 0 L 160 240" fill="none" stroke="rgb(0, 0, 0)" stroke-width="0.3" stroke-miterlimit="10" pointer-events="stroke"/><ellipse cx="160" cy="240" rx="5.999999999999999" ry="5.999999999999999" fill="#4400ff" stroke="none" pointer-events="all"/><rect x="140" y="220" width="40" height="40" fill="none" stroke="none" pointer-events="all"/><ellipse cx="240" cy="320" rx="5.999999999999999" ry="5.999999999999999" fill="#4400ff" stroke="none" pointer-events="all"/><rect x="220" y="300" width="40" height="40" fill="none" stroke="none" pointer-events="all"/><ellipse cx="320" cy="240" rx="5.999999999999999" ry="5.999999999999999" fill="#4400ff" stroke="none" pointer-events="all"/><rect x="300" y="220" width="40" height="40" fill="none" stroke="none" pointer-events="all"/><path d="M 240 80 L 400 240 L 240 400 L 80 240 Z" fill-opacity="0.25" fill="#000000" stroke="rgb(0, 0, 0)" stroke-width="2" stroke-miterlimit="10" pointer-events="all"/><ellipse cx="160" cy="160" rx="5.999999999999999" ry="5.999999999999999" fill="#ff3333" stroke="none" pointer-events="all"/><rect x="140" y="140" width="40" height="40" fill="none" stroke="none" pointer-events="all"/><ellipse cx="160" cy="320" rx="5.999999999999999" ry="5.999999999999999" fill="#ff3333" stroke="none" pointer-events="all"/><rect x="140" y="300" width="40" height="40" fill="none" stroke="none" pointer-events="all"/><ellipse cx="240" cy="400" rx="5.999999999999999" ry="5.999999999999999" fill="#ff3333" stroke="none" pointer-events="all"/><rect x="220" y="380" width="40" height="40" fill="none" stroke="none" pointer-events="all"/><ellipse cx="320" cy="320" rx="5.999999999999999" ry="5.999999999999999" fill="#ff3333" stroke="none" pointer-events="all"/><rect x="300" y="300" width="40" height="40" fill="none" stroke="none" pointer-events="all"/><ellipse cx="400" cy="240" rx="5.999999999999999" ry="5.999999999999999" fill="#ff3333" stroke="none" pointer-events="all"/><rect x="380" y="220" width="40" height="40" fill="none" stroke="none" pointer-events="all"/><ellipse cx="320" cy="160" rx="5.999999999999999" ry="5.999999999999999" fill="#ff3333" stroke="none" pointer-events="all"/><rect x="300" y="140" width="40" height="40" fill="none" stroke="none" pointer-events="all"/><ellipse cx="240" cy="240" rx="5.999999999999999" ry="5.999999999999999" fill="#ff3333" stroke="none" pointer-events="all"/><rect x="220" y="220" width="40" height="40" fill="none" stroke="none" pointer-events="all"/><ellipse cx="240" cy="80" rx="5.999999999999999" ry="5.999999999999999" fill="#ff3333" stroke="none" pointer-events="all"/><rect x="220" y="60" width="40" height="40" fill="none" stroke="none" pointer-events="all"/><ellipse cx="80" cy="240" rx="5.999999999999999" ry="5.999999999999999" fill="#ff3333" stroke="none" pointer-events="all"/><rect x="60" y="220" width="40" height="40" fill="none" stroke="none" pointer-events="all"/></g></svg>