<?xml version="1.0" encoding="UTF-8"?>
<!DOCTYPE svg PUBLIC "-//W3C//DTD SVG 1.1//EN" "http://www.w3.org/Graphics/SVG/1.1/DTD/svg11.dtd">
<svg xmlns="http://www.w3.org/2000/svg" style="background-color: rgb(255, 255, 255);" xmlns:xlink="http://www.w3.org/1999/xlink" version="1.1" width="1042px" height="1042px" viewBox="-0.5 -0.5 1042 1042"><defs/><g><rect x="400" y="400" width="320" height="320" fill="none" stroke="rgb(0, 0, 0)" stroke-width="2" stroke-dasharray="6 6" pointer-events="all"/><path d="M 720 240 L 960 480 L 720 720 L 480 480 Z" fill-opacity="0.25" fill="#000000" stroke="rgb(0, 0, 0)" stroke-width="2" stroke-miterlimit="10" pointer-events="all"/><path d="M 400 80 L 720 400 L 400 720 L 80 400 Z" fill-opacity="0.25" fill="#000000" stroke="rgb(0, 0, 0)" stroke-width="2" stroke-miterlimit="10" pointer-events="all"/><path d="M 720 400 L 960 640 L 720 880 L 480 640 Z" fill-opacity="0.25" fill="#000000" stroke="rgb(0, 0, 0)" stroke-width="2" stroke-miterlimit="10" pointer-events="all"/><path d="M 480 480 L 720 720 L 480 960 L 240 720 Z" fill-opacity="0.25" fill="#000000" stroke="rgb(0, 0, 0)" stroke-width="2" stroke-miterlimit="10" pointer-events="all"/><ellipse cx="560" cy="560" rx="10" ry="10" fill="transparent" stroke="#33ff33" stroke-width="2" pointer-events="all"/><ellipse cx="320" cy="640" rx="6" ry="6" fill="rgb(0, 0, 0)" stroke="none" pointer-events="all"/><rect x="300" y="620" width="40" height="40" fill="none" stroke="none" pointer-events="all"/><ellipse cx="640" cy="320" rx="6" ry="6" fill="rgb(0, 0, 0)" stroke="none" pointer-events="all"/><rect x="620" y="300" width="40" height="40" fill="none" stroke="none" pointer-events="all"/><ellipse cx="720" cy="400" rx="6" ry="6" fill="rgb(0, 0, 0)" stroke="none" pointer-events="all"/><rect x="700" y="380" width="40" height="40" fill="none" stroke="none" pointer-events="all"/><ellipse cx="880" cy="560" rx="6" ry="6" fill="rgb(0, 0, 0)" stroke="none" pointer-events="all"/><rect x="860" y="540" width="40" height="40" fill="none" stroke="none" pointer-events="all"/><ellipse cx="720" cy="720" rx="6" ry="6" fill="rgb(0, 0, 0)" stroke="none" pointer-events="all"/><rect x="700" y="700" width="40" height="40" fill="none" stroke="none" pointer-events="all"/><ellipse cx="640" cy="800" rx="6" ry="6" fill="rgb(0, 0, 0)" stroke="none" pointer-events="all"/><rect x="620" y="780" width="40" height="40" fill="none" stroke="none" pointer-events="all"/><ellipse cx="480" cy="640" rx="6" ry="6" fill="rgb(0, 0, 0)" stroke="none" pointer-events="all"/><rect x="460" y="620" width="40" height="40" fill="none" stroke="none" pointer-events="all"/><ellipse cx="480" cy="480" rx="6" ry="6" fill="rgb(0, 0, 0)" stroke="none" pointer-events="all"/><rect x="460" y="460" width="40" height="40" fill="none" stroke="none" pointer-events="all"/><ellipse cx="560" cy="560" rx="6" ry="6" fill="rgb(0, 0, 0)" stroke="none" pointer-events="all"/><rect x="540" y="540" width="40" height="40" fill="none" stroke="none" pointer-events="all"/><path d="M 0 0 L 1040 0" fill="none" stroke="rgb(0, 0, 0)" stroke-width="0.3" stroke-miterlimit="10" pointer-events="stroke"/><path d="M 0 80 L 1040 80" fill="none" stroke="rgb(0, 0, 0)" stroke-width="0.3" stroke-miterlimit="10" pointer-events="stroke"/><path d="M 0 160 L 1040 160" fill="none" stroke="rgb(0, 0, 0)" stroke-width="0.3" stroke-miterlimit="10" pointer-events="stroke"/><path d="M 0 240 L 1040 240" fill="none" stroke="rgb(0, 0, 0)" stroke-width="0.3" stroke-miterlimit="10" pointer-events="stroke"/><path d="M 0 320 L 1040 320" fill="none" stroke="rgb(0, 0, 0)" stroke-width="0.3" stroke-miterlimit="10" pointer-events="stroke"/><path d="M 0 400 L 1040 400" fill="none" stroke="rgb(0, 0, 0)" stroke-width="0.3" stroke-miterlimit="10" pointer-events="stroke"/><path d="M 0 480 L 1040 480" fill="none" stroke="rgb(0, 0, 0)" stroke-width="0.3" stroke-miterlimit="10" pointer-events="stroke"/><path d="M 0 560 L 1040 560" fill="none" stroke="rgb(0, 0, 0)" stroke-width="0.3" stroke-miterlimit="10" pointer-events="stroke"/><path d="M 0 640 L 1040 640" fill="none" stroke="rgb(0, 0, 0)" stroke-width="0.3" stroke-miterlimit="10" pointer-events="stroke"/><path d="M 0 0 L 0 1040" fill="none" stroke="rgb(0, 0, 0)" stroke-width="0.3" stroke-miterlimit="10" pointer-events="stroke"/><path d="M 80 0 L 80 1040" fill="none" stroke="rgb(0, 0, 0)" stroke-width="0.3" stroke-miterlimit="10" pointer-events="stroke"/><path d="M 160 0 L 160 1040" fill="none" stroke="rgb(0, 0, 0)" stroke-width="0.3" stroke-miterlimit="10" pointer-events="stroke"/><path d="M 240 0 L 240 1040" fill="none" stroke="rgb(0, 0, 0)" stroke-width="0.3" stroke-miterlimit="10" pointer-events="stroke"/><path d="M 320 0 L 320 1040" fill="none" stroke="rgb(0, 0, 0)" stroke-width="0.3" stroke-miterlimit="10" pointer-events="stroke"/><path d="M 400 0 L 400 1040" fill="none" stroke="rgb(0, 0, 0)" stroke-width="0.3" stroke-miterlimit="10" pointer-events="stroke"/><path d="M 480 0 L 480 1040" fill="none" stroke="rgb(0, 0, 0)" stroke-width="0.3" stroke-miterlimit="10" pointer-events="stroke"/><path d="M 560 0 L 560 1040" fill="none" stroke="rgb(0, 0, 0)" stroke-width="0.3" stroke-miterlimit="10" pointer-events="stroke"/><path d="M 640 0 L 640 1040" fill="none" stroke="rgb(0, 0, 0)" stroke-width="0.3" stroke-miterlimit="10" pointer-events="stroke"/><path d="M 0 720 L 1040 720" fill="none" stroke="rgb(0, 0, 0)" stroke-width="0.3" stroke-miterlimit="10" pointer-events="stroke"/><path d="M 0 800 L 1040 800" fill="none" stroke="rgb(0, 0, 0)" stroke-width="0.3" stroke-miterlimit="10" pointer-events="stroke"/><path d="M 720 0 L 720 1040" fill="none" stroke="rgb(0, 0, 0)" stroke-width="0.3" stroke-miterlimit="10" pointer-events="stroke"/><path d="M 800 0 L 800 1040" fill="none" stroke="rgb(0, 0, 0)" stroke-width="0.3" stroke-miterlimit="10" pointer-events="stroke"/><path d="M 880 0 L 880 1040" fill="none" stroke="rgb(0, 0, 0)" stroke-width="0.3" stroke-miterlimit="10" pointer-events="stroke"/><path d="M 960 0 L 960 1040" fill="none" stroke="rgb(0, 0, 0)" stroke-width="0.3" stroke-miterlimit="10" pointer-events="stroke"/><path d="M 0 880 L 1040 880" fill="none" stroke="rgb(0, 0, 0)" stroke-width="0.3" stroke-miterlimit="10" pointer-events="stroke"/><path d="M 1040 0 L 1040 1040" fill="none" stroke="rgb(0, 0, 0)" stroke-width="0.3" stroke-miterlimit="10" pointer-events="stroke"/><path d="M 0 960 L 1040 960" fill="none" stroke="rgb(0, 0, 0)" stroke-width="0.3" stroke-miterlimit="10" pointer-events="stroke"/><path d="M 0 1040 L 1040 1040" fill="none" stroke="rgb(0, 0, 0)" stroke-width="0.3" stroke-miterlimit="10" pointer-events="stroke"/></g></svg>