<?xml version="1.0" standalone="no"?>
<!DOCTYPE svg PUBLIC "-//W3C//DTD SVG 20010904//EN"
 "http://www.w3.org/TR/2001/REC-SVG-20010904/DTD/svg10.dtd">
<svg version="1.0" xmlns="http://www.w3.org/2000/svg"
 width="592.000000pt" height="592.000000pt" viewBox="0 0 592.000000 592.000000"
 preserveAspectRatio="xMidYMid meet">
<metadata>
Created by potrace 1.14, written by Peter Selinger 2001-2017
</metadata>
<g transform="translate(0.000000,592.000000) scale(0.100000,-0.100000)"
fill="#000000" stroke="none">
<path d="M359 5847 c6 -8 8 -17 4 -21 -4 -4 0 -4 9 -1 39 15 193 -93 343 -241
147 -146 286 -270 296 -267 5 2 5 -5 2 -14 -4 -11 -3 -14 5 -9 8 5 10 2 6 -8
-4 -11 0 -16 10 -16 9 0 16 -5 16 -10 0 -6 8 -10 18 -8 12 2 20 -7 26 -28 6
-20 22 -38 42 -49 21 -11 35 -28 39 -46 4 -16 10 -27 15 -24 5 3 21 -6 36 -20
15 -14 30 -25 34 -25 9 0 261 -284 312 -352 22 -29 43 -62 48 -74 4 -11 20
-38 34 -59 27 -39 35 -95 14 -95 -9 0 -9 -3 0 -12 15 -15 16 -42 2 -33 -6 4
-8 10 -5 15 3 4 -1 10 -9 13 -8 3 -12 16 -11 31 4 37 -24 90 -92 171 -32 39
-69 87 -83 107 -23 35 -26 36 -44 20 -18 -16 -18 -16 -12 14 7 34 -18 74 -48
74 -9 0 -16 8 -16 19 0 10 -7 22 -16 25 -10 4 -13 2 -8 -6 5 -7 2 -9 -7 -6
-10 4 -15 -2 -17 -18 -2 -22 11 -30 41 -25 4 0 7 -3 7 -8 0 -5 10 -11 22 -15
22 -5 23 -6 3 -21 -11 -9 -14 -13 -6 -9 7 3 17 1 21 -6 9 -14 -9 -52 -21 -44
-4 2 -10 0 -14 -6 -6 -9 11 -13 57 -13 9 0 16 -5 15 -11 -1 -6 4 -10 11 -8 10
2 9 -3 -2 -20 -9 -13 -21 -24 -26 -24 -6 -1 -17 -2 -26 -3 -13 -1 -14 -4 -4
-15 6 -8 17 -13 23 -10 14 5 77 -49 77 -65 0 -20 -20 -11 -29 13 -10 26 -37
41 -46 25 -4 -5 -11 -7 -16 -4 -5 4 -9 0 -9 -8 0 -8 14 -20 30 -26 27 -9 34
-18 28 -38 -1 -5 -8 -7 -15 -5 -7 2 -13 -5 -13 -15 -1 -15 -3 -15 -20 6 -17
19 -21 20 -26 7 -3 -8 -3 -19 -1 -23 10 -15 -9 -34 -26 -27 -9 3 -17 10 -17
15 0 5 -4 9 -9 9 -19 0 2 -39 24 -44 14 -4 27 -18 33 -36 9 -25 8 -32 -9 -44
-16 -11 -17 -15 -5 -19 16 -6 11 -47 -7 -59 -6 -3 -10 -20 -10 -37 0 -17 -4
-31 -7 -31 -12 0 -31 28 -22 32 5 1 12 20 16 41 7 36 6 38 -13 27 -12 -6 -21
-15 -21 -20 0 -5 -8 -6 -17 -3 -12 5 -15 2 -10 -10 3 -9 3 -17 -1 -18 -4 0
-20 -2 -37 -4 l-30 -4 25 14 c23 13 23 14 5 15 -12 0 -26 -5 -33 -12 -7 -7
-12 -8 -12 -4 0 5 -11 1 -25 -8 -14 -9 -25 -14 -25 -10 0 4 -7 1 -16 -7 -14
-11 -15 -10 -12 7 2 16 -2 19 -32 17 -19 -1 -36 -7 -38 -13 -3 -7 -12 -6 -29
5 -16 11 -34 14 -54 10 -25 -6 -27 -9 -18 -26 9 -17 12 -18 25 -4 17 16 44 20
44 6 0 -5 -11 -16 -24 -24 -22 -15 -26 -15 -50 4 -32 25 -35 8 -4 -21 l23 -21
-23 -6 c-27 -7 -27 -4 -2 -48 24 -42 25 -49 6 -42 -15 6 -46 -22 -46 -41 0 -6
-9 -14 -20 -17 -23 -7 -24 -15 -9 -67 10 -37 11 -38 59 -38 27 0 61 -5 76 -12
23 -11 28 -10 40 7 10 14 14 15 14 4 0 -9 3 -10 8 -3 4 6 15 15 25 20 17 10
16 12 -5 39 -21 27 -11 27 22 -1 8 -7 29 -14 47 -17 17 -3 37 -8 43 -12 6 -4
17 -1 25 5 8 7 15 9 15 6 0 -4 13 2 29 13 16 12 31 17 33 12 4 -11 118 -20
118 -9 0 4 -13 8 -29 8 -21 0 -32 6 -36 19 -4 12 -13 18 -24 16 -11 -2 -29 3
-41 12 l-21 15 21 15 c17 12 24 13 30 4 4 -7 25 -14 47 -16 43 -5 93 -21 93
-30 0 -4 -4 -3 -10 0 -5 3 -10 1 -10 -4 0 -6 6 -11 14 -11 20 0 32 -60 15 -71
-11 -7 -10 -9 4 -9 9 0 17 6 17 13 0 6 5 4 11 -6 6 -9 14 -15 19 -12 9 5 8
-13 -1 -30 -7 -11 26 -46 35 -37 3 3 6 -2 6 -12 0 -14 -3 -15 -22 -5 -20 11
-22 10 -10 -3 7 -9 12 -20 11 -24 -1 -5 -1 -16 0 -24 1 -13 2 -13 11 0 8 12
11 11 16 -8 5 -16 13 -23 28 -21 40 3 46 -1 66 -41 25 -49 14 -52 -20 -5 -25
35 -53 45 -66 23 -4 -6 5 -21 22 -35 16 -13 28 -28 27 -33 -2 -5 5 -7 15 -5
13 2 18 -5 20 -31 2 -32 0 -34 -18 -24 -11 6 -20 17 -20 25 0 8 -10 21 -22 29
-20 15 -23 14 -40 -15 -21 -35 -23 -46 -4 -30 11 9 15 3 20 -30 6 -34 9 -39
21 -29 8 7 12 16 9 21 -3 5 4 9 15 9 13 0 19 -5 15 -14 -6 -17 34 -66 53 -66
8 0 11 5 7 11 -4 7 -1 10 7 7 8 -3 15 -12 17 -21 2 -12 -1 -15 -11 -11 -21 8
-26 -24 -9 -58 17 -36 27 -41 42 -23 9 11 11 41 7 108 -3 54 -2 76 2 54 4 -20
11 -40 14 -44 11 -10 8 112 -2 123 -5 5 -11 45 -13 89 -3 44 -6 85 -9 90 -2 6
0 12 6 15 12 6 34 -105 35 -172 0 -27 4 -48 10 -48 17 0 33 -41 21 -53 -12
-12 -15 -96 -3 -114 5 -8 12 -8 26 3 13 9 15 14 6 14 -9 0 -7 5 6 14 23 17 34
5 34 -36 0 -16 5 -28 10 -28 6 0 10 13 10 29 0 15 5 42 11 59 11 33 39 52 39
26 0 -12 3 -12 25 2 27 18 31 13 14 -17 -9 -17 -7 -19 13 -14 23 6 24 5 18
-54 l-6 -60 23 21 c27 25 30 12 12 -40 -18 -53 -3 -60 21 -9 24 50 46 74 36
38 -3 -11 -9 -31 -12 -43 -3 -13 -14 -41 -24 -63 -26 -56 -44 -99 -43 -105 0
-3 -11 -15 -24 -27 l-23 -22 0 29 c0 17 5 30 11 30 5 0 7 5 4 10 -3 6 1 10 9
10 8 0 18 5 22 12 5 7 2 9 -8 5 -9 -3 -20 -1 -26 5 -7 7 -13 -1 -18 -28 -4
-22 -10 -41 -13 -44 -12 -9 -42 -120 -36 -130 3 -6 -3 -10 -13 -10 -13 0 -22
-9 -26 -26 -8 -31 9 -55 32 -48 9 3 6 -1 -8 -9 -18 -11 -27 -12 -32 -4 -4 6
-5 14 -2 18 2 4 -3 10 -11 13 -22 8 -43 -40 -26 -57 9 -9 13 -9 19 0 5 7 17
10 30 6 23 -6 23 -6 4 -27 -11 -11 -22 -28 -25 -36 -4 -10 -6 -8 -6 7 -1 24
-14 37 -25 25 -4 -4 -12 -7 -18 -7 -6 0 -12 -20 -14 -45 -3 -25 -6 -55 -7 -67
-3 -31 -15 -29 -27 3 -8 21 -13 24 -24 15 -10 -9 -11 -22 -5 -58 6 -30 5 -51
-1 -57 -7 -7 -10 -5 -10 4 0 7 -3 11 -6 7 -3 -3 -17 -1 -31 4 -25 9 -26 9 -20
-31 4 -33 2 -43 -14 -53 -10 -6 -19 -19 -19 -29 0 -9 -5 -20 -10 -23 -6 -4 -8
-15 -5 -25 3 -10 2 -21 -4 -24 -20 -13 33 -122 75 -155 27 -22 50 -28 39 -12
-3 5 -1 12 5 16 5 3 10 32 10 63 1 55 1 56 15 32 15 -25 15 -24 15 20 0 87 -1
112 -3 119 0 3 5 17 12 30 7 12 11 32 8 42 -3 10 -1 19 4 19 6 0 5 9 -1 21 -6
11 -9 25 -6 32 2 7 5 4 5 -5 1 -10 10 -22 20 -27 22 -12 31 2 31 49 0 15 7 33
15 40 16 13 18 10 28 -35 3 -12 5 -8 6 12 2 50 34 144 47 139 7 -3 15 5 18 17
9 33 7 69 -3 63 -5 -3 -12 1 -15 10 -3 8 -2 12 4 9 5 -3 7 0 4 8 -3 8 2 21 10
30 9 9 13 24 10 34 -3 10 2 6 11 -9 18 -32 35 -37 35 -10 1 22 36 69 46 59 12
-12 22 -101 13 -119 -6 -10 -5 -19 1 -23 5 -3 10 -16 10 -28 0 -18 2 -19 10
-7 18 27 11 -10 -7 -40 -13 -23 -14 -34 -6 -53 8 -16 8 -29 0 -42 -5 -11 -11
-48 -13 -82 -4 -96 -12 -122 -40 -129 -32 -8 -31 -24 1 -18 18 3 25 0 25 -11
0 -8 -5 -14 -12 -12 -7 1 -16 -21 -23 -58 -10 -55 -20 -87 -44 -140 -8 -17
-10 -14 -10 17 -1 42 -9 68 -22 68 -5 0 -9 -7 -9 -16 0 -11 -6 -15 -19 -11
-18 4 -18 2 -8 -17 7 -11 17 -24 22 -28 6 -5 5 -8 -2 -8 -7 0 -13 -8 -13 -17
0 -9 -3 -14 -6 -10 -4 3 -22 -5 -40 -20 -28 -21 -34 -23 -34 -9 0 10 -4 15 -9
11 -5 -3 -12 4 -16 15 -8 25 -25 26 -25 1 0 -31 49 -83 71 -76 15 5 19 1 19
-15 0 -15 -5 -20 -15 -17 -8 4 -17 2 -20 -2 -2 -5 6 -12 20 -15 14 -4 25 -11
25 -16 0 -6 6 -10 14 -10 14 0 26 -29 26 -63 0 -10 -5 -15 -10 -12 -6 3 -1
-19 11 -50 16 -44 20 -74 18 -138 -3 -87 8 -174 22 -183 5 -3 9 13 9 34 0 23
6 45 15 52 8 7 17 27 21 46 5 30 8 33 22 22 13 -12 14 -10 3 10 -7 14 -18 21
-27 18 -8 -3 -14 1 -14 8 0 8 7 16 15 20 8 3 15 17 15 31 0 16 6 25 15 25 10
0 15 11 15 35 0 19 -5 35 -11 35 -6 0 0 13 13 28 26 32 45 24 42 -17 -5 -45
-26 -145 -35 -164 -7 -12 -5 -17 6 -17 8 0 17 12 21 28 3 15 10 38 14 52 5 14
11 34 13 45 3 11 5 -3 6 -32 0 -28 -6 -64 -14 -80 -8 -15 -17 -40 -20 -55 -3
-16 -12 -28 -20 -28 -8 0 -15 -6 -15 -14 0 -8 -3 -22 -6 -31 -6 -14 -3 -14 20
-4 14 7 26 18 26 24 0 7 6 18 14 24 12 10 14 4 13 -39 -2 -43 -4 -48 -15 -33
-10 15 -12 13 -12 -15 0 -17 -9 -46 -20 -64 -24 -39 -24 -45 -5 -45 8 0 12 4
10 8 -6 8 21 20 29 12 3 -3 -4 -23 -14 -44 -11 -21 -20 -46 -20 -55 0 -14 6
-12 29 10 l29 27 5 -38 c3 -29 -3 -55 -30 -112 -26 -55 -37 -70 -44 -60 -5 9
-9 10 -9 2 0 -27 24 -24 47 6 18 22 33 31 54 31 26 0 29 -3 24 -19 -5 -17 -2
-19 22 -16 15 2 22 2 16 -1 -22 -10 -15 -51 12 -68 29 -19 30 -16 10 24 -13
26 -13 28 3 25 9 -2 20 -4 24 -4 4 -1 7 -11 5 -23 -1 -17 3 -22 15 -20 24 4
33 -17 12 -32 -10 -8 -13 -15 -7 -19 6 -4 16 0 23 8 17 21 31 8 24 -21 -4 -14
-2 -24 2 -23 21 4 24 -2 10 -17 -9 -8 -16 -20 -16 -25 0 -14 28 -11 33 4 2 6
4 -3 4 -20 0 -32 -8 -38 -44 -34 -9 1 -9 -5 0 -24 7 -14 18 -23 25 -20 14 5
16 -11 2 -20 -5 -3 -10 -15 -10 -26 0 -10 -4 -19 -10 -19 -5 0 -10 7 -10 15 0
8 -4 15 -10 15 -5 0 -7 -7 -4 -15 4 -8 1 -15 -4 -15 -6 0 -12 10 -14 22 -3 21
-4 21 -21 3 -12 -12 -15 -20 -8 -25 17 -10 8 -46 -18 -76 -29 -33 -22 -39 29
-26 40 10 40 10 34 -17 -5 -18 -3 -23 4 -16 6 6 13 25 15 43 8 49 17 52 17 4
0 -22 -5 -44 -10 -47 -6 -4 -8 -16 -4 -27 5 -17 3 -20 -10 -15 -14 6 -15 3 -5
-16 11 -20 11 -21 -4 -9 -14 12 -15 11 -7 -18 5 -18 14 -37 19 -44 6 -7 9 -22
8 -34 -1 -17 -7 -21 -31 -19 -17 1 -31 -4 -34 -12 -3 -8 0 -11 7 -7 6 4 11 3
11 -3 0 -5 -6 -12 -12 -14 -8 -3 -6 -6 5 -6 10 -1 20 5 23 12 3 8 11 14 19 14
19 0 19 -2 -6 -31 -20 -23 -24 -24 -43 -11 -26 19 -36 19 -36 -1 0 -9 5 -13
13 -9 6 4 2 -2 -10 -13 -14 -12 -31 -18 -47 -15 -21 4 -24 2 -20 -15 6 -22
-17 -32 -79 -32 -26 0 -36 -4 -31 -12 4 -6 3 -8 -4 -5 -5 4 -8 17 -4 29 4 17
2 20 -12 15 -10 -4 -20 -7 -22 -7 -2 0 -4 -7 -4 -16 0 -8 -5 -12 -10 -9 -6 4
-8 11 -5 16 12 19 -7 30 -20 12 -13 -16 -14 -16 -11 -1 1 10 5 21 9 24 4 4 7
12 7 18 0 5 -6 1 -14 -9 -7 -10 -20 -16 -28 -13 -8 4 -22 -2 -32 -13 -19 -22
-21 -33 -4 -23 7 5 8 3 3 -5 -8 -14 61 -91 82 -91 7 0 13 -6 13 -13 0 -7 9
-18 20 -25 11 -7 20 -19 20 -27 0 -8 4 -15 9 -15 5 0 7 -9 4 -20 -3 -11 -1
-20 5 -20 6 0 14 -9 17 -21 5 -15 10 -18 18 -10 18 18 28 12 16 -10 -8 -15 -8
-24 0 -32 8 -8 11 -6 11 6 0 9 7 17 15 17 8 0 15 -4 15 -9 0 -6 9 -9 19 -8 11
0 19 4 19 7 -2 18 4 21 17 10 13 -11 14 -10 10 3 -7 16 10 33 19 19 3 -5 28
13 56 39 28 26 71 57 96 70 25 12 48 27 50 33 2 6 19 12 37 13 19 2 37 10 46
23 7 11 20 20 28 20 8 0 11 5 8 10 -3 6 -1 10 4 10 6 0 11 -5 11 -10 0 -6 8
-5 20 2 11 7 18 19 15 26 -3 8 3 7 19 -4 18 -11 26 -12 32 -3 4 7 3 9 -3 6 -5
-3 -10 0 -10 8 0 8 2 15 4 15 7 0 34 -29 33 -35 -1 -20 1 -25 9 -21 9 6 28
-12 30 -26 1 -12 4 -12 31 -4 40 12 64 14 79 6 11 -6 10 -10 -7 -19 -12 -6
-34 -13 -49 -15 -16 -1 -38 -8 -49 -14 -27 -14 -62 -5 -69 19 -5 16 -9 17 -26
6 -10 -6 -19 -20 -19 -30 0 -14 4 -16 19 -8 14 8 20 7 25 -4 3 -8 1 -17 -4
-20 -17 -11 -11 -20 24 -39 32 -17 36 -17 69 -1 19 9 44 17 56 18 11 1 21 4
21 8 0 11 53 -6 57 -18 5 -13 -100 -38 -122 -30 -8 4 -12 -1 -10 -11 1 -9 -5
-20 -14 -24 -10 -4 -5 -7 16 -7 20 -1 37 -8 45 -20 10 -13 18 -17 28 -11 8 5
18 6 22 4 4 -3 8 4 8 16 0 33 34 21 38 -12 3 -22 6 -25 17 -15 7 6 10 17 7 22
-3 6 1 4 10 -2 8 -7 18 -10 21 -6 4 3 7 -3 7 -15 0 -16 -6 -22 -23 -22 -27 0
-57 -28 -57 -53 0 -33 82 8 190 96 33 27 60 55 60 63 0 8 4 14 9 14 4 0 25 16
45 35 21 19 43 35 51 35 7 0 15 7 19 15 4 11 -2 15 -25 15 -42 0 -132 31 -122
41 5 5 34 4 67 -2 32 -6 64 -8 72 -5 8 3 14 -1 14 -9 0 -25 24 -17 58 18 18
19 48 40 67 47 19 8 35 17 35 22 0 8 -37 12 -72 9 -10 -1 -18 4 -18 12 0 19
67 32 85 17 8 -6 31 -10 52 -8 34 3 40 8 59 46 11 24 22 43 25 42 14 -5 39 15
39 30 0 13 10 21 33 25 17 4 41 14 52 21 19 14 19 14 0 15 -11 1 -33 2 -49 1
-16 0 -36 7 -45 16 -14 14 -13 15 13 8 24 -6 27 -5 18 6 -9 12 1 14 61 14 51
0 85 6 117 21 62 28 154 59 184 62 9 1 13 9 11 21 -3 15 2 20 20 20 13 0 27 5
30 10 4 6 19 9 34 8 33 -2 116 35 124 57 4 8 17 20 29 26 43 19 70 37 101 67
37 36 75 53 207 93 52 17 99 34 104 39 6 6 20 10 33 10 13 0 23 5 23 10 0 6 7
10 15 10 8 0 15 5 15 10 0 6 5 10 10 10 6 0 19 8 30 18 10 9 35 26 56 37 31
17 179 155 171 160 -1 1 -13 8 -25 14 -37 20 -19 24 42 10 l56 -12 38 43 c20
25 76 83 125 130 48 47 87 93 87 102 0 9 5 29 12 45 6 15 12 30 13 33 1 7 34
79 52 118 9 18 16 39 16 47 0 8 4 15 8 15 3 0 12 30 19 68 7 37 19 79 26 94 8
15 14 41 14 58 0 17 7 47 17 68 9 20 15 40 15 45 -1 4 3 7 10 7 6 0 9 3 5 6
-3 3 0 25 8 49 8 29 9 47 2 54 -6 6 -5 15 5 25 9 8 18 12 22 9 3 -4 6 4 6 16
0 12 10 35 22 51 19 27 23 51 34 222 7 106 22 297 33 423 48 524 48 537 -20
835 -51 221 -60 251 -81 272 -10 10 -15 24 -12 33 4 8 1 22 -6 31 -11 12 -11
32 0 102 9 54 14 183 14 342 1 228 -1 259 -16 283 -10 14 -18 33 -18 40 0 8
-6 20 -14 26 -11 9 -15 7 -19 -9 -3 -13 -1 -18 6 -13 7 4 7 0 -1 -9 -11 -14
-10 -21 9 -42 20 -23 23 -39 25 -119 1 -50 3 -131 4 -178 2 -48 -1 -92 -4 -98
-4 -6 0 -19 9 -28 14 -14 15 -17 2 -24 -9 -5 -17 -32 -21 -69 -6 -55 -30 -130
-41 -130 -2 0 -2 13 1 29 4 16 1 32 -5 35 -6 4 -11 12 -11 17 0 6 3 8 8 6 4
-3 8 5 9 16 12 108 22 365 15 372 -3 3 -6 17 -8 32 -5 51 -12 80 -27 109 -11
21 -12 35 -5 48 9 15 6 17 -22 12 -26 -4 -30 -2 -26 11 5 13 4 14 -9 3 -14
-12 -14 -15 2 -33 10 -11 12 -17 6 -13 -7 4 -13 2 -13 -4 0 -6 -4 -9 -8 -6 -5
3 -9 -1 -9 -9 0 -8 4 -12 8 -10 3 3 9 -7 12 -20 3 -20 -3 -32 -27 -52 -17 -14
-30 -28 -28 -29 1 -2 2 -16 2 -31 0 -16 -4 -23 -8 -17 -14 21 -47 33 -65 23
-11 -7 -17 -7 -17 0 0 6 11 13 25 17 14 3 25 10 25 14 0 5 -18 1 -39 -8 -22
-9 -39 -19 -39 -22 2 -26 -3 -30 -18 -16 -12 12 -20 13 -35 6 -11 -6 -24 -8
-29 -5 -6 3 -10 1 -10 -4 0 -6 5 -11 11 -11 8 0 8 -4 1 -13 -12 -15 -5 -28 23
-46 19 -12 19 -12 -3 -7 -19 4 -21 2 -11 -10 12 -15 6 -29 -13 -29 -18 0 -21
-24 -4 -31 8 -3 12 -12 9 -20 -6 -16 13 -20 20 -4 3 6 4 5 3 -2 -2 -7 -11 -13
-22 -14 -35 -2 -39 -5 -21 -15 21 -12 23 -31 2 -23 -8 4 -15 1 -15 -6 0 -9 -6
-8 -19 4 -23 21 -108 31 -127 15 -11 -9 -14 -8 -14 5 0 12 -8 16 -31 14 -17
-1 -33 -7 -36 -12 -9 -13 25 -35 46 -29 10 3 22 0 25 -6 4 -6 0 -11 -8 -11 -9
0 -16 -5 -16 -11 0 -6 7 -8 15 -5 8 3 22 9 30 12 11 5 13 2 9 -10 -3 -9 -11
-13 -17 -9 -6 3 -7 1 -3 -5 3 -6 15 -9 25 -7 24 4 45 -10 36 -25 -5 -8 -29
-11 -71 -8 -64 3 -85 -6 -90 -36 -1 -8 4 -17 12 -20 8 -3 14 -12 14 -20 0 -9
6 -13 14 -10 8 3 17 1 20 -5 4 -6 13 -8 21 -4 11 4 13 1 9 -11 -4 -10 -1 -16
9 -16 9 0 18 -4 21 -8 10 -17 -60 1 -78 20 -10 11 -32 24 -47 30 -16 5 -29 15
-29 21 0 11 -12 12 -77 8 -7 -1 -13 -8 -13 -17 0 -9 8 -14 18 -13 30 3 43 -1
37 -10 -3 -6 4 -8 16 -6 18 4 19 2 7 -12 -9 -12 -9 -15 0 -9 8 5 15 -2 21 -18
6 -13 19 -27 30 -31 12 -3 21 -11 21 -17 0 -5 -8 -7 -17 -4 -10 4 -14 4 -11 0
4 -4 -4 -15 -17 -26 -31 -24 -32 -36 -2 -40 14 -2 23 -11 25 -26 2 -12 8 -20
13 -17 5 4 9 2 9 -3 0 -5 10 -13 23 -18 16 -6 3 -9 -48 -11 -55 -3 -72 -1 -81
12 -9 12 -14 13 -19 5 -8 -14 -58 -9 -126 10 -48 14 -99 8 -99 -13 0 -6 12
-20 25 -30 24 -17 25 -17 25 0 0 11 3 14 8 7 4 -6 15 -13 25 -17 9 -3 17 -11
17 -17 0 -6 -5 -8 -11 -5 -6 4 -21 -3 -35 -16 -17 -16 -24 -18 -24 -8 -1 10
-4 9 -15 -4 -13 -18 -14 -17 -17 5 -2 18 -10 23 -37 25 -19 1 -37 5 -40 10 -8
11 -62 11 -58 -1 4 -12 107 -67 108 -58 0 4 4 -2 9 -13 5 -13 3 -26 -8 -37
-18 -21 -52 -24 -52 -5 0 14 -131 87 -156 87 -11 0 -12 4 -4 19 7 14 7 22 -2
27 -6 4 -8 3 -5 -3 4 -6 0 -16 -8 -23 -13 -11 -14 -10 -10 3 4 9 1 15 -7 14
-78 -3 -131 20 -108 47 12 15 3 26 -22 26 -20 0 -24 20 -7 37 8 8 24 5 58 -14
47 -25 63 -30 121 -36 31 -4 90 11 90 23 0 3 -34 16 -75 29 -51 16 -86 21
-109 17 -22 -4 -37 -2 -42 5 -9 15 18 31 30 19 17 -17 26 -11 26 15 0 14 5 25
11 25 6 0 9 6 6 13 -2 6 -11 12 -21 12 -9 0 -21 6 -25 14 -7 11 -13 8 -26 -13
-10 -15 -24 -25 -30 -22 -8 3 -11 -2 -9 -12 5 -19 -31 -65 -58 -75 -10 -3 -15
-13 -12 -24 6 -25 -50 -85 -72 -76 -14 5 -16 2 -10 -21 5 -20 2 -28 -11 -33
-10 -3 -26 -15 -37 -25 -10 -11 -25 -17 -33 -14 -8 3 -12 2 -9 -2 6 -9 -17
-80 -40 -125 -11 -21 -14 -43 -9 -73 6 -45 -8 -89 -26 -79 -5 4 -9 22 -9 42 0
40 -19 113 -30 113 -15 0 -70 -32 -70 -41 0 -5 -7 -9 -16 -9 -8 0 -12 -4 -9
-10 3 -5 1 -10 -4 -10 -14 0 -14 16 0 41 5 11 15 17 22 14 7 -4 4 0 -6 8 -14
12 -15 20 -7 41 5 14 15 26 21 26 8 0 8 4 -1 15 -10 12 -10 15 1 15 10 1 8 4
-3 11 -14 8 -15 13 -6 23 7 8 18 11 25 9 6 -3 17 5 23 17 11 20 10 21 -9 11
-28 -15 -31 -14 -31 11 0 12 3 19 6 15 4 -3 13 0 21 8 8 8 25 15 38 15 17 0
29 9 39 29 9 16 13 31 10 33 -2 3 6 3 19 1 20 -4 25 0 30 24 8 41 23 92 42
138 l16 40 -4 -47 c-3 -27 -1 -48 4 -48 5 0 9 7 9 15 0 8 5 15 11 15 5 0 7 -6
3 -12 -6 -10 -4 -10 6 -1 11 10 12 26 3 75 -11 70 -7 98 13 98 8 0 11 6 8 15
-7 17 18 30 40 22 12 -5 13 -13 6 -38 -12 -40 -19 -47 -29 -30 -19 29 -19 -32
-1 -65 19 -33 19 -34 -2 -45 -11 -6 -17 -14 -12 -18 6 -3 10 -11 9 -17 0 -13
-51 -74 -57 -68 -3 2 -5 -3 -5 -11 0 -18 5 -19 20 -2 7 7 30 32 52 56 24 25
32 39 21 35 -18 -7 -18 -6 -1 19 9 15 14 27 11 27 -4 0 2 10 14 22 33 35 22
50 -21 28 -10 -6 -19 -8 -19 -5 0 9 40 45 51 45 5 0 7 5 3 12 -4 7 -3 8 4 4 6
-4 8 -14 5 -23 -5 -13 -2 -13 21 2 18 12 23 21 16 25 -8 5 -7 9 3 13 12 4 14
0 11 -19 -3 -19 -1 -24 8 -18 7 4 -2 -8 -19 -26 -72 -71 -21 -44 59 32 28 27
28 28 13 58 -14 27 -14 30 0 30 8 0 15 -4 15 -9 0 -5 7 -11 15 -15 13 -5 14
-2 4 15 -6 12 -7 24 -3 28 5 3 10 13 12 21 3 12 1 13 -9 3 -18 -18 -29 -16
-29 5 -1 15 -2 15 -13 1 -7 -9 -17 -14 -22 -12 -6 2 -21 -6 -33 -17 -28 -26
-31 -25 -30 10 1 17 5 30 10 30 4 0 8 7 8 15 0 18 12 19 28 3 10 -10 14 -8 19
11 6 22 7 23 19 6 12 -16 40 -13 30 4 -3 4 -1 13 5 21 6 11 9 12 9 2 0 -7 4
-11 9 -8 5 3 7 15 4 26 -4 14 0 20 12 20 9 0 22 13 28 30 7 18 19 30 30 30 10
0 15 -5 12 -10 -4 -6 -10 -8 -14 -6 -4 3 -8 -1 -8 -9 0 -17 13 -20 22 -5 12
19 14 70 4 70 -6 0 -7 -5 -3 -11 4 -8 0 -9 -15 -4 -11 3 -21 2 -21 -3 0 -12
-42 -29 -62 -24 -11 2 -15 9 -11 20 4 12 -1 10 -16 -6 -19 -19 -25 -21 -38
-11 -12 10 -16 10 -23 -1 -5 -8 -6 -19 -2 -25 3 -5 -2 -4 -11 4 -13 10 -17 10
-17 1 0 -10 -4 -10 -16 1 -17 14 -29 3 -40 -38 -6 -21 -18 -27 -52 -26 -7 1
-11 -5 -8 -13 6 -14 -32 -46 -45 -38 -5 2 -6 12 -3 22 5 14 4 15 -5 2 -6 -8
-11 -25 -11 -37 0 -29 -10 -54 -20 -48 -4 3 -16 -7 -25 -22 -13 -20 -17 -44
-16 -94 1 -48 -2 -68 -11 -72 -8 -3 -15 -23 -16 -48 -2 -24 -6 -53 -9 -64 -7
-20 -8 -28 -11 -52 -2 -15 -12 -16 -31 -4 -9 6 -10 14 -5 22 10 16 35 116 35
143 0 10 6 28 14 40 9 15 11 35 6 68 -4 26 -4 45 1 42 4 -3 8 -2 9 3 0 4 2 18
5 31 2 13 0 21 -4 18 -5 -3 -7 12 -5 34 3 34 1 39 -19 43 l-23 4 23 8 c25 8
26 42 2 37 -8 -2 -2 8 13 22 15 14 27 30 27 36 0 7 9 23 20 37 11 14 22 40 26
59 4 24 12 34 25 34 10 0 21 6 26 13 10 15 11 97 1 97 -5 0 -8 -5 -8 -10 0 -6
-10 -15 -22 -21 -42 -18 -69 -36 -70 -45 -1 -20 -11 -34 -24 -34 -7 0 -16 -11
-20 -25 -3 -14 -10 -25 -15 -25 -5 0 -9 -9 -9 -20 0 -11 -5 -20 -11 -20 -5 0
-7 -4 -4 -10 3 -5 2 -17 -3 -26 -8 -15 -10 -15 -15 1 -4 9 -11 14 -17 10 -6
-4 -5 -13 2 -25 10 -16 10 -22 -1 -32 -12 -11 -13 -10 -8 4 3 10 2 20 -4 23
-5 4 -9 12 -8 18 3 26 -2 37 -16 37 -21 0 -36 -43 -31 -90 2 -25 -1 -43 -10
-51 -17 -14 -7 -32 13 -25 12 5 14 1 8 -16 -3 -13 -9 -33 -12 -45 -7 -32 -23
-29 -23 5 l0 27 -18 -23 -18 -23 4 35 c2 20 8 36 13 36 5 0 9 7 9 15 0 8 -4
15 -10 15 -5 0 -10 7 -10 15 0 8 4 15 9 15 5 0 12 19 16 43 9 54 31 97 50 97
8 0 15 8 16 18 0 10 3 12 6 5 2 -7 9 -13 15 -13 6 0 8 6 5 14 -3 7 0 19 6 25
15 15 19 49 7 56 -7 4 -6 13 0 26 6 10 7 19 3 18 -21 -4 -21 4 2 37 14 20 25
46 25 56 0 14 5 18 15 15 10 -5 16 4 22 31 4 20 6 43 5 50 -2 7 6 25 16 40 11
15 25 45 32 67 7 22 16 42 20 45 4 3 17 25 29 49 16 35 18 47 9 53 -9 5 -7 8
7 8 15 0 16 3 7 12 -10 10 -17 10 -35 -1 -21 -13 -22 -13 -4 6 19 22 14 33
-18 33 -47 0 -61 -49 -20 -68 24 -11 25 -13 10 -36 -15 -23 -48 -39 -59 -29
-3 3 1 18 10 34 21 41 10 36 -15 -6 -20 -34 -20 -35 -1 -45 10 -5 20 -6 22 -1
2 4 14 12 27 16 21 6 22 5 10 -8 -8 -8 -17 -13 -21 -11 -12 8 -41 -45 -34 -62
5 -14 4 -15 -9 -4 -9 7 -18 10 -22 6 -4 -3 1 -12 11 -19 15 -11 14 -12 -11
-11 -15 1 -34 3 -40 3 -15 1 -7 58 11 80 9 12 7 12 -13 2 -13 -7 -26 -22 -29
-33 -3 -14 -7 -16 -12 -7 -11 18 -41 3 -33 -16 4 -11 8 -13 12 -6 5 8 13 7 26
-2 11 -9 15 -19 10 -27 -6 -9 -9 -9 -15 0 -5 8 -10 2 -15 -17 -10 -35 -10 -34
-19 -55 -4 -9 -5 -21 -2 -27 4 -5 2 -12 -4 -16 -6 -4 -8 -11 -5 -16 4 -5 2 -9
-4 -9 -17 0 -21 16 -12 51 5 19 12 52 15 74 l6 40 -14 -33 c-9 -18 -18 -49
-22 -70 -3 -20 -14 -43 -23 -51 -14 -12 -14 -12 7 -6 35 10 28 -24 -8 -38 -16
-6 -30 -17 -30 -24 0 -7 7 -10 15 -7 16 6 15 -1 -4 -74 -15 -54 -34 -56 -29
-3 3 33 1 38 -10 28 -8 -6 -23 -31 -35 -56 -12 -25 -41 -66 -65 -90 -38 -38
-43 -48 -38 -75 3 -18 2 -26 -2 -18 -11 16 -29 -3 -43 -45 l-9 -28 6 30 c3 17
5 38 5 48 0 9 4 17 10 17 5 0 9 8 9 19 0 10 8 29 19 42 31 41 53 90 48 110 -3
12 2 23 14 29 23 13 25 30 3 30 -8 0 -13 -4 -10 -9 8 -13 -21 -34 -36 -26 -7
4 -6 0 3 -7 16 -13 15 -15 -1 -36 -10 -12 -21 -18 -25 -13 -3 6 -12 8 -20 4
-14 -5 -21 15 -15 42 9 40 15 125 8 125 -9 0 -4 66 8 95 8 19 7 19 -10 3 -28
-29 -50 -128 -25 -112 13 8 6 -47 -12 -93 -7 -20 -12 -23 -23 -14 -11 9 -16 2
-26 -34 -14 -49 -49 -94 -68 -87 -7 2 -12 -3 -12 -11 0 -8 -9 -26 -20 -39 -10
-14 -17 -28 -14 -31 3 -3 -2 -20 -11 -37 -9 -18 -12 -29 -6 -26 15 10 14 -15
-3 -66 -8 -24 -17 -58 -21 -77 -6 -30 -5 -33 10 -27 13 4 16 2 11 -9 -3 -8 0
-15 7 -15 7 -1 1 -9 -12 -20 -12 -11 -27 -18 -31 -15 -5 3 -12 0 -16 -6 -5 -9
1 -10 20 -5 26 6 26 6 20 -36 -4 -24 -10 -47 -15 -53 -14 -15 -10 -45 6 -45 9
0 15 9 15 24 0 37 15 39 16 3 0 -18 4 -59 9 -91 6 -43 5 -57 -4 -52 -6 4 -11
18 -11 32 0 13 -4 24 -9 24 -14 0 -23 -30 -27 -87 -4 -50 -2 -53 19 -50 19 2
22 -3 25 -40 2 -31 7 -41 17 -37 11 4 15 -7 17 -48 l3 -53 27 47 c15 27 28 67
29 90 1 24 7 49 12 56 6 8 5 17 -3 27 -10 12 -10 15 4 15 9 0 16 8 16 20 0 11
-4 20 -10 20 -5 0 -10 5 -10 10 0 6 7 10 15 10 9 0 18 7 21 15 4 8 13 15 20
15 8 0 20 11 26 25 11 23 13 24 21 8 6 -9 10 -36 10 -58 -1 -44 11 -67 41 -78
15 -6 17 -14 11 -44 -4 -21 -15 -49 -26 -64 -10 -14 -15 -29 -11 -33 3 -4 1
-11 -7 -15 -7 -5 -15 -26 -18 -49 -5 -39 -26 -62 -38 -42 -4 6 0 10 7 11 7 0
4 4 -7 8 -19 8 -19 8 2 15 13 4 23 12 23 18 0 6 -10 4 -22 -5 -13 -8 -22 -21
-20 -27 5 -21 -21 -80 -35 -80 -8 0 -16 -8 -19 -17 -25 -78 -86 -192 -111
-208 -23 -16 -25 -15 -30 4 -3 12 -9 19 -13 16 -4 -2 -7 6 -7 18 -1 47 -3 58
-13 52 -5 -3 -10 -14 -10 -24 0 -10 -6 -24 -14 -30 -8 -6 -17 -33 -21 -59 -15
-103 -26 -117 -30 -37 -1 25 -5 49 -9 52 -4 4 -5 -24 -3 -62 3 -52 1 -74 -10
-87 -8 -9 -21 -34 -29 -55 l-13 -38 -1 55 c0 52 -1 55 -26 56 -15 1 -24 -3
-21 -10 2 -6 0 -22 -4 -35 -8 -19 -12 -21 -24 -11 -18 15 -11 75 15 135 10 22
21 50 25 63 10 34 19 18 17 -29 -2 -22 1 -45 5 -52 12 -18 20 64 9 84 -10 18
9 103 29 122 6 7 15 35 21 62 6 30 14 49 22 47 8 -1 12 13 12 42 0 61 -14 92
-44 100 -17 4 -26 13 -26 26 0 11 5 20 10 20 6 0 10 -9 10 -20 0 -12 7 -20 16
-20 14 0 14 3 4 15 -7 8 -10 15 -6 15 3 0 -2 8 -12 18 -18 18 -21 66 -7 107 5
16 4 17 -4 5 -5 -9 -11 -22 -13 -30 -3 -14 -22 -40 -46 -66 -7 -7 -18 -27 -23
-44 -12 -32 -26 -39 -35 -16 -3 8 -13 12 -22 10 -14 -5 -14 -3 1 9 11 9 17 25
15 39 -3 22 -4 21 -25 -12 -19 -29 -28 -29 -25 0 1 9 -58 11 -71 3 -7 -4 -17
-8 -24 -8 -6 0 -25 -12 -42 -28 -17 -15 -31 -23 -31 -17 0 6 -8 5 -20 -2 -11
-7 -19 -17 -18 -23 4 -17 -45 -76 -59 -71 -14 6 -29 -54 -19 -79 3 -8 2 -15
-3 -15 -9 0 -51 -153 -51 -186 0 -11 -11 -53 -25 -93 -32 -91 -29 -123 5 -64
14 23 33 44 43 47 11 2 16 9 13 14 -3 5 2 18 10 28 13 15 15 16 10 2 -2 -9 2
-19 10 -22 18 -7 13 -72 -5 -68 -6 1 -16 -9 -21 -23 -5 -14 -13 -25 -17 -25
-5 0 -14 -15 -21 -32 -32 -82 -55 -107 -66 -71 -4 15 -5 15 -4 -2 2 -32 -13
-108 -27 -135 -18 -35 -31 -135 -16 -126 20 13 12 -47 -14 -103 -19 -40 -21
-52 -10 -47 17 6 21 -24 6 -39 -17 -17 -42 -128 -31 -139 11 -11 15 0 25 57 9
54 26 46 20 -10 -10 -97 -18 -134 -34 -156 -27 -34 -32 -54 -40 -160 -11 -134
-29 -149 -25 -20 4 97 4 98 -11 58 -24 -61 -32 -61 -39 2 -4 40 -1 75 10 113
9 30 18 69 20 85 l5 30 -16 -25 c-15 -24 -15 -20 -11 60 3 47 7 121 9 165 3
85 23 203 36 220 5 5 11 20 13 32 4 16 2 20 -8 16 -8 -3 -14 -9 -14 -14 0 -5
-7 -9 -15 -9 -10 0 -15 10 -15 28 0 21 12 38 45 68 25 21 45 45 45 54 0 12 2
12 9 2 6 -10 14 -4 30 23 23 40 29 97 9 93 -18 -4 -23 94 -8 158 10 41 10 55
-1 75 -7 13 -12 30 -11 37 2 6 -5 12 -16 12 -17 0 -18 5 -6 108 6 59 11 135
10 170 -1 34 1 62 6 62 4 0 8 16 8 35 0 19 3 35 8 35 4 0 16 13 27 29 21 33
34 32 36 -2 1 -16 3 -13 9 10 8 36 49 92 68 92 6 1 12 8 12 16 0 14 13 20 34
16 5 -1 3 5 -4 14 -11 13 -10 15 1 10 9 -3 18 5 26 25 13 35 33 40 33 7 0 -12
9 -30 19 -39 16 -13 18 -23 11 -53 -5 -20 -17 -43 -27 -50 -17 -13 -17 -14 0
-20 9 -4 24 -2 32 5 13 11 15 10 10 -1 -2 -8 0 -21 5 -29 9 -13 11 -13 20 1 5
9 18 27 29 40 l20 24 1 -36 0 -36 40 10 c23 7 42 19 46 29 3 10 12 18 20 18
16 0 19 17 4 22 -5 2 -10 18 -12 36 -1 17 -5 32 -8 32 -23 1 -30 18 -19 43 13
29 29 36 29 12 0 -8 4 -15 9 -15 13 0 33 66 35 111 0 21 4 32 8 26 4 -7 11 -3
18 13 8 20 9 11 4 -37 -5 -52 -3 -64 10 -69 19 -7 21 -45 4 -62 -6 -6 -9 -14
-6 -18 4 -3 17 6 29 20 17 20 26 23 40 15 15 -8 17 -17 13 -53 -4 -24 -2 -51
3 -61 9 -15 11 -11 17 21 7 36 45 84 67 84 13 0 31 50 24 68 -8 20 6 122 16
116 13 -8 29 41 29 87 0 50 -16 43 -25 -11 -5 -32 -10 -39 -20 -30 -16 14 -21
6 -30 -50 -4 -25 -11 -49 -15 -55 -4 -5 -6 -23 -5 -40 1 -16 -1 -34 -4 -40 -3
-5 -6 -14 -6 -20 0 -5 -9 -10 -20 -10 -17 0 -20 6 -17 40 2 22 9 46 14 53 6 6
8 12 5 12 -3 0 1 20 8 44 8 24 11 46 8 49 -5 5 -14 78 -14 112 0 11 -5 23 -12
28 -7 5 1 7 21 4 27 -3 32 0 33 17 6 114 6 136 0 132 -10 -7 4 93 19 132 13
34 7 82 -10 82 -6 0 -10 -18 -10 -40 0 -27 -5 -42 -17 -49 -16 -8 -18 -4 -16
45 1 29 4 58 7 63 4 5 2 12 -4 16 -5 3 -10 -2 -10 -13 0 -10 -9 -28 -20 -40
-11 -12 -20 -30 -20 -42 0 -11 -6 -19 -12 -18 -24 5 -40 29 -45 69 -5 32 -8
38 -15 25 -5 -9 -14 -14 -19 -11 -5 4 -6 11 -2 18 4 6 6 29 4 51 -1 21 3 42 8
46 6 3 13 24 15 46 2 21 8 50 12 63 5 17 4 22 -4 17 -8 -5 -12 2 -12 18 0 14
4 26 10 26 5 0 7 6 4 14 -3 8 0 17 5 21 18 10 3 24 -19 18 -11 -3 -20 -12 -20
-19 0 -17 -12 -18 -27 -3 -7 7 -14 -3 -22 -35 -16 -65 -37 -58 -34 13 1 9 -2
10 -10 2 -10 -10 -14 -22 -22 -66 -2 -11 -4 -20 -5 -20 -1 0 -3 -13 -5 -29 -4
-31 -15 -49 -15 -24 0 9 -9 18 -20 21 -16 4 -20 1 -17 -16 1 -12 7 -28 11 -36
7 -11 5 -13 -7 -8 -23 9 -26 1 -32 -93 -3 -45 -10 -90 -15 -100 -5 -9 -12 -30
-14 -46 -3 -16 -17 -53 -31 -81 -14 -29 -25 -57 -25 -63 0 -16 -17 -12 -24 5
-3 9 1 18 9 21 15 6 41 72 32 81 -3 3 3 14 14 26 28 30 27 142 -2 177 -19 23
-20 24 -9 2 13 -27 10 -114 -5 -124 -6 -5 -6 -8 2 -8 9 0 8 -8 -3 -27 -7 -16
-14 -34 -14 -40 0 -7 -4 -13 -10 -13 -5 0 -10 11 -10 25 0 14 4 25 9 25 5 0 9
11 9 24 -1 18 -5 23 -16 19 -12 -5 -14 -1 -8 21 4 15 3 32 -1 39 -4 7 -8 28
-10 47 -4 56 -9 74 -21 78 -9 3 -9 9 -1 23 5 11 6 18 2 17 -4 -2 -8 2 -8 7 0
6 3 9 8 7 4 -1 7 2 7 8 0 5 -9 10 -21 10 -14 0 -19 5 -16 14 3 8 -1 22 -8 33
-13 17 -14 17 -13 -2 0 -29 -11 -207 -15 -227 -2 -10 -6 -20 -9 -23 -3 -3 -3
-25 -1 -49 3 -26 0 -53 -8 -67 -13 -24 -18 -39 -21 -71 -1 -10 -6 -18 -10 -18
-4 0 -8 -8 -8 -17 0 -15 -2 -16 -9 -3 -6 8 -7 18 -5 22 3 4 0 8 -5 8 -7 0 -9
16 -6 43 5 38 3 43 -15 44 -11 1 -18 -2 -15 -8 4 -5 1 -9 -4 -9 -6 0 -11 -9
-11 -19 0 -10 -6 -21 -13 -24 -7 -2 -13 -18 -15 -33 -1 -16 -9 -34 -18 -41 -8
-6 -16 -21 -17 -32 -1 -14 -6 -20 -15 -16 -7 3 -16 5 -18 5 -3 0 -2 4 1 10 3
6 -1 7 -10 4 -11 -5 -13 -10 -5 -19 7 -9 6 -16 -5 -25 -13 -11 -14 -10 -9 4 3
9 1 16 -4 16 -6 0 -12 -10 -14 -22 -5 -38 -33 -28 -35 12 0 19 -2 37 -2 39 -1
3 -10 -4 -21 -15 -33 -33 -50 -45 -50 -36 0 5 10 17 21 28 36 32 76 97 83 134
l7 35 -29 -33 c-18 -21 -32 -29 -37 -23 -3 6 -17 8 -31 5 -23 -6 -24 -4 -18
21 6 24 4 27 -11 22 -13 -5 -16 -3 -11 8 3 9 0 15 -8 15 -8 0 -16 -6 -19 -12
-2 -7 -8 0 -12 17 -9 34 -44 67 -63 60 -7 -3 -17 5 -22 18 -5 12 -9 18 -9 13
-1 -6 -7 -1 -15 9 -14 19 -15 19 -35 1 -21 -19 -21 -19 -22 5 0 13 -3 18 -6
12 -7 -18 -28 -16 -43 2 -10 12 -16 13 -24 5 -8 -8 -7 -13 2 -19 10 -6 9 -11
-5 -22 -10 -7 -15 -10 -11 -5 4 4 2 14 -5 20 -9 10 -15 9 -31 -6 -11 -10 -26
-18 -34 -18 -12 0 -11 5 4 22 10 12 14 19 8 15 -6 -4 -22 3 -35 14 -20 17 -25
18 -27 6 -2 -8 -11 -17 -20 -19 -10 -3 -23 -25 -31 -54 -14 -46 -15 -47 -19
-19 -4 36 -17 51 -27 34 -6 -8 -4 -10 6 -4 12 8 12 6 0 -8 -14 -18 -26 -23
-16 -8 3 5 -4 11 -15 13 -12 2 -19 7 -18 11 2 5 -9 15 -24 23 -16 8 -28 21
-28 29 0 9 -10 15 -26 15 -19 0 -25 4 -21 15 4 8 2 17 -3 20 -6 4 -10 -1 -10
-9 0 -9 -3 -16 -6 -16 -11 0 -114 108 -114 119 0 5 -5 13 -12 17 -7 5 -8 3 -4
-5 12 -20 -27 -9 -42 12 -7 9 -21 17 -30 16 -14 0 -13 -2 3 -8 19 -8 19 -8 -2
-19 -31 -17 -38 -15 -52 14 -8 19 -9 30 -1 39 12 15 -3 30 -20 20 -5 -3 -10 1
-10 9 0 9 -7 16 -15 16 -8 0 -15 5 -15 10 0 6 -7 10 -16 10 -9 0 -29 9 -46 21
-16 12 -32 19 -35 15 -3 -3 -19 6 -35 19 -16 14 -35 25 -41 25 -7 0 -38 14
-70 31 -32 17 -76 37 -98 44 -34 12 -39 12 -39 -1 0 -14 -2 -14 -15 0 -8 8
-15 20 -15 26 0 6 -5 8 -10 5 -6 -3 -22 3 -36 14 -14 11 -38 23 -54 26 -17 4
-30 10 -30 15 0 9 -86 30 -122 30 -16 0 -18 -3 -9 -13z m2475 -256 c3 -5 -1
-14 -9 -21 -13 -10 -15 -9 -15 9 0 21 14 28 24 12z m-14 -106 c7 -9 8 -15 2
-15 -5 0 -12 7 -16 15 -3 8 -4 15 -2 15 2 0 9 -7 16 -15z m870 -61 c0 -2 -7
-4 -15 -4 -8 0 -15 4 -15 10 0 5 7 7 15 4 8 -4 15 -8 15 -10z m-2463 -9 c-4
-8 -2 -17 4 -20 5 -4 7 -11 3 -16 -3 -5 0 -16 6 -24 17 -20 7 -19 -17 3 -21
18 -40 57 -23 47 6 -3 13 1 16 9 3 9 8 16 11 16 3 0 3 -7 0 -15z m2553 -53 c0
-13 -12 -22 -22 -16 -10 6 -1 24 13 24 5 0 9 -4 9 -8z m-970 -119 c0 -5 -5
-15 -10 -23 -8 -12 -10 -11 -10 8 0 12 5 22 10 22 6 0 10 -3 10 -7z m-923 -23
c-3 -11 -1 -23 4 -26 8 -5 13 9 10 29 0 4 6 7 14 7 9 0 15 -9 15 -23 0 -16 -5
-23 -17 -22 -22 1 -63 24 -46 25 7 0 10 7 7 15 -4 8 -1 15 6 15 7 0 10 -8 7
-20z m999 -25 c-9 -7 -13 -15 -10 -18 3 -3 1 -15 -6 -26 -9 -18 -8 -21 7 -21
13 0 14 -3 5 -12 -7 -7 -12 -29 -12 -49 0 -46 -8 -69 -24 -69 -7 0 -12 -10
-12 -21 1 -27 -17 -35 -36 -16 -10 10 -20 12 -31 6 -12 -7 -19 -4 -26 9 -6 11
-8 22 -4 25 3 4 0 13 -7 22 -10 12 -10 15 4 15 9 0 19 12 22 26 l7 27 14 -24
14 -24 -4 27 c-3 18 0 25 9 21 30 -11 49 20 48 77 -1 69 1 73 33 53 22 -15 23
-18 9 -28z m404 -35 c0 -5 -5 -10 -11 -10 -5 0 -7 5 -4 10 3 6 8 10 11 10 2 0
4 -4 4 -10z m-496 -35 c3 -8 1 -15 -4 -15 -6 0 -10 7 -10 15 0 8 2 15 4 15 2
0 6 -7 10 -15z m894 -3 c2 -7 -2 -10 -12 -6 -9 3 -16 11 -16 16 0 13 23 5 28
-10z m-1665 -62 c10 -13 10 -13 -5 -1 -11 8 -17 25 -17 45 l2 31 4 -30 c3 -16
10 -37 16 -45z m1325 10 c-7 -10 -14 -17 -17 -15 -4 4 18 35 25 35 2 0 -1 -9
-8 -20z m2032 16 c0 -3 -4 -8 -10 -11 -5 -3 -10 -1 -10 4 0 6 5 11 10 11 6 0
10 -2 10 -4z m-34 -26 c0 -20 -7 -25 -19 -13 -4 3 -2 12 4 20 15 17 15 17 15
-7z m-1931 -39 c-3 -6 -11 -11 -17 -11 -6 0 -6 6 2 15 14 17 26 13 15 -4z
m-430 -16 c0 -25 -6 -31 -18 -19 -5 6 9 44 16 44 1 0 2 -11 2 -25z m2303 11
c4 -4 3 -7 -3 -6 -5 1 -12 1 -15 0 -5 -2 -43 -9 -67 -12 -8 -1 -7 -9 4 -25 8
-12 11 -23 5 -23 -6 0 -13 6 -15 13 -3 7 -6 5 -6 -5 -1 -10 6 -18 15 -18 8 0
13 -4 9 -10 -3 -5 -13 -6 -23 -3 -14 5 -15 3 -4 -8 15 -16 16 -29 0 -29 -6 0
-8 3 -5 7 11 10 -13 32 -29 26 -16 -6 -19 13 -3 22 6 4 8 13 5 21 -3 8 1 14
10 14 8 0 12 5 9 10 -6 9 8 14 28 11 4 -1 10 5 13 13 5 14 58 15 72 2z m-143
-6 c3 -5 1 -10 -4 -10 -6 0 -11 5 -11 10 0 6 2 10 4 10 3 0 8 -4 11 -10z m100
-30 c-3 -5 -12 -10 -18 -10 -7 0 -6 4 3 10 19 12 23 12 15 0z m-1578 -32 c-3
-8 -6 -5 -6 6 -1 11 2 17 5 13 3 -3 4 -12 1 -19z m1605 14 c-7 -5 -10 -16 -6
-25 7 -18 -11 -24 -21 -7 -11 17 3 40 22 40 13 0 15 -2 5 -8z m-2772 -46 c0
-3 -4 -8 -10 -11 -5 -3 -10 -1 -10 4 0 6 5 11 10 11 6 0 10 -2 10 -4z m1061
-18 c0 -7 2 -22 5 -33 10 -53 -41 -195 -71 -195 -8 0 -19 -16 -26 -35 -7 -19
-17 -35 -21 -35 -17 0 -7 61 17 96 18 26 24 46 21 70 -4 26 0 37 15 45 11 5
17 14 14 20 -4 5 -2 9 4 9 6 0 13 16 17 35 6 33 23 49 25 23z m-1055 -68 c0
-26 -3 -48 -6 -48 -33 3 -39 -4 -37 -42 2 -31 -1 -40 -14 -40 -8 0 -16 6 -17
13 -1 6 -4 24 -8 38 -5 23 -2 28 28 39 18 6 27 14 21 17 -7 2 -13 9 -13 14 0
5 6 8 13 7 8 -2 12 8 11 29 -1 20 3 30 10 27 7 -3 12 -25 12 -54z m42 15 c-3
-3 -9 2 -12 12 -6 14 -5 15 5 6 7 -7 10 -15 7 -18z m1500 -82 c-2 -10 2 -17
10 -15 6 1 12 -2 12 -8 0 -11 -28 -9 -47 3 -7 4 -10 14 -8 22 17 53 15 52 26
33 6 -10 9 -26 7 -35z m-288 2 c0 -8 -7 -15 -15 -15 -9 0 -12 6 -9 15 4 8 10
15 15 15 5 0 9 -7 9 -15z m-810 -26 c0 -10 -7 -19 -15 -19 -16 0 -19 9 -9 34
8 20 24 11 24 -15z m1190 7 c0 -3 -4 -8 -10 -11 -5 -3 -10 -1 -10 4 0 6 5 11
10 11 6 0 10 -2 10 -4z m-396 -21 c-7 -16 -24 -21 -24 -6 0 8 7 13 27 20 1 1
0 -6 -3 -14z m-602 -47 l-9 -33 -11 25 c-8 19 -6 29 6 43 20 23 26 9 14 -35z
m585 -10 c-3 -7 -5 -2 -5 12 0 14 2 19 5 13 2 -7 2 -19 0 -25z m168 -7 c-8
-13 -35 -15 -35 -2 0 5 8 11 18 13 21 5 26 2 17 -11z m-478 -78 c-4 -25 -16
-43 -30 -43 -7 0 -6 4 3 10 13 9 13 10 0 11 -8 1 -19 1 -23 0 -5 -1 -6 3 -2 9
3 6 10 8 15 5 5 -3 12 9 15 27 6 25 9 28 16 15 5 -8 8 -24 6 -34z m295 31
c-13 -9 -26 -13 -30 -9 -8 8 17 25 38 25 9 0 6 -6 -8 -16z m-2288 -2 c3 -5 -1
-9 -9 -9 -8 0 -12 4 -9 9 3 4 7 8 9 8 2 0 6 -4 9 -8z m780 -73 c-15 -17 -15
-19 -1 -19 9 0 23 10 31 22 l16 22 0 -27 c0 -15 -4 -27 -10 -27 -5 0 -12 -11
-16 -24 -4 -17 -11 -23 -22 -19 -11 5 -14 2 -10 -9 7 -17 -9 -38 -28 -38 -7 0
-10 8 -7 20 4 16 8 18 20 9 11 -10 12 -8 3 16 -6 16 -9 34 -6 42 3 7 1 13 -3
13 -15 0 13 49 29 53 22 4 24 -12 4 -34z m518 4 c-6 -2 -10 -9 -7 -13 3 -5 1
-11 -5 -15 -5 -3 -10 3 -10 14 0 14 6 21 18 20 10 0 12 -3 4 -6z m2732 -9 c7
-17 0 -34 -14 -34 -4 0 -7 11 -6 25 1 28 11 33 20 9z m-3307 -66 c-3 -7 -5 -2
-5 12 0 14 2 19 5 13 2 -7 2 -19 0 -25z m3313 17 c0 -9 -38 -43 -43 -39 -9 9
14 41 29 41 8 0 14 -1 14 -2z m-4034 -24 c0 -11 -4 -17 -8 -15 -4 3 -8 12 -8
20 0 8 4 14 8 14 4 0 8 -9 8 -19z m3499 9 c-3 -5 -13 -10 -21 -10 -8 0 -12 5
-9 10 3 6 13 10 21 10 8 0 12 -4 9 -10z m-2967 -71 c-3 -36 -15 -25 -21 19 -5
28 -3 31 9 21 8 -6 13 -24 12 -40z m-538 10 c0 -5 -5 -9 -11 -9 -5 0 -7 -4 -4
-10 3 -5 2 -10 -4 -10 -6 0 -8 -8 -5 -17 5 -14 4 -15 -4 -4 -5 7 -16 18 -23
23 -11 8 -10 9 3 5 17 -6 33 18 23 34 -4 5 1 6 9 3 9 -3 16 -10 16 -15z m2207
-11 c-3 -8 -6 -5 -6 6 -1 11 2 17 5 13 3 -3 4 -12 1 -19z m-1760 -10 c-3 -8
-6 -5 -6 6 -1 11 2 17 5 13 3 -3 4 -12 1 -19z m1807 -20 c-4 -6 -8 -25 -9 -42
-1 -42 -13 -58 -35 -51 -15 5 -17 2 -13 -15 4 -15 11 -19 27 -15 11 2 15 2 8
-1 -6 -3 -10 -10 -6 -15 3 -5 -2 -12 -10 -15 -9 -3 -16 -16 -17 -28 0 -11 -3
-15 -6 -8 -8 19 -23 14 -23 -8 0 -11 -4 -20 -8 -20 -10 0 -11 -4 -16 -85 -2
-33 -1 -64 2 -70 4 -5 5 -22 3 -37 -2 -22 1 -26 18 -21 15 4 21 1 21 -11 0
-10 5 -14 10 -11 6 4 8 10 5 15 -3 5 -1 11 5 15 20 12 10 -24 -15 -52 -19 -22
-24 -24 -25 -10 0 19 -25 23 -36 5 -4 -7 -3 -8 4 -4 20 12 13 -8 -8 -27 -11
-9 -20 -25 -21 -34 -1 -30 -7 -54 -15 -61 -4 -4 -5 4 -2 19 6 31 -19 60 -28
32 -15 -46 -25 -63 -38 -63 -8 0 -16 10 -18 23 -3 19 -6 17 -25 -18 -12 -22
-31 -46 -42 -53 -22 -13 -27 -6 -12 18 12 18 5 31 -14 24 -10 -4 -13 -21 -11
-65 2 -33 -1 -62 -6 -65 -4 -3 -8 0 -8 5 0 6 -9 3 -20 -6 -11 -10 -20 -25 -20
-35 0 -10 -4 -18 -10 -18 -15 0 -12 26 4 40 13 10 12 17 -6 48 -15 28 -18 40
-9 54 8 13 7 21 -4 32 -27 27 -18 246 11 246 7 0 21 15 30 32 15 29 18 31 24
13 6 -16 8 -15 18 13 6 17 22 44 36 59 14 15 26 31 26 36 0 4 5 5 10 2 6 -3
10 -17 10 -31 0 -13 4 -24 9 -24 5 0 7 9 4 20 -4 14 3 27 20 40 13 11 28 32
31 47 12 50 31 83 43 78 11 -4 18 18 15 46 -1 3 13 19 29 35 23 22 28 24 23
10 -6 -15 -4 -18 9 -13 8 3 18 1 20 -6 3 -7 14 -1 28 16 22 27 47 38 33 15z
m1741 -5 c-1 -10 -7 -28 -13 -40 -12 -22 0 -34 12 -14 7 11 46 2 46 -10 0 -5
-6 -9 -12 -10 -7 0 -21 -2 -30 -4 -10 -2 -20 1 -23 5 -3 5 -12 7 -20 4 -8 -4
-13 -9 -10 -13 2 -4 -3 -8 -11 -8 -11 0 -9 6 7 23 12 12 19 28 17 35 -4 13 20
49 33 49 3 0 5 -8 4 -17z m-1349 -12 c-4 -5 0 -12 6 -14 8 -4 7 -6 -3 -6 -9
-1 -19 6 -23 14 -3 9 0 15 10 15 8 0 13 -4 10 -9z m-2091 -11 c3 -5 1 -10 -4
-10 -6 0 -11 5 -11 10 0 6 2 10 4 10 3 0 8 -4 11 -10z m-578 -62 c-3 -7 -5 -2
-5 12 0 14 2 19 5 13 2 -7 2 -19 0 -25z m531 -78 c0 -32 -1 -33 -8 -10 -4 14
-8 48 -8 75 l0 50 9 -40 c4 -22 8 -56 7 -75z m2069 88 c-3 -8 -6 -5 -6 6 -1
11 2 17 5 13 3 -3 4 -12 1 -19z m-1837 -29 c0 -21 16 -26 23 -6 3 6 6 -2 6
-19 1 -17 8 -37 16 -44 10 -8 11 -17 5 -28 -5 -10 -15 -37 -21 -61 -8 -33 -13
-41 -20 -30 -7 11 -9 11 -9 -3 0 -29 -2 -32 -27 -54 -19 -16 -22 -23 -12 -27
11 -5 10 -6 -1 -5 -32 4 -59 -14 -65 -43 -7 -32 -25 -30 -26 4 0 12 -7 1 -15
-25 -8 -27 -19 -48 -25 -48 -7 0 -9 9 -4 23 4 12 9 52 12 89 3 37 9 65 14 62
5 -3 9 -16 9 -30 0 -13 5 -24 11 -24 5 0 8 4 5 8 -3 5 1 26 9 48 8 21 14 35
15 29 0 -5 5 -4 12 3 7 7 19 12 28 12 18 0 40 87 40 159 0 25 4 40 10 36 6 -3
10 -15 10 -26z m-985 11 c-3 -4 4 -6 15 -3 11 3 20 1 20 -3 0 -11 -109 -48
-117 -40 -8 8 18 37 27 31 4 -3 10 1 13 8 2 7 14 13 26 14 12 1 19 -2 16 -7z
m2760 0 c3 -5 1 -10 -4 -10 -6 0 -11 5 -11 10 0 6 2 10 4 10 3 0 8 -4 11 -10z
m305 3 c0 -2 -9 -13 -20 -25 -11 -12 -20 -17 -20 -10 0 8 -7 9 -25 2 -15 -6
-26 -6 -30 0 -12 20 8 32 41 27 19 -3 32 -2 30 2 -3 4 1 8 9 8 8 0 15 -2 15
-4z m-2413 -55 c-2 -13 -4 -5 -4 17 -1 22 1 32 4 23 2 -10 2 -28 0 -40z m240
8 c-5 -33 -3 -47 9 -57 14 -11 16 -10 14 6 -4 38 0 65 10 65 6 0 10 -24 10
-52 0 -42 -5 -59 -24 -81 -14 -17 -27 -24 -31 -18 -3 6 -4 15 0 20 3 5 2 12
-3 15 -4 2 -7 31 -6 63 2 79 2 83 15 83 8 0 10 -14 6 -44z m-710 15 c0 -11 -4
-18 -8 -16 -3 3 -15 -2 -25 -10 -16 -13 -17 -14 -1 -9 9 3 17 1 17 -5 0 -13
-23 -14 -35 -2 -6 6 -26 6 -54 0 -51 -11 -61 -6 -37 20 20 22 71 32 87 17 9
-8 10 -7 4 4 -8 13 -7 13 10 0 16 -13 19 -13 29 3 14 22 15 21 13 -2z m33 9
c0 -5 -4 -10 -10 -10 -5 0 -10 5 -10 10 0 6 5 10 10 10 6 0 10 -4 10 -10z
m2900 -20 c0 -6 -6 -10 -12 -10 -22 0 -41 17 -34 29 8 13 46 -3 46 -19z m1053
-2 c-5 -31 -43 -93 -43 -70 0 6 5 14 10 17 6 3 10 17 10 30 0 29 10 55 20 55
5 0 6 -14 3 -32z m-3326 -25 c-3 -10 -5 -2 -5 17 0 19 2 27 5 18 2 -10 2 -26
0 -35z m714 0 c-9 -16 -10 -16 -11 -1 0 9 3 25 7 35 7 16 8 17 11 1 2 -10 -1
-25 -7 -35z m-1686 27 c-3 -5 -10 -10 -16 -10 -5 0 -9 5 -9 10 0 6 7 10 16 10
8 0 12 -4 9 -10z m2895 3 c-1 -5 -12 -21 -25 -38 l-25 -30 0 26 c0 17 8 30 23
37 28 14 27 13 27 5z m425 -12 c3 -6 -3 -15 -14 -20 -25 -14 -41 -14 -41 -1 0
6 7 10 15 10 8 0 15 5 15 10 0 13 17 13 25 1z m148 -17 c-7 -19 -25 -13 -29 8
-1 11 4 14 16 11 11 -3 16 -11 13 -19z m27 -4 c0 -5 -5 -10 -11 -10 -5 0 -7 5
-4 10 3 6 8 10 11 10 2 0 4 -4 4 -10z m-3100 -36 c0 -8 -4 -12 -10 -9 -5 3
-10 13 -10 21 0 8 5 12 10 9 6 -3 10 -13 10 -21z m-77 7 c4 -1 7 -6 7 -13 0
-6 -3 -8 -7 -5 -3 4 -17 -2 -29 -14 -25 -23 -36 -15 -23 18 5 13 15 20 26 18
10 -2 21 -4 26 -4z m1367 -62 c0 8 2 12 5 9 8 -7 -16 -58 -27 -58 -4 0 -8 21
-7 48 l1 47 13 -30 c8 -16 14 -24 15 -16z m-106 -28 c3 -22 11 -43 16 -46 6
-4 9 -1 8 6 -2 6 3 14 10 16 17 7 16 -62 -2 -95 -8 -15 -17 -35 -20 -45 -4
-11 -11 -15 -18 -11 -8 5 -9 2 -5 -10 4 -10 -4 -32 -21 -56 -27 -39 -52 -52
-52 -26 0 7 -7 20 -17 27 -15 13 -15 12 -2 -8 12 -20 11 -25 -3 -39 -16 -16
-17 -15 -24 10 -4 18 -1 32 10 45 9 10 16 31 16 47 0 22 3 25 10 14 5 -8 21
-16 36 -17 24 -2 25 -1 8 11 -17 13 -17 19 -5 82 25 136 43 167 55 95z m153
17 c-3 -8 -6 -5 -6 6 -1 11 2 17 5 13 3 -3 4 -12 1 -19z m1060 -10 c-3 -8 -6
-5 -6 6 -1 11 2 17 5 13 3 -3 4 -12 1 -19z m443 1 c0 -6 -4 -7 -10 -4 -5 3
-10 11 -10 16 0 6 5 7 10 4 6 -3 10 -11 10 -16z m-2250 -19 c6 -11 7 -20 2
-20 -6 0 -12 9 -15 20 -3 11 -3 20 -1 20 2 0 8 -9 14 -20z m737 -7 c-8 21 9
23 17 1 12 -31 6 -72 -15 -98 -11 -14 -24 -26 -28 -26 -6 0 -6 51 -1 135 0 6
8 1 17 -10 13 -16 15 -17 10 -2z m1117 -20 c-26 -19 -36 -16 -24 7 6 12 16 17
27 13 14 -6 14 -8 -3 -20z m432 -5 c28 -30 17 -30 -18 0 -16 13 -24 32 -15 32
2 0 16 -14 33 -32z m-3086 2 c-8 -5 -19 -10 -25 -10 -5 0 -3 5 5 10 8 5 20 10
25 10 6 0 3 -5 -5 -10z m500 -97 c0 -7 -4 -13 -9 -13 -10 0 -21 36 -13 45 7 7
22 -15 22 -32z m972 -15 c-8 -8 -9 -4 -5 13 4 13 8 18 11 10 2 -7 -1 -18 -6
-23z m-785 0 c-3 -8 -6 -5 -6 6 -1 11 2 17 5 13 3 -3 4 -12 1 -19z m2513 -18
c0 -5 -5 -10 -11 -10 -5 0 -7 5 -4 10 3 6 8 10 11 10 2 0 4 -4 4 -10z m-1746
-73 c-1 -46 -7 -84 -18 -104 -10 -20 -16 -56 -16 -97 0 -46 -5 -69 -16 -81
-13 -12 -13 -19 -4 -30 9 -11 9 -18 -3 -30 -8 -8 -18 -34 -22 -57 -3 -24 -11
-59 -17 -78 -11 -34 -11 -34 -20 -10 -7 20 -11 22 -18 10 -7 -11 -9 -1 -9 30
1 32 3 38 7 22 4 -13 12 -24 17 -24 12 -1 21 46 30 162 4 47 11 90 15 95 16
20 50 153 50 193 0 42 8 72 19 72 3 0 5 -33 5 -73z m2476 -18 c0 -10 -4 -19
-10 -19 -10 0 -14 21 -11 49 2 7 -2 10 -8 6 -6 -3 -11 2 -11 12 1 16 3 15 20
-6 11 -13 20 -32 20 -42z m-1587 7 c-10 -13 -20 -19 -22 -13 -2 5 4 16 15 24
26 19 27 16 7 -11z m-1879 -40 c-21 -15 -30 -14 -19 3 3 6 14 11 23 11 13 0
13 -2 -4 -14z m245 -93 c0 -76 -3 -93 -11 -76 -10 20 -3 173 8 173 2 0 4 -44
3 -97z m609 58 c-27 -46 -33 -45 -24 4 5 26 12 35 27 35 19 0 19 -1 -3 -39z
m1827 4 c-212 -35 -300 -62 -311 -97 -6 -19 -13 -21 -54 -19 -29 2 -132 -35
-211 -76 -106 -55 -244 -175 -338 -293 -65 -81 -91 -120 -91 -136 0 -12 32 19
63 61 l30 40 -6 -38 c-4 -24 -25 -64 -61 -111 -31 -41 -61 -85 -67 -100 -7
-14 -16 -26 -21 -26 -5 0 -6 5 -2 11 4 7 8 27 9 46 2 30 0 32 -9 17 -6 -11
-17 -31 -26 -46 -8 -14 -28 -50 -44 -80 l-28 -53 29 28 c16 15 32 24 36 20 4
-3 7 1 7 11 0 9 11 22 25 28 14 6 25 16 26 22 1 15 78 80 85 73 4 -3 -3 -19
-15 -35 -12 -17 -21 -35 -21 -40 0 -5 -14 -25 -32 -43 -17 -19 -28 -28 -23
-20 6 10 4 12 -4 7 -7 -5 -10 -15 -7 -23 5 -12 1 -14 -14 -10 -14 3 -18 1 -13
-6 12 -19 14 -47 3 -47 -6 0 -10 9 -10 20 0 11 -4 20 -10 20 -5 0 -9 -6 -7
-12 1 -7 -6 -12 -15 -10 -10 2 -18 -2 -18 -8 0 -5 7 -10 15 -10 23 0 29 -1 46
-11 19 -9 29 0 89 77 45 58 46 61 25 66 -11 2 -9 12 13 45 18 29 32 41 43 38
9 -3 28 4 43 16 15 12 29 19 32 16 6 -5 2 -13 -34 -83 -21 -41 -21 -42 -2 -37
11 3 20 9 20 13 0 4 7 11 16 14 11 4 10 -1 -6 -21 -20 -26 -20 -28 -3 -34 22
-8 33 -2 33 17 0 8 7 14 15 14 17 0 50 17 78 40 10 7 34 13 54 12 19 -2 40 1
47 6 17 14 56 21 56 11 0 -5 -7 -9 -15 -9 -8 0 -15 -9 -15 -19 0 -11 -6 -22
-12 -25 -7 -4 -3 -4 8 -2 12 2 28 0 35 -5 23 -15 -10 -30 -34 -17 -17 9 -19 8
-14 -6 5 -12 0 -16 -17 -16 -26 0 -107 -42 -126 -65 -7 -8 -19 -15 -26 -15
-18 0 -18 -29 0 -36 22 -9 78 -7 124 4 43 9 44 9 39 -14 -2 -13 1 -25 7 -27
11 -4 -23 -51 -39 -53 -6 -1 -20 -5 -32 -9 -14 -4 -23 -2 -23 4 0 6 -7 8 -15
5 -9 -4 -14 -13 -13 -21 3 -18 -12 -27 -67 -42 -35 -9 -40 -14 -40 -40 0 -22
3 -27 13 -19 9 8 12 5 12 -10 0 -12 -4 -24 -10 -27 -5 -3 -10 -1 -10 6 0 7 -8
6 -24 -5 -18 -12 -26 -12 -29 -3 -3 7 -6 5 -6 -5 -1 -22 -60 -36 -72 -17 -7
11 -12 12 -26 1 -10 -7 -31 -21 -48 -32 -34 -23 -21 -26 37 -8 25 7 42 8 48 2
7 -7 -10 -17 -47 -28 -59 -19 -107 -45 -99 -54 3 -2 17 3 31 12 23 15 85 22
145 16 8 -1 55 1 104 6 78 6 87 9 71 21 -11 7 -13 13 -7 14 40 3 59 2 70 -5
14 -8 30 0 19 10 -3 3 -23 8 -44 11 -28 4 -44 1 -55 -11 -20 -20 -29 -21 -22
-2 4 11 0 13 -15 9 -12 -3 -21 -1 -21 6 0 6 17 11 40 11 36 0 44 6 42 31 -1 3
6 6 14 6 8 0 14 -4 14 -9 0 -4 15 -8 33 -8 18 0 38 -5 45 -12 8 -8 15 -8 25 1
16 12 44 5 66 -17 10 -9 16 -10 21 -2 8 13 40 3 40 -13 0 -5 9 -2 20 8 16 15
23 16 33 6 9 -10 8 -12 -7 -9 -32 5 -30 -21 3 -39 31 -18 42 -35 19 -30 -7 1
-12 -4 -11 -10 2 -7 -2 -13 -7 -13 -6 0 -10 -7 -10 -15 0 -8 8 -15 17 -15 9 0
14 -3 10 -6 -12 -12 -57 6 -51 20 4 10 -2 12 -20 9 -25 -5 -25 -6 -10 -34 14
-29 14 -29 -16 -29 -33 0 -41 -17 -12 -27 9 -3 25 -13 35 -22 16 -13 19 -13
27 -1 6 8 10 11 11 5 1 -5 2 -14 4 -20 1 -5 3 -14 3 -19 1 -5 9 -3 17 4 13 11
14 10 9 -4 -6 -17 -56 -18 -82 -2 -7 4 -27 10 -43 13 l-30 4 16 -25 c17 -25
16 -26 -2 -26 -11 0 -44 8 -74 18 -30 11 -66 17 -81 15 -21 -3 -25 0 -21 15 3
14 -5 22 -34 35 -40 17 -173 29 -173 15 0 -4 -13 -8 -30 -8 -34 0 -41 19 -10
27 11 3 20 12 20 20 0 13 -3 13 -22 -1 -26 -19 -27 -19 -93 -39 -27 -8 -52
-13 -53 -12 -10 10 67 64 90 65 33 0 58 9 58 21 0 14 -42 10 -70 -6 -44 -25
-73 -36 -110 -40 -19 -2 -45 -7 -58 -11 -18 -5 -21 -3 -16 10 3 9 10 16 14 16
4 0 10 9 13 20 3 13 0 20 -9 20 -13 0 -19 27 -16 78 0 12 -2 22 -6 22 -4 0 -6
25 -5 56 1 41 -2 53 -10 45 -20 -20 -28 -12 -22 22 3 17 7 48 9 67 1 19 10 52
19 72 9 21 17 55 17 77 0 49 8 71 26 71 14 0 60 55 66 79 2 8 11 22 20 32 10
10 20 30 23 44 3 14 8 37 12 53 6 26 7 26 11 3 3 -20 11 -12 57 55 144 215
302 350 568 485 58 30 211 77 307 94 52 10 113 21 135 25 22 4 65 8 95 8 41 0
20 -6 -85 -23z m780 15 c-3 -5 -11 -10 -16 -10 -6 0 -7 5 -4 10 3 6 11 10 16
10 6 0 7 -4 4 -10z m35 -26 c0 -28 -36 -94 -51 -94 -12 0 -11 10 5 41 7 14 16
37 20 52 8 35 26 35 26 1z m-1765 -24 c3 -6 -1 -7 -9 -4 -18 7 -21 14 -7 14 6
0 13 -4 16 -10z m-1538 -37 c-3 -10 -5 -4 -5 12 0 17 2 24 5 18 2 -7 2 -21 0
-30z m-44 -28 c-7 -21 -13 -19 -13 6 0 11 4 18 10 14 5 -3 7 -12 3 -20z m992
-37 c-1 -18 -8 -34 -15 -36 -9 -3 -11 2 -7 19 4 13 7 32 7 42 0 10 4 16 9 13
5 -3 8 -20 6 -38z m-1149 -35 c-10 -10 -19 5 -10 18 6 11 8 11 12 0 2 -7 1
-15 -2 -18z m136 -13 c2 -25 0 -39 -7 -37 -13 4 -19 77 -7 77 6 0 12 -18 14
-40z m1001 -47 c0 -14 2 -21 6 -16 3 5 15 10 27 10 17 1 20 -3 16 -25 -3 -15
-13 -34 -23 -43 -15 -12 -16 -18 -6 -29 8 -8 8 -11 1 -7 -16 9 -24 -16 -24
-71 1 -46 1 -46 15 -22 l14 25 1 -25 c0 -37 -11 -71 -21 -64 -10 6 -49 -77
-49 -102 0 -9 -4 -12 -10 -9 -5 3 -11 1 -11 -4 -1 -6 -3 -15 -4 -21 -1 -5 -3
-23 -4 -40 -1 -35 -18 -40 -24 -7 -3 16 -5 14 -6 -10 -1 -32 -21 -58 -21 -29
0 9 -4 16 -10 16 -5 0 -10 -20 -10 -44 0 -35 -3 -44 -16 -42 -8 1 -19 8 -23
15 -11 17 -28 -32 -37 -102 -4 -29 -8 -57 -8 -64 -1 -7 -6 -16 -11 -20 -4 -4
-5 -3 -2 3 4 7 0 15 -9 18 -9 4 -14 9 -11 12 3 4 0 13 -8 20 -23 24 -27 16 -8
-17 18 -30 18 -31 -7 -51 -14 -11 -25 -25 -26 -32 -2 -42 -17 -116 -23 -116
-4 0 -15 14 -25 30 -21 37 -34 140 -17 140 6 0 11 7 11 16 0 14 3 14 15 4 19
-15 45 3 45 31 0 10 5 21 11 24 6 5 8 25 5 54 -3 25 -2 73 2 106 7 56 9 58 16
28 12 -52 24 -38 25 30 0 34 4 76 9 92 l9 30 14 -45 13 -45 3 35 c2 19 6 51 9
70 5 30 8 32 14 15 5 -11 9 -36 9 -55 2 -60 21 -72 21 -13 0 28 4 54 9 57 5 3
7 14 4 25 -2 10 2 25 11 33 8 9 12 18 9 21 -3 3 2 37 10 74 9 37 19 88 23 113
3 25 12 55 20 67 l14 23 21 -21 c12 -12 22 -33 22 -46z m-797 -1 c-19 -20 -21
-4 -3 35 12 27 12 27 15 4 2 -13 -3 -31 -12 -39z m421 -35 c-12 -42 -27 -79
-34 -82 -19 -7 -16 15 7 60 11 22 20 45 20 52 0 14 22 54 27 49 1 -1 -7 -37
-20 -79z m1683 54 c0 -6 -4 -13 -10 -16 -5 -3 -10 1 -10 9 0 9 5 16 10 16 6 0
10 -4 10 -9z m70 -1 c0 -5 -4 -12 -10 -15 -18 -11 -11 -21 18 -23 17 -1 22 1
14 6 -8 6 1 9 25 9 21 0 28 -2 15 -4 -15 -3 -22 -10 -18 -18 4 -10 -2 -11 -24
-5 -16 4 -31 6 -34 2 -9 -8 -7 -22 2 -21 4 1 14 1 22 0 13 -1 13 -3 1 -10 -9
-6 -22 -6 -33 0 -10 6 -18 6 -18 1 0 -19 27 -31 56 -26 16 4 35 7 42 7 6 0 12
4 12 9 0 5 10 6 23 3 12 -3 39 1 60 10 21 9 42 13 47 10 13 -8 1 -35 -15 -35
-8 0 -17 -5 -20 -10 -4 -7 3 -8 20 -4 18 4 30 2 36 -7 6 -11 9 -10 14 4 6 13
11 14 26 6 11 -5 17 -14 14 -20 -4 -5 -1 -9 4 -9 6 0 11 5 11 10 0 6 8 10 18
10 9 0 13 -4 7 -8 -21 -15 -13 -29 17 -30 36 -1 40 -4 32 -26 -5 -14 -9 -15
-15 -4 -7 10 -9 9 -9 -5 0 -14 -5 -16 -27 -11 -26 7 -27 7 -10 -10 9 -10 17
-18 17 -20 0 -5 -86 0 -97 7 -7 5 -10 0 -6 -15 4 -20 3 -21 -7 -6 -8 13 -22
16 -63 13 -28 -2 -63 -8 -76 -12 -22 -9 -22 -10 -6 -26 14 -15 15 -17 1 -17
-9 0 -16 7 -16 15 0 12 -4 13 -19 6 -10 -6 -21 -7 -25 -4 -3 3 -6 -1 -6 -11 0
-9 4 -15 9 -11 5 3 12 1 16 -4 3 -6 13 -7 22 -4 10 4 14 2 10 -4 -4 -6 16 -11
53 -12 34 -1 60 2 60 8 0 5 -11 8 -24 5 -14 -2 -28 0 -31 6 -4 6 -12 7 -18 4
-9 -5 -9 -4 -2 5 6 6 34 13 62 15 28 3 61 10 72 16 23 12 45 5 35 -12 -9 -14
15 -27 42 -22 16 3 24 -2 29 -16 5 -15 10 -18 19 -11 6 5 18 6 25 2 16 -10 7
-16 -36 -26 -27 -5 -33 -4 -33 10 0 12 -5 15 -16 11 -9 -3 -22 -6 -30 -6 -10
0 -12 -5 -8 -12 6 -10 4 -10 -8 0 -9 7 -19 9 -22 4 -3 -5 7 -15 23 -22 31 -12
50 -40 26 -36 -8 1 -17 5 -21 8 -3 4 -12 4 -20 1 -8 -3 -14 0 -14 7 0 7 -6 10
-14 7 -8 -3 -17 -3 -21 1 -4 4 -46 7 -93 7 -63 1 -86 4 -84 13 1 7 -7 12 -18
12 -12 0 -24 10 -30 23 -5 12 -9 16 -9 9 -1 -10 -6 -10 -21 -2 -15 8 -20 8
-20 -1 0 -8 -4 -8 -15 1 -9 7 -27 10 -43 7 -34 -7 -66 8 -39 19 22 8 22 27 0
20 -10 -3 -40 1 -68 8 -40 11 -49 17 -47 32 2 15 1 16 -7 4 -5 -8 -8 -17 -5
-21 2 -4 -3 -9 -11 -13 -17 -6 -30 10 -15 19 12 7 14 45 3 45 -8 0 -33 47 -33
62 0 4 55 6 122 4 93 -4 131 -1 158 10 19 8 36 15 38 15 4 -1 4 9 -1 22 -3 9
-7 9 -19 0 -23 -20 -62 -22 -74 -5 -10 13 -5 19 24 35 28 15 36 16 43 5 7 -10
9 -8 9 6 0 11 5 16 14 13 18 -7 28 3 17 17 -6 7 -1 11 15 12 13 1 24 -2 24 -6z
m-1703 -20 c-1 -22 -17 -28 -17 -7 0 12 9 27 16 27 2 0 2 -9 1 -20z m-787 -31
c0 -11 -4 -18 -10 -14 -5 3 -7 12 -3 20 7 21 13 19 13 -6z m2650 11 c0 -5 -5
-10 -11 -10 -5 0 -7 5 -4 10 3 6 8 10 11 10 2 0 4 -4 4 -10z m-1140 -20 c0
-11 -4 -20 -10 -20 -5 0 -10 9 -10 20 0 11 5 20 10 20 6 0 10 -9 10 -20z
m-329 -103 c-8 -8 -11 4 -11 39 0 66 14 80 18 19 2 -26 -2 -53 -7 -58z m259
22 c0 -5 -6 -7 -12 -3 -10 6 -10 5 -1 -7 10 -13 10 -16 -2 -16 -8 0 -15 9 -15
19 0 10 7 18 15 18 8 0 15 -5 15 -11z m497 5 c-3 -3 -12 -4 -19 -1 -8 3 -5 6
6 6 11 1 17 -2 13 -5z m-575 -56 c-9 -9 -12 -4 -11 23 0 32 1 33 11 11 8 -17
8 -26 0 -34z m259 40 c4 -33 -3 -94 -12 -102 -5 -6 -9 13 -9 52 0 35 4 62 10
62 6 0 11 -6 11 -12z m-681 -30 c0 -23 -3 -29 -11 -21 -6 6 -8 20 -4 32 9 30
15 26 15 -11z m607 0 c-3 -7 -5 -2 -5 12 0 14 2 19 5 13 2 -7 2 -19 0 -25z
m578 7 c0 -5 -28 -12 -63 -15 -44 -4 -62 -2 -62 7 0 6 12 14 28 16 44 7 97 3
97 -8z m-1328 -47 c-3 -8 -6 -5 -6 6 -1 11 2 17 5 13 3 -3 4 -12 1 -19z m2113
2 c10 -18 8 -20 -17 -20 -15 0 -35 5 -43 10 -12 8 -11 10 8 10 12 0 22 5 22
10 0 17 19 11 30 -10z m-1446 -5 c-4 -8 -10 -15 -15 -15 -5 0 -9 7 -9 15 0 8
7 15 15 15 9 0 12 -6 9 -15z m529 -39 c-3 -4 -9 -2 -14 5 -13 22 -11 31 5 17
8 -7 12 -17 9 -22z m-679 -41 c4 -38 3 -55 -3 -45 -9 16 -14 48 -12 89 2 39 8
21 15 -44z m217 28 c-8 -15 -10 -15 -11 -2 0 17 10 32 18 25 2 -3 -1 -13 -7
-23z m-81 -40 c0 -32 -5 -65 -10 -73 -7 -10 -10 7 -10 58 0 41 4 72 10 72 6 0
10 -26 10 -57z m-70 16 c0 -10 -4 -19 -10 -19 -5 0 -10 12 -10 26 0 14 4 23
10 19 6 -3 10 -15 10 -26z m460 -14 c-19 -19 -38 -35 -44 -35 -5 0 5 16 24 35
19 19 38 35 44 35 5 0 -5 -16 -24 -35z m-989 -47 l-9 -33 -1 36 c-1 20 2 39 6
43 13 12 15 -10 4 -46z m632 14 c-4 -27 -1 -42 11 -51 20 -17 21 -51 1 -51
-10 0 -15 -11 -15 -35 0 -25 -4 -35 -16 -35 -13 0 -14 11 -9 73 6 65 22 137
30 137 2 0 1 -17 -2 -38z m1432 28 c3 -5 -1 -10 -9 -10 -9 0 -16 5 -16 10 0 6
4 10 9 10 6 0 13 -4 16 -10z m-1101 -99 c-27 -39 -54 -71 -60 -71 -18 0 -25
28 -8 34 9 3 12 11 8 17 -4 8 -3 9 4 5 7 -4 12 -3 12 2 0 13 80 95 87 89 2 -3
-17 -37 -43 -76z m-401 17 c3 -25 0 -41 -9 -49 -20 -17 -22 -11 -17 49 6 58
18 58 26 0z m133 -58 l-14 -45 5 55 c2 30 7 66 11 80 6 23 7 22 9 -10 2 -19
-3 -55 -11 -80z m392 64 c-17 -13 -36 -24 -40 -24 -13 0 -9 16 6 30 8 6 12 18
9 26 -4 11 0 12 26 3 l32 -11 -33 -24z m97 28 c-2 -10 -28 -45 -59 -77 -31
-32 -55 -64 -52 -71 3 -8 0 -16 -6 -20 -7 -4 -8 -3 -4 4 13 22 -11 12 -27 -10
-13 -19 -16 -20 -16 -6 -1 9 3 19 9 23 5 3 7 11 5 18 -2 7 27 39 65 72 39 33
70 66 70 73 0 6 4 12 9 12 6 0 8 -8 6 -18z m461 -11 c-7 -11 -76 -12 -76 -1 0
5 5 11 10 11 6 1 14 2 19 3 5 0 13 4 17 8 8 9 36 -11 30 -21z m1064 -15 c0 -3
-4 -8 -10 -11 -5 -3 -10 -1 -10 4 0 6 5 11 10 11 6 0 10 -2 10 -4z m72 -64
c10 -7 18 -18 18 -24 0 -6 -9 -3 -20 7 -12 11 -29 16 -44 13 -14 -3 -23 -1
-20 3 3 5 12 9 20 9 8 0 14 5 14 11 0 6 -7 9 -15 6 -8 -4 -17 -2 -20 3 -3 5 3
10 12 12 10 2 22 -3 27 -12 5 -8 18 -21 28 -28z m-901 21 c7 -7 2 -12 -20 -15
-17 -3 -31 -3 -31 -2 0 29 29 39 51 17z m99 -13 c0 -5 -2 -10 -4 -10 -3 0 -8
5 -11 10 -3 6 -1 10 4 10 6 0 11 -4 11 -10z m777 -77 c-4 -3 -7 -1 -7 5 0 7
-4 12 -10 12 -5 0 -10 -7 -10 -15 0 -8 5 -15 11 -15 5 0 7 -5 4 -10 -11 -18
-33 15 -28 43 5 26 5 26 26 7 11 -11 17 -23 14 -27z m-2940 5 c-3 -7 -5 -2 -5
12 0 14 2 19 5 13 2 -7 2 -19 0 -25z m-477 7 c0 -12 -19 -12 -23 0 -4 9 -1 12
9 8 7 -3 14 -7 14 -8z m1960 -5 c0 -5 -7 -7 -15 -4 -8 4 -15 8 -15 10 0 2 7 4
15 4 8 0 15 -4 15 -10z m-1010 -70 c-3 -34 -11 -64 -17 -68 -15 -10 -22 -74
-10 -94 8 -12 7 -24 -1 -43 -10 -21 -10 -40 -1 -87 9 -44 9 -69 0 -97 -13 -46
-15 -108 -2 -115 5 -3 12 19 16 49 10 87 25 76 25 -19 0 -47 5 -88 10 -91 6
-3 10 -16 10 -28 0 -20 0 -20 -15 -1 -14 19 -15 19 -21 -3 -7 -26 -29 -30 -38
-8 -3 8 -13 15 -22 15 -10 0 -14 -5 -11 -14 3 -8 0 -17 -8 -19 -18 -8 -26 3
-16 22 11 21 2 91 -11 91 -7 0 -8 -18 -4 -50 5 -40 4 -50 -8 -50 -15 0 -19 10
-31 67 -3 17 -13 37 -21 44 -12 10 -14 4 -14 -40 0 -45 -2 -51 -21 -51 -11 0
-17 -4 -14 -10 3 -5 0 -7 -8 -4 -8 3 -17 22 -20 42 -3 20 -8 46 -13 57 -7 20
-7 20 14 1 11 -10 23 -28 26 -40 2 -11 4 19 2 67 -1 54 1 82 6 73 20 -35 30
-15 27 52 -2 37 -2 89 -1 116 2 46 3 48 17 30 8 -10 15 -31 15 -46 0 -16 4
-28 8 -28 8 0 12 21 44 185 l13 70 11 -50 11 -50 7 60 c9 75 13 88 26 80 6 -3
12 1 15 9 3 9 7 23 10 32 11 35 20 1 15 -56z m2523 51 c9 -10 8 -11 -7 -5 -11
4 -21 2 -27 -7 -6 -10 -8 -8 -7 7 2 23 21 25 41 5z m-2289 -6 c-4 -8 -8 -15
-10 -15 -2 0 -4 7 -4 15 0 8 4 15 10 15 5 0 7 -7 4 -15z m1604 8 c-10 -2 -26
-2 -35 0 -10 3 -2 5 17 5 19 0 27 -2 18 -5z m-2321 -35 c-3 -8 -6 -5 -6 6 -1
11 2 17 5 13 3 -3 4 -12 1 -19z m822 13 c10 -7 11 -13 2 -30 -15 -28 -24 -27
-16 2 5 17 -2 12 -29 -18 -40 -46 -49 -29 -10 22 27 35 31 37 53 24z m-289
-18 c0 -5 -4 -15 -10 -23 -11 -18 -25 -7 -17 15 6 15 27 21 27 8z m2515 -18
c0 -29 -10 -33 -19 -8 -4 9 -1 20 6 25 7 4 13 8 13 8 0 0 0 -11 0 -25z m-1495
6 c0 -5 -7 -11 -14 -14 -10 -4 -13 -1 -9 9 6 15 23 19 23 5z m1468 -20 c9 -25
8 -29 -4 -24 -8 3 -13 8 -10 11 3 2 1 13 -5 23 -6 11 -6 19 0 19 5 0 14 -13
19 -29z m-2441 -48 c-3 -10 -5 -4 -5 12 0 17 2 24 5 18 2 -7 2 -21 0 -30z
m-520 5 c-3 -8 -6 -5 -6 6 -1 11 2 17 5 13 3 -3 4 -12 1 -19z m1263 -18 c0
-21 -34 -45 -50 -35 -5 3 2 17 18 30 33 30 32 29 32 5z m1663 -12 c-4 -7 -6
-21 -5 -30 2 -13 -1 -16 -12 -12 -9 3 -13 11 -9 18 10 18 25 36 30 36 2 0 1
-6 -4 -12z m97 2 c0 -5 -4 -10 -9 -10 -6 0 -13 5 -16 10 -3 6 1 10 9 10 9 0
16 -4 16 -10z m-2503 -37 c-3 -10 -5 -4 -5 12 0 17 2 24 5 18 2 -7 2 -21 0
-30z m-235 -29 c2 -20 -1 -43 -9 -52 -10 -15 -12 -9 -13 36 0 59 16 71 22 16z
m2700 -17 c4 -10 12 -16 18 -12 6 3 7 0 4 -9 -6 -16 -12 -13 -43 27 -12 16
-12 18 0 15 8 -2 17 -11 21 -21z m-1472 3 c0 -5 -8 -10 -17 -10 -15 0 -16 2
-3 10 19 12 20 12 20 0z m-1088 -65 c-2 -19 -8 -35 -13 -35 -14 0 -11 58 4 63
6 3 12 6 12 6 1 1 -1 -15 -3 -34z m1010 -35 c-35 -29 -40 -40 -17 -40 8 0 15
-5 15 -11 0 -5 5 -7 10 -4 6 3 10 -3 10 -15 0 -17 -4 -19 -27 -14 -15 4 -33 7
-40 7 -7 0 -13 10 -13 22 0 18 -4 21 -25 17 -19 -3 -25 0 -26 14 0 18 -1 18
-8 0 -7 -18 -8 -18 -14 -2 -13 34 10 47 36 21 13 -13 16 -13 21 1 3 8 10 13
15 10 19 -12 38 5 33 30 l-5 26 34 -17 33 -18 -32 -27z m1453 -20 c3 -5 -1
-10 -10 -10 -9 0 -13 5 -10 10 3 6 8 10 10 10 2 0 7 -4 10 -10z m82 -25 c0 -8
-6 -15 -14 -15 -14 0 -17 12 -6 23 11 11 20 8 20 -8z m-1347 -16 c-7 -11 -14
-18 -17 -15 -3 3 0 12 7 21 18 21 23 19 10 -6z m-27 -23 c4 -9 -3 -16 -19 -19
-25 -4 -35 17 -11 26 20 9 25 8 30 -7z m1364 -8 c-3 -8 -6 -5 -6 6 -1 11 2 17
5 13 3 -3 4 -12 1 -19z m-2943 -88 c4 -50 5 -94 2 -98 -2 -4 -7 -56 -11 -117
-5 -91 -32 -242 -34 -197 -1 7 -5 10 -11 7 -5 -3 -10 -27 -10 -52 0 -80 -10
-40 -14 53 -2 49 -7 104 -11 123 -7 31 -6 34 10 27 16 -6 16 -4 4 11 -13 17
-13 17 4 4 13 -10 17 -23 14 -40 -3 -14 1 -37 8 -51 14 -24 14 -24 15 20 0 25
4 61 8 80 5 19 5 60 2 90 l-7 55 -2 -56 c-1 -39 -6 -61 -18 -70 -15 -13 -16
-10 -9 36 4 28 9 80 12 117 2 38 8 77 14 87 5 11 10 29 10 40 0 12 4 21 9 21
4 0 11 -41 15 -90z m1281 62 c-3 -3 -11 0 -18 7 -9 10 -8 11 6 5 10 -3 15 -9
12 -12z m153 1 c29 1 52 -1 52 -5 0 -5 -6 -8 -12 -9 -7 0 -26 -3 -43 -5 -79
-13 -143 -5 -130 17 10 16 43 10 48 -8 3 -13 5 -11 6 6 1 18 4 21 14 12 8 -6
37 -10 65 -8z m1516 -8 c-7 -17 -43 -40 -51 -32 -2 3 4 8 15 11 11 4 23 13 26
21 3 8 8 15 10 15 3 0 3 -7 0 -15z m-3215 -63 c1 -7 -3 -10 -9 -7 -5 3 -10 21
-9 38 1 31 1 31 9 7 4 -14 8 -31 9 -38z m-90 -124 c-12 -24 -24 -38 -26 -31
-2 6 6 31 18 55 12 24 24 38 26 31 2 -6 -6 -31 -18 -55z m258 10 c-2 -13 -4
-5 -4 17 -1 22 1 32 4 23 2 -10 2 -28 0 -40z m173 7 c0 -25 -4 -45 -10 -45 -5
0 -10 20 -10 45 0 25 5 45 10 45 6 0 10 -20 10 -45z m1855 35 c3 -5 1 -10 -4
-10 -6 0 -11 5 -11 10 0 6 2 10 4 10 3 0 8 -4 11 -10z m-9 -47 c-10 -10 -19 5
-10 18 6 11 8 11 12 0 2 -7 1 -15 -2 -18z m-158 -7 c3 -12 -1 -17 -10 -14 -7
3 -15 13 -16 22 -3 12 1 17 10 14 7 -3 15 -13 16 -22z m-241 -51 c0 -10 -10
-15 -26 -15 l-26 1 25 14 c14 8 25 14 26 15 0 0 1 -7 1 -15z m343 5 c0 -5 -6
-10 -14 -10 -8 0 -18 5 -21 10 -3 6 3 10 14 10 12 0 21 -4 21 -10z m-1838
-146 c-9 -47 -10 -46 -11 37 0 47 2 89 7 93 11 12 14 -76 4 -130z m275 74 c-2
-13 -4 -5 -4 17 -1 22 1 32 4 23 2 -10 2 -28 0 -40z m877 21 c9 -9 -97 -8
-112 1 -14 8 -12 9 11 10 15 0 27 4 27 9 0 8 64 -9 74 -20z m-1564 -27 c0 -10
-6 -27 -14 -38 -13 -17 -13 -15 -3 19 13 41 17 46 17 19z m116 -18 c-3 -9 -6
-21 -6 -27 0 -8 -3 -8 -11 0 -13 13 -5 43 12 43 6 0 8 -7 5 -16z m2314 7 c0
-5 -9 -11 -20 -14 -11 -3 -20 -1 -20 3 0 5 8 11 18 13 9 3 18 5 20 6 1 0 2 -3
2 -8z m-186 -20 c9 -14 -22 -22 -52 -14 l-27 7 30 7 c44 10 43 10 49 0z
m-2184 -40 c0 -22 -4 -43 -10 -46 -6 -4 -10 5 -10 19 0 14 -5 26 -10 26 -6 0
-5 8 2 20 19 30 28 24 28 -19z m-139 6 c-10 -9 -11 -8 -5 6 3 10 9 15 12 12 3
-3 0 -11 -7 -18z m176 -64 c-3 -10 -5 -4 -5 12 0 17 2 24 5 18 2 -7 2 -21 0
-30z m-190 -25 c-3 -7 -5 -2 -5 12 0 14 2 19 5 13 2 -7 2 -19 0 -25z m-26 -15
c-9 -16 -10 -14 -11 12 0 21 3 26 11 18 8 -8 8 -16 0 -30z m396 -10 c-7 -53
-25 -95 -37 -88 -6 4 -5 18 3 38 8 18 12 38 9 45 -4 12 14 42 26 42 2 0 2 -17
-1 -37z m1483 22 c0 -7 8 -19 18 -25 12 -8 13 -13 5 -16 -7 -3 -13 -10 -13
-15 0 -6 4 -8 8 -5 4 2 14 -4 21 -15 11 -18 9 -21 -8 -26 -12 -3 -21 -10 -21
-15 0 -5 5 -6 10 -3 6 3 10 -3 10 -14 0 -12 -4 -21 -10 -21 -5 0 -10 -9 -10
-21 0 -11 4 -18 9 -15 5 4 11 2 13 -3 1 -4 14 -12 27 -16 19 -6 23 -4 18 8 -8
20 29 29 44 11 9 -11 7 -14 -12 -14 -21 -1 -22 -2 -6 -11 24 -14 22 -38 -3
-32 -22 6 -29 -22 -7 -30 6 -3 2 -6 -9 -6 -12 -1 -24 6 -28 14 -3 8 0 15 6 15
6 0 3 9 -7 20 -19 21 -55 27 -55 9 0 -6 9 -13 20 -16 23 -6 27 -32 5 -34 -8
-1 -25 -2 -37 -3 -22 -2 -27 -24 -8 -36 5 -3 2 -14 -6 -25 -13 -17 -16 -18
-25 -5 -8 13 -11 13 -20 -2 -12 -22 -39 -23 -39 -2 0 8 5 12 10 9 6 -3 10 -2
10 4 0 5 -9 13 -21 16 -12 4 -18 12 -15 21 4 9 -2 14 -15 14 -11 0 -18 4 -15
9 3 5 -2 12 -11 15 -14 6 -14 9 5 22 12 8 27 12 32 9 7 -4 9 3 6 19 -3 15 -1
24 5 21 5 -4 9 0 9 7 0 7 11 22 25 32 13 10 22 22 19 27 -3 5 0 9 6 9 7 0 9 7
6 16 -4 10 -2 13 6 8 8 -5 9 -2 5 9 -3 10 -2 17 3 17 6 0 10 9 10 20 0 11 5
20 12 20 9 0 9 3 0 12 -16 16 -15 28 3 28 8 0 15 -7 15 -15z m-1673 -37 c-3
-8 -6 -5 -6 6 -1 11 2 17 5 13 3 -3 4 -12 1 -19z m43 -8 c0 -5 -4 -10 -10 -10
-5 0 -10 5 -10 10 0 6 5 10 10 10 6 0 10 -4 10 -10z m170 -99 c0 -11 -3 -11
-14 -1 -8 6 -12 18 -9 27 5 12 7 12 14 1 5 -7 9 -19 9 -27z m385 -39 c-3 -3
-11 0 -18 7 -9 10 -8 11 6 5 10 -3 15 -9 12 -12z m-798 -14 c-3 -8 -6 -5 -6 6
-1 11 2 17 5 13 3 -3 4 -12 1 -19z m1337 -13 c3 -8 2 -15 -3 -15 -5 0 -14 7
-21 15 -10 12 -10 15 3 15 8 0 17 -7 21 -15z m-514 -22 c0 -5 -5 -15 -10 -23
-8 -12 -10 -11 -10 8 0 12 5 22 10 22 6 0 10 -3 10 -7z m-74 -73 c1 -21 -3
-26 -20 -25 -21 2 -24 26 -5 33 5 2 7 7 5 11 -3 4 0 8 7 8 7 0 12 -12 13 -27z
m948 5 c-7 -16 -24 -21 -24 -6 0 8 7 13 27 20 1 1 0 -6 -3 -14z m34 -51 c10
-19 8 -21 -23 -22 -19 -1 -37 4 -41 11 -4 7 -4 9 0 5 5 -4 17 2 29 12 11 11
21 19 22 17 1 -1 7 -11 13 -23z m-106 -1 c-6 -2 -10 -9 -6 -14 3 -5 0 -9 -5
-9 -12 0 -14 13 -4 23 3 4 11 7 17 6 6 0 5 -3 -2 -6z m-846 -42 c-12 -19 -24
-12 -19 10 4 13 9 17 15 11 6 -6 7 -15 4 -21z m834 -3 c0 -10 3 -9 9 1 6 10
10 10 16 1 9 -14 6 -17 -27 -25 -23 -6 -27 -4 -25 14 1 22 27 30 27 9z m135 2
c3 -5 -1 -10 -9 -10 -9 0 -16 5 -16 10 0 6 4 10 9 10 6 0 13 -4 16 -10z
m-1268 -72 c-3 -7 -5 -2 -5 12 0 14 2 19 5 13 2 -7 2 -19 0 -25z m1089 24 c-3
-5 11 -9 31 -10 42 -2 51 -8 35 -24 -7 -7 -12 -8 -12 -2 0 6 -7 11 -15 11 -8
0 -15 -4 -15 -9 0 -4 -8 -8 -18 -8 -10 0 -22 -3 -25 -6 -4 -4 -27 -8 -52 -9
-33 -1 -45 2 -45 12 0 8 8 13 18 12 37 -3 63 1 57 11 -3 5 0 7 8 4 8 -3 17 2
20 10 4 9 9 16 12 16 4 0 4 -4 1 -8z m-1039 -34 c-3 -8 -6 -5 -6 6 -1 11 2 17
5 13 3 -3 4 -12 1 -19z m700 -14 c-3 -3 -12 -4 -19 -1 -8 3 -5 6 6 6 11 1 17
-2 13 -5z m-993 -31 c-4 -16 -7 -44 -7 -63 0 -19 -2 -28 -5 -20 -3 8 -11 21
-19 28 -11 11 -11 16 2 28 8 9 15 24 15 35 0 10 5 19 11 19 7 0 8 -9 3 -27z
m1152 11 c-3 -8 1 -17 9 -20 24 -10 18 -33 -7 -29 -23 4 -22 4 2 -15 25 -19
25 -20 3 -20 -12 0 -24 4 -28 10 -3 5 -12 7 -19 4 -7 -3 -16 2 -19 10 -7 19 1
46 14 46 5 0 9 6 9 13 0 7 9 13 21 14 15 1 19 -3 15 -13z m-146 -9 c10 -12 16
-13 27 -4 11 10 12 9 7 -5 -7 -18 -20 -21 -29 -6 -4 6 -11 8 -16 5 -12 -8 -31
4 -24 16 9 13 21 11 35 -6z m230 -16 c0 -5 -4 -9 -10 -9 -5 0 -10 7 -10 16 0
8 5 12 10 9 6 -3 10 -10 10 -16z m-296 2 c3 -5 -3 -11 -15 -14 -16 -4 -18 -3
-8 9 13 16 16 17 23 5z m331 -9 c-3 -3 -11 0 -18 7 -9 10 -8 11 6 5 10 -3 15
-9 12 -12z m-206 -33 c3 -12 1 -12 -14 1 -17 14 -18 13 -13 -7 5 -19 2 -23
-15 -23 -13 0 -17 3 -11 8 6 4 14 15 17 25 8 21 28 18 36 -4z m-70 -21 c-1
-18 -2 -19 -6 -5 -2 9 -9 14 -15 11 -7 -4 -8 -2 -4 4 12 20 26 13 25 -10z
m-866 -14 c-4 -10 -9 -12 -15 -6 -12 12 -1 35 12 27 5 -3 6 -13 3 -21z m942 6
c3 -5 1 -10 -4 -10 -6 0 -11 5 -11 10 0 6 2 10 4 10 3 0 8 -4 11 -10z m-1013
-25 c0 -5 -5 -11 -11 -13 -6 -2 -11 4 -11 13 0 9 5 15 11 13 6 -2 11 -8 11
-13z m134 -11 c-3 -9 -6 -20 -6 -25 0 -5 -4 -9 -10 -9 -5 0 -10 11 -10 25 0
16 6 25 16 25 11 0 14 -5 10 -16z m-66 -29 c0 -8 -4 -15 -10 -15 -5 0 -7 7 -4
15 4 8 8 15 10 15 2 0 4 -7 4 -15z m-20 -402 c-1 -25 -40 -43 -40 -19 0 8 6
17 13 19 19 8 27 8 27 0z m1660 -2 c0 -5 -6 -14 -14 -20 -10 -9 -15 -8 -19 3
-3 8 -3 17 0 20 9 9 33 7 33 -3z m-50 -13 c0 -7 -11 -18 -25 -25 -20 -9 -25
-8 -25 3 0 8 10 14 23 14 18 0 19 2 7 10 -13 8 -12 10 3 10 9 0 17 -6 17 -12z
m-64 -36 c-3 -2 -11 0 -18 4 -7 5 -22 7 -33 6 -17 -2 -16 0 5 12 22 13 26 13
37 -1 7 -9 11 -18 9 -21z m-326 -2 c13 -8 13 -10 -2 -10 -9 0 -20 5 -23 10 -8
13 5 13 25 0z m-690 -64 c0 -3 -4 -8 -10 -11 -5 -3 -10 -1 -10 4 0 6 5 11 10
11 6 0 10 -2 10 -4z m730 -10 c0 -3 -4 -8 -10 -11 -5 -3 -10 -1 -10 4 0 6 5
11 10 11 6 0 10 -2 10 -4z m-1203 -53 c-9 -9 -20 -13 -24 -9 -4 4 -1 11 7 16
25 16 35 11 17 -7z m33 -8 c-14 -17 -6 -50 10 -40 17 10 11 -4 -10 -25 -11
-11 -21 -20 -22 -20 -11 0 0 78 12 87 21 17 25 16 10 -2z m1140 -29 c0 -3 -4
-8 -10 -11 -5 -3 -10 -1 -10 4 0 6 5 11 10 11 6 0 10 -2 10 -4z m-100 -26 c0
-5 6 -7 14 -4 15 6 31 -12 18 -20 -9 -6 -87 15 -98 27 -4 4 9 7 29 7 21 0 37
-4 37 -10z m-90 -40 c0 -5 -2 -10 -4 -10 -3 0 -8 5 -11 10 -3 6 -1 10 4 10 6
0 11 -4 11 -10z m-650 -30 c0 -5 -2 -10 -4 -10 -3 0 -8 5 -11 10 -3 6 -1 10 4
10 6 0 11 -4 11 -10z m755 -8 c-3 -3 -11 0 -18 7 -9 10 -8 11 6 5 10 -3 15 -9
12 -12z m-712 -28 c-8 -21 -32 -25 -30 -4 1 11 8 18 18 17 9 -1 15 -7 12 -13z
m417 12 c0 -3 -4 -8 -10 -11 -5 -3 -10 -1 -10 4 0 6 5 11 10 11 6 0 10 -2 10
-4z m10 -29 c0 -9 -12 -14 -32 -15 l-33 0 30 13 c17 7 31 14 33 14 1 1 2 -5 2
-12z m-910 -1 c0 -3 -4 -8 -10 -11 -5 -3 -10 -1 -10 4 0 6 5 11 10 11 6 0 10
-2 10 -4z m473 -30 c7 3 3 -2 -7 -10 -28 -23 -39 -20 -25 6 8 14 14 18 17 10
2 -6 9 -10 15 -6z m573 -5 c-17 -11 -34 -17 -39 -14 -10 6 30 31 53 32 8 0 2
-8 -14 -18z m-1252 -47 c5 -14 4 -15 -9 -4 -17 14 -19 20 -6 20 5 0 12 -7 15
-16z m1020 -75 c-3 -6 -17 -8 -29 -5 -14 4 -25 1 -28 -7 -2 -6 -8 -8 -13 -4
-12 11 16 27 49 27 18 0 26 -4 21 -11z m12 -53 c20 -20 18 -24 -11 -18 -14 2
-25 11 -25 18 0 18 18 18 36 0z"/>
<path d="M2835 5092 c-6 -4 -8 -25 -4 -47 l5 -40 8 37 c9 42 6 61 -9 50z"/>
<path d="M3551 4304 c0 -11 3 -14 6 -6 3 7 2 16 -1 19 -3 4 -6 -2 -5 -13z"/>
<path d="M3418 4024 c-12 -12 -9 -47 7 -74 l14 -25 -1 25 c-1 41 -12 82 -20
74z"/>
<path d="M3494 3975 c-4 -11 -15 -26 -23 -33 -14 -12 -14 -13 1 -9 17 6 27
-15 29 -68 1 -19 4 -10 9 23 4 29 4 65 0 80 -7 25 -8 26 -16 7z"/>
<path d="M3386 3944 c-9 -36 1 -43 14 -10 12 33 12 36 1 36 -5 0 -12 -12 -15
-26z"/>
<path d="M3425 3908 c-3 -9 -5 -31 -3 -50 l4 -33 13 30 c8 20 9 36 3 50 -9 18
-11 18 -17 3z"/>
<path d="M3291 3858 c-1 -21 4 -38 9 -38 12 0 12 27 0 55 -7 16 -9 13 -9 -17z"/>
<path d="M3270 3670 c0 -5 5 -10 11 -10 5 0 7 5 4 10 -3 6 -8 10 -11 10 -2 0
-4 -4 -4 -10z"/>
<path d="M2096 4055 c-3 -8 -1 -15 4 -15 6 0 10 7 10 15 0 8 -2 15 -4 15 -2 0
-6 -7 -10 -15z"/>
<path d="M2597 4033 c-10 -9 -8 -61 2 -67 5 -3 8 12 8 34 -1 44 -1 43 -10 33z"/>
<path d="M2561 3864 c0 -11 3 -14 6 -6 3 7 2 16 -1 19 -3 4 -6 -2 -5 -13z"/>
<path d="M4038 3663 c7 -3 16 -2 19 1 4 3 -2 6 -13 5 -11 0 -14 -3 -6 -6z"/>
<path d="M3669 2968 c-1 -2 -3 -13 -4 -25 -1 -14 2 -20 11 -16 16 6 18 29 4
38 -5 3 -11 5 -11 3z"/>
<path d="M3612 2932 c-18 -15 -32 -30 -32 -34 0 -14 64 31 66 47 3 19 5 20
-34 -13z"/>
<path d="M3500 2895 c-7 -8 -8 -15 -2 -15 5 0 15 7 22 15 7 8 8 15 2 15 -5 0
-15 -7 -22 -15z"/>
<path d="M3398 2830 c-18 -16 -27 -30 -21 -30 7 0 27 13 45 30 18 16 27 30 21
30 -7 0 -27 -13 -45 -30z"/>
<path d="M3501 2809 c-18 -11 -31 -22 -29 -25 7 -7 55 13 63 26 12 20 0 20
-34 -1z"/>
<path d="M3166 2768 c-10 -21 -16 -42 -13 -44 8 -8 39 55 35 71 -2 7 -11 -5
-22 -27z"/>
<path d="M3697 2753 c-4 -6 -1 -16 7 -22 10 -9 15 -8 20 4 3 9 2 14 -3 10 -5
-3 -11 0 -13 7 -3 8 -6 9 -11 1z"/>
<path d="M3115 2639 c-4 -6 -5 -12 -2 -15 2 -3 7 2 10 11 7 17 1 20 -8 4z"/>
<path d="M3453 2593 c9 -2 25 -2 35 0 9 3 1 5 -18 5 -19 0 -27 -2 -17 -5z"/>
<path d="M3875 2440 c-20 -9 -20 -9 1 -9 11 -1 26 -7 33 -13 11 -11 11 -9 2
10 -6 12 -13 22 -14 21 -1 0 -11 -4 -22 -9z"/>
<path d="M3394 2394 c3 -8 6 -18 6 -20 0 -2 5 -4 10 -4 16 0 11 27 -6 34 -12
5 -15 2 -10 -10z"/>
<path d="M3810 2389 c0 -19 6 -28 22 -32 30 -8 33 -3 14 25 -9 12 -16 18 -16
13 0 -6 -5 -3 -10 5 -8 12 -10 9 -10 -11z"/>
<path d="M3550 2390 c20 -13 100 -13 100 0 0 6 -26 10 -57 10 -41 0 -54 -3
-43 -10z"/>
<path d="M3686 2316 c4 -11 65 -46 80 -46 11 0 -22 27 -53 42 -21 11 -30 12
-27 4z"/>
<path d="M2767 3280 c-3 -12 0 -20 8 -20 7 0 15 9 18 20 3 12 0 20 -8 20 -7 0
-15 -9 -18 -20z"/>
<path d="M2603 3035 c0 -27 2 -38 4 -22 2 15 2 37 0 50 -2 12 -4 0 -4 -28z"/>
<path d="M2561 2985 c1 -11 5 -33 9 -50 l8 -30 1 35 c0 19 -4 42 -9 50 -8 12
-10 11 -9 -5z"/>
<path d="M3930 3392 c0 -11 7 -23 16 -26 11 -4 15 0 12 16 -4 28 -28 36 -28
10z"/>
<path d="M3900 3369 c0 -5 5 -7 10 -4 6 3 10 8 10 11 0 2 -4 4 -10 4 -5 0 -10
-5 -10 -11z"/>
<path d="M4307 3363 c-4 -3 -23 -6 -42 -5 -40 2 -39 -13 1 -21 17 -3 39 2 58
14 26 16 28 19 10 19 -11 0 -24 -3 -27 -7z"/>
<path d="M4035 3340 c-38 -18 -38 -18 -9 -13 40 7 77 -13 71 -37 -4 -17 -2
-17 28 -4 23 9 35 10 43 2 8 -8 15 -8 25 0 10 8 17 8 24 1 17 -17 35 -1 23 20
-8 16 -35 23 -94 22 -10 0 -28 7 -40 15 -25 17 -22 18 -71 -6z"/>
<path d="M3936 3323 c26 -19 50 -18 35 1 -7 8 -21 14 -32 13 -19 -1 -19 -2 -3
-14z"/>
<path d="M4045 3270 c-3 -5 1 -10 10 -10 9 0 13 5 10 10 -3 6 -8 10 -10 10 -2
0 -7 -4 -10 -10z"/>
<path d="M4435 3241 c-3 -6 -12 -8 -19 -5 -17 6 -27 -18 -15 -37 7 -11 9 -11
9 4 0 9 7 17 15 17 8 0 15 6 15 13 0 8 4 7 10 -3 6 -9 10 -10 10 -3 0 16 -17
26 -25 14z"/>
<path d="M4365 3200 c-3 -5 1 -10 10 -10 9 0 13 5 10 10 -3 6 -8 10 -10 10 -2
0 -7 -4 -10 -10z"/>
<path d="M2802 2760 c0 -14 2 -19 5 -12 2 6 2 18 0 25 -3 6 -5 1 -5 -13z"/>
<path d="M2781 2613 c0 -26 4 -68 8 -93 8 -40 9 -35 10 42 0 48 -3 90 -9 93
-6 4 -10 -12 -9 -42z"/>
<path d="M2740 2504 c0 -21 4 -33 10 -29 6 3 10 19 10 36 0 16 -4 29 -10 29
-5 0 -10 -16 -10 -36z"/>
<path d="M2812 2397 c-2 -23 1 -28 14 -23 8 3 18 6 20 6 13 0 1 38 -14 42 -14
4 -18 -1 -20 -25z"/>
<path d="M3730 1850 c0 -6 -1 -13 -2 -17 -2 -3 4 -7 13 -8 19 -3 21 22 2 29
-7 3 -13 1 -13 -4z"/>
<path d="M3715 1790 c-9 -15 45 -24 58 -10 9 10 9 11 -3 8 -8 -3 -23 -1 -32 3
-10 6 -19 5 -23 -1z"/>
<path d="M3305 1539 c-4 -6 -5 -12 -2 -15 2 -3 7 2 10 11 7 17 1 20 -8 4z"/>
<path d="M2684 5761 c0 -11 4 -17 8 -15 4 3 8 12 8 20 0 8 -4 14 -8 14 -4 0
-8 -9 -8 -19z"/>
<path d="M2730 5739 c0 -24 4 -38 10 -34 6 3 10 22 10 41 0 19 -4 34 -10 34
-5 0 -10 -18 -10 -41z"/>
<path d="M2790 5775 c0 -5 38 -45 42 -45 3 0 6 11 6 24 0 18 -6 24 -24 24 -13
0 -24 -1 -24 -3z"/>
<path d="M2911 5758 c8 -14 6 -25 -5 -43 -15 -23 -15 -24 5 -20 17 4 19 2 9
-10 -10 -12 -9 -15 10 -15 17 0 21 4 16 18 -5 14 -4 14 9 -2 8 -11 15 -26 15
-33 0 -7 4 -13 9 -13 5 0 7 10 4 23 -4 17 -2 19 6 7 12 -18 26 -7 18 14 -4 10
-13 13 -24 9 -15 -6 -16 -5 -3 9 8 9 17 12 18 7 6 -14 22 -10 22 5 0 8 5 18
11 21 7 5 10 -18 7 -74 -2 -45 -1 -81 1 -81 13 0 28 36 20 47 -7 8 -1 22 19
45 23 26 27 38 22 60 -6 21 -5 25 6 21 13 -5 19 -24 15 -46 -3 -19 17 5 29 33
8 20 19 30 29 28 16 -3 18 -11 21 -113 1 -45 2 -47 12 -25 5 14 10 37 10 53
-1 43 16 31 23 -17 7 -46 -1 -106 -14 -106 -4 0 -15 -44 -25 -97 -21 -113 -38
-154 -34 -80 2 26 0 47 -3 47 -3 0 -14 -32 -23 -72 -17 -69 -17 -73 0 -85 25
-19 34 -16 34 10 1 19 2 19 15 -8 12 -27 13 -28 14 -7 1 12 0 23 -1 25 -1 1 4
13 11 26 7 13 13 40 13 59 0 20 4 47 10 61 5 15 12 60 14 103 2 42 11 91 20
110 9 19 13 24 10 11 -2 -13 0 -25 4 -28 5 -3 10 5 12 17 5 36 23 24 20 -13
-2 -29 -1 -31 9 -16 6 10 9 27 6 38 -3 10 -2 21 3 24 4 3 11 21 14 40 4 19 10
35 14 35 14 0 30 -37 27 -63 -4 -38 12 -34 29 8 21 49 39 45 21 -5 -8 -22 -10
-40 -5 -40 5 0 12 9 15 20 3 11 10 20 15 20 12 0 0 -63 -14 -72 -8 -6 -7 -8 1
-8 12 0 42 26 44 38 1 4 2 19 3 34 1 15 5 31 10 35 4 4 7 -8 6 -27 -5 -90 23
-76 44 22 3 14 9 33 12 42 5 13 -2 16 -44 16 -31 0 -52 -5 -55 -12 -4 -10 -6
-10 -6 0 -1 15 -53 16 -69 0 -9 -9 -12 -9 -12 1 0 9 -54 12 -245 10 -237 -2
-244 -2 -234 -21z m119 -3 c-7 -9 -15 -13 -19 -10 -3 3 1 10 9 15 21 14 24 12
10 -5z m216 -12 c-2 -9 -8 -19 -15 -21 -10 -3 -10 0 -2 17 14 25 20 27 17 4z
m44 -38 c0 -8 -4 -15 -10 -15 -5 0 -7 7 -4 15 4 8 8 15 10 15 2 0 4 -7 4 -15z"/>
<path d="M2511 5751 c-8 -6 -9 -11 -3 -15 6 -3 14 -1 17 5 9 14 2 20 -14 10z"/>
<path d="M3712 5722 c-26 -51 -31 -80 -17 -86 8 -3 16 5 20 21 7 28 45 64 58
56 4 -3 4 -10 -1 -16 -16 -21 -32 -77 -21 -77 5 0 9 6 9 14 0 7 7 19 15 26 9
7 13 15 11 17 -2 3 5 14 16 25 l21 21 -44 13 c-56 17 -52 18 -67 -14z"/>
<path d="M2878 5728 c-3 -7 -16 -12 -30 -11 -24 2 -26 -1 -25 -30 2 -25 6 -31
20 -29 10 2 24 -1 31 -7 9 -8 12 -1 11 27 0 20 3 40 8 43 5 4 5 9 -1 13 -6 3
-12 1 -14 -6z"/>
<path d="M3591 5708 c-4 -13 -11 -36 -15 -51 -11 -47 15 -27 30 21 13 44 0 71
-15 30z"/>
<path d="M2764 5688 c-14 -28 -15 -31 -2 -20 14 11 31 52 22 52 -2 0 -11 -15
-20 -32z"/>
<path d="M2095 5700 c3 -5 8 -10 11 -10 2 0 4 5 4 10 0 6 -5 10 -11 10 -5 0
-7 -4 -4 -10z"/>
<path d="M2395 5700 c3 -5 8 -10 11 -10 2 0 4 5 4 10 0 6 -5 10 -11 10 -5 0
-7 -4 -4 -10z"/>
<path d="M3161 5694 c0 -11 3 -14 6 -6 3 7 2 16 -1 19 -3 4 -6 -2 -5 -13z"/>
<path d="M3900 5706 c0 -2 7 -7 16 -10 8 -3 12 -2 9 4 -6 10 -25 14 -25 6z"/>
<path d="M2161 5674 c0 -11 3 -14 6 -6 3 7 2 16 -1 19 -3 4 -6 -2 -5 -13z"/>
<path d="M2304 5671 c0 -11 5 -17 14 -14 14 6 12 25 -4 30 -5 2 -10 -5 -10
-16z"/>
<path d="M3948 5661 c-9 -17 -13 -31 -8 -33 5 -2 -5 -22 -21 -46 -16 -23 -29
-53 -29 -65 1 -21 1 -22 12 -2 6 11 30 43 53 70 55 66 71 95 51 95 -8 0 -20 2
-28 5 -7 3 -20 -8 -30 -24z"/>
<path d="M2899 5667 c0 -1 -2 -11 -4 -21 -2 -10 -8 -22 -13 -25 -13 -8 -10
-51 3 -51 6 0 10 5 10 11 0 6 8 16 18 23 21 16 22 52 2 60 -8 3 -15 4 -16 3z"/>
<path d="M2731 5644 c0 -11 3 -14 6 -6 3 7 2 16 -1 19 -3 4 -6 -2 -5 -13z"/>
<path d="M4070 5639 c-7 -13 -8 -25 -3 -30 6 -6 14 0 21 15 14 31 -3 45 -18
15z"/>
<path d="M4041 5614 c0 -11 3 -14 6 -6 3 7 2 16 -1 19 -3 4 -6 -2 -5 -13z"/>
<path d="M4121 5612 c-17 -31 -13 -40 5 -14 9 13 14 26 11 29 -3 2 -10 -4 -16
-15z"/>
<path d="M4160 5614 c0 -8 5 -12 10 -9 6 3 10 10 10 16 0 5 -4 9 -10 9 -5 0
-10 -7 -10 -16z"/>
<path d="M1780 5599 c0 -5 5 -7 10 -4 6 3 10 8 10 11 0 2 -4 4 -10 4 -5 0 -10
-5 -10 -11z"/>
<path d="M4211 5588 c-18 -29 -14 -40 10 -28 15 9 24 8 35 -1 8 -6 14 -10 15
-8 8 37 4 48 -22 51 -18 3 -30 -2 -38 -14z"/>
<path d="M3183 5545 c0 -27 2 -38 4 -22 2 15 2 37 0 50 -2 12 -4 0 -4 -28z"/>
<path d="M3497 5584 c-4 -4 -7 -19 -6 -33 l0 -26 10 24 c10 26 8 47 -4 35z"/>
<path d="M4287 5570 c-6 -24 3 -33 20 -19 17 15 17 25 -1 32 -8 3 -16 -2 -19
-13z"/>
<path d="M2943 5563 c-3 -10 -8 -22 -10 -28 -3 -5 3 -1 11 9 16 20 21 36 11
36 -3 0 -8 -8 -12 -17z"/>
<path d="M1123 5553 c4 -3 2 -12 -4 -20 -9 -10 -8 -13 5 -13 9 0 16 8 16 20 0
11 -5 20 -12 20 -6 0 -8 -3 -5 -7z"/>
<path d="M4355 5550 c3 -5 8 -10 11 -10 2 0 4 5 4 10 0 6 -5 10 -11 10 -5 0
-7 -4 -4 -10z"/>
<path d="M4378 5516 c-16 -12 -16 -15 -2 -32 11 -14 17 -15 20 -6 8 17 33 15
40 -3 4 -8 14 -15 23 -15 11 0 5 11 -21 35 -42 40 -38 38 -60 21z"/>
<path d="M4326 5501 c-19 -21 -12 -28 13 -12 7 5 12 14 9 21 -2 7 -10 4 -22
-9z"/>
<path d="M3342 5464 c0 -19 3 -33 6 -29 9 9 11 65 2 65 -4 0 -8 -16 -8 -36z"/>
<path d="M3392 5455 c0 -16 2 -22 5 -12 2 9 2 23 0 30 -3 6 -5 -1 -5 -18z"/>
<path d="M2874 5434 c-4 -14 -2 -30 5 -37 8 -8 11 -1 11 26 0 43 -7 48 -16 11z"/>
<path d="M4476 5441 c-4 -6 0 -14 8 -17 9 -3 16 -12 16 -20 0 -8 6 -11 15 -8
20 8 19 23 -2 31 -10 4 -21 11 -24 16 -4 5 -9 5 -13 -2z"/>
<path d="M1307 5426 c-4 -10 -5 -21 -2 -24 9 -9 17 6 13 25 -3 17 -4 17 -11
-1z"/>
<path d="M3061 5414 c0 -11 3 -14 6 -6 3 7 2 16 -1 19 -3 4 -6 -2 -5 -13z"/>
<path d="M3056 5379 c-2 -8 -9 -29 -15 -48 -14 -42 -14 -51 -1 -51 6 0 10 11
10 24 0 14 5 37 10 52 6 15 8 29 6 32 -3 3 -7 -1 -10 -9z"/>
<path d="M5260 5379 c0 -5 9 -9 20 -9 11 0 20 2 20 4 0 2 -9 6 -20 9 -11 3
-20 1 -20 -4z"/>
<path d="M1377 5360 c-3 -13 0 -20 9 -20 15 0 19 26 5 34 -5 3 -11 -3 -14 -14z"/>
<path d="M3009 5368 c0 -7 -2 -21 -4 -30 -2 -10 1 -20 6 -24 5 -3 9 1 10 8 0
7 2 21 4 30 2 10 -1 20 -6 24 -5 3 -9 -1 -10 -8z"/>
<path d="M3800 5351 c0 -5 5 -13 10 -16 6 -3 10 -2 10 4 0 5 -4 13 -10 16 -5
3 -10 2 -10 -4z"/>
<path d="M4760 5304 c0 -14 3 -15 18 -3 9 7 19 15 21 16 2 2 -5 3 -17 3 -14 0
-22 -6 -22 -16z"/>
<path d="M4830 5300 c0 -17 4 -19 28 -14 15 4 41 13 57 20 29 12 28 12 -27 13
-52 1 -58 -1 -58 -19z"/>
<path d="M5272 5286 c10 -7 15 -15 13 -18 -11 -11 25 -29 44 -23 14 4 18 11
14 23 -9 24 -23 32 -58 32 -27 -1 -28 -2 -13 -14z"/>
<path d="M3269 5253 c-13 -16 -12 -17 4 -4 9 7 17 15 17 17 0 8 -8 3 -21 -13z"/>
<path d="M3120 5240 c-8 -14 -7 -22 4 -32 9 -9 12 -26 8 -52 -4 -30 -2 -38 9
-34 15 5 30 63 22 85 -3 7 -12 13 -20 13 -10 0 -12 6 -8 20 8 26 -1 26 -15 0z"/>
<path d="M3967 5253 c-10 -18 -17 -63 -10 -63 8 0 33 47 33 62 0 10 -17 10
-23 1z"/>
<path d="M3846 5225 c-3 -9 0 -15 8 -15 8 0 16 7 20 15 3 9 0 15 -8 15 -8 0
-16 -7 -20 -15z"/>
<path d="M3776 5221 c-4 -7 -5 -15 -2 -18 9 -9 19 4 14 18 -4 11 -6 11 -12 0z"/>
<path d="M2010 5211 c0 -5 5 -13 10 -16 6 -3 10 -2 10 4 0 5 -4 13 -10 16 -5
3 -10 2 -10 -4z"/>
<path d="M3062 5206 c2 -8 -5 -21 -14 -28 -10 -7 -19 -25 -20 -40 -1 -16 -7
-28 -13 -28 -5 0 -5 -4 2 -8 7 -4 15 -23 18 -42 3 -19 8 -36 10 -38 4 -4 19
80 17 94 -1 7 5 11 15 10 12 -1 19 9 24 37 7 43 3 48 -12 11 -5 -15 -12 -24
-15 -21 -3 3 2 19 11 36 15 30 15 31 -5 31 -13 0 -20 -6 -18 -14z"/>
<path d="M3209 5183 c-5 -16 -15 -41 -21 -56 -14 -35 -4 -47 13 -15 13 23 30
98 22 98 -2 0 -8 -12 -14 -27z"/>
<path d="M1110 5164 c8 -10 15 -20 16 -22 1 -2 4 1 7 5 3 5 -4 15 -16 23 -21
12 -21 12 -7 -6z"/>
<path d="M4357 5150 c-3 -11 -2 -20 3 -20 4 0 10 9 13 20 3 11 2 20 -3 20 -4
0 -10 -9 -13 -20z"/>
<path d="M5260 5135 c0 -3 9 -15 20 -27 22 -24 27 -13 6 15 -13 16 -26 23 -26
12z"/>
<path d="M5210 5110 c-9 -6 -10 -10 -3 -10 6 0 15 5 18 10 8 12 4 12 -15 0z"/>
<path d="M3120 5082 c0 -10 -9 -25 -20 -35 -11 -9 -20 -27 -20 -39 l0 -22 15
22 c25 34 46 92 35 92 -5 0 -10 -8 -10 -18z"/>
<path d="M4956 5073 c-6 -14 -5 -15 5 -6 7 7 10 15 7 18 -3 3 -9 -2 -12 -12z"/>
<path d="M5020 5066 c0 -2 7 -7 16 -10 8 -3 12 -2 9 4 -6 10 -25 14 -25 6z"/>
<path d="M3075 4960 c-4 -12 -5 -24 -2 -27 3 -2 8 5 12 17 4 12 5 24 2 27 -3
2 -8 -5 -12 -17z"/>
<path d="M4386 4953 c-21 -14 -35 -19 -31 -13 5 8 0 7 -13 -1 -12 -8 -20 -22
-19 -34 2 -17 -3 -20 -30 -17 -17 2 -34 -1 -37 -7 -4 -6 2 -8 14 -6 25 5 25 3
1 -24 -19 -22 -19 -22 -26 -2 -6 21 -16 26 -28 14 -4 -3 -1 -13 6 -21 9 -13 9
-14 0 -8 -7 4 -13 2 -13 -3 0 -6 7 -11 15 -11 8 0 15 -4 15 -10 0 -5 -8 -7
-17 -4 -15 5 -15 4 -4 -4 13 -9 13 -13 1 -29 -7 -10 22 17 66 59 43 42 95 90
114 106 45 39 37 47 -14 15z"/>
<path d="M5032 4963 c-6 -2 -10 -9 -6 -14 3 -5 12 -5 23 1 10 5 21 6 25 3 3
-3 6 -1 6 5 0 12 -24 15 -48 5z"/>
<path d="M1254 4949 c-3 -6 2 -18 12 -27 17 -16 17 -16 3 2 -13 18 -12 19 5
13 16 -6 17 -5 6 8 -15 18 -17 18 -26 4z"/>
<path d="M4268 4932 c-4 -14 -14 -22 -27 -22 -20 0 -27 -10 -15 -23 10 -9 57
39 52 54 -3 8 -7 5 -10 -9z"/>
<path d="M4295 4940 c-3 -5 -1 -10 4 -10 6 0 11 5 11 10 0 6 -2 10 -4 10 -3 0
-8 -4 -11 -10z"/>
<path d="M4907 4923 c-10 -10 -8 -23 4 -23 5 0 7 5 3 12 -5 8 -2 9 10 5 10 -4
15 -3 11 3 -7 12 -19 13 -28 3z"/>
<path d="M5020 4919 c0 -3 9 -9 19 -12 13 -3 18 0 15 7 -5 13 -34 18 -34 5z"/>
<path d="M3036 4905 c-3 -9 -6 -22 -5 -28 0 -7 5 -1 10 12 5 13 8 26 5 28 -2
2 -6 -3 -10 -12z"/>
<path d="M3824 4909 c-3 -6 -1 -16 5 -22 8 -8 11 -5 11 11 0 24 -5 28 -16 11z"/>
<path d="M2980 4888 c0 -12 3 -18 7 -14 11 10 12 36 2 36 -5 0 -9 -10 -9 -22z"/>
<path d="M4707 4895 c-8 -18 11 -24 46 -14 18 5 27 4 27 -3 0 -6 2 -9 5 -6 3
3 3 12 -1 21 -4 12 -11 14 -22 8 -10 -6 -23 -6 -33 0 -12 6 -19 4 -22 -6z"/>
<path d="M1251 4874 c0 -11 3 -14 6 -6 3 7 2 16 -1 19 -3 4 -6 -2 -5 -13z"/>
<path d="M1255 4840 c-3 -5 1 -10 9 -10 9 0 16 5 16 10 0 6 -4 10 -9 10 -6 0
-13 -4 -16 -10z"/>
<path d="M1315 4820 c3 -5 8 -10 11 -10 2 0 4 5 4 10 0 6 -5 10 -11 10 -5 0
-7 -4 -4 -10z"/>
<path d="M4738 4753 c12 -2 22 -10 22 -18 0 -8 7 -11 20 -8 11 3 20 0 20 -6 0
-6 7 -8 17 -4 14 5 13 8 -5 14 -12 5 -22 13 -22 19 0 5 -17 9 -37 9 -24 -1
-29 -3 -15 -6z"/>
<path d="M1396 4731 c-4 -7 -5 -15 -2 -18 9 -9 19 4 14 18 -4 11 -6 11 -12 0z"/>
<path d="M4588 4733 c7 -3 16 -2 19 1 4 3 -2 6 -13 5 -11 0 -14 -3 -6 -6z"/>
<path d="M1347 4682 c3 -7 9 -10 12 -5 3 4 10 11 15 15 4 4 -1 6 -12 5 -12 -1
-18 -6 -15 -15z"/>
<path d="M4294 4679 c-19 -22 -19 -22 3 -10 24 12 39 31 25 31 -5 0 -17 -10
-28 -21z"/>
<path d="M4195 4620 c-3 -5 -1 -10 5 -10 6 0 9 -4 6 -9 -4 -5 1 -8 9 -7 9 1
15 5 15 9 0 4 0 12 0 17 0 6 -6 10 -14 10 -8 0 -18 -4 -21 -10z"/>
<path d="M4646 4572 c-3 -5 1 -9 9 -9 8 0 15 4 15 9 0 4 -4 8 -9 8 -6 0 -12
-4 -15 -8z"/>
<path d="M760 4544 c0 -11 5 -14 16 -10 14 5 15 -3 10 -61 -6 -66 -5 -67 8
-31 14 38 11 83 -7 106 -13 17 -27 15 -27 -4z"/>
<path d="M2885 4529 c-4 -15 -5 -40 -3 -55 4 -28 4 -28 16 10 7 24 8 45 2 55
-7 13 -10 11 -15 -10z"/>
<path d="M4278 4533 c7 -3 16 -2 19 1 4 3 -2 6 -13 5 -11 0 -14 -3 -6 -6z"/>
<path d="M4310 4530 c0 -6 7 -10 15 -10 8 0 15 2 15 4 0 2 -7 6 -15 10 -8 3
-15 1 -15 -4z"/>
<path d="M4800 4520 c0 -5 5 -10 11 -10 5 0 7 5 4 10 -3 6 -8 10 -11 10 -2 0
-4 -4 -4 -10z"/>
<path d="M4385 4510 c-3 -5 -1 -10 4 -10 6 0 11 5 11 10 0 6 -2 10 -4 10 -3 0
-8 -4 -11 -10z"/>
<path d="M3001 4487 c-6 -8 -11 -27 -13 -43 -3 -48 4 -181 9 -159 13 57 25 84
37 79 17 -7 24 20 18 74 -5 47 -31 72 -51 49z"/>
<path d="M4578 4473 c7 -3 16 -2 19 1 4 3 -2 6 -13 5 -11 0 -14 -3 -6 -6z"/>
<path d="M4625 4460 c-4 -6 -4 -10 -1 -10 2 0 11 -3 20 -6 9 -3 16 -2 16 4 0
14 -28 23 -35 12z"/>
<path d="M2820 4450 c0 -5 5 -10 10 -10 6 0 10 5 10 10 0 6 -4 10 -10 10 -5 0
-10 -4 -10 -10z"/>
<path d="M3320 4439 c0 -5 5 -7 10 -4 6 3 10 8 10 11 0 2 -4 4 -10 4 -5 0 -10
-5 -10 -11z"/>
<path d="M4675 4440 c-3 -5 -1 -10 4 -10 6 0 11 5 11 10 0 6 -2 10 -4 10 -3 0
-8 -4 -11 -10z"/>
<path d="M4390 4427 c0 -13 27 -26 53 -27 14 0 7 18 -10 24 -10 3 -24 9 -30
12 -7 3 -13 -1 -13 -9z"/>
<path d="M1138 4423 c7 -3 16 -2 19 1 4 3 -2 6 -13 5 -11 0 -14 -3 -6 -6z"/>
<path d="M4460 4416 c0 -2 9 -6 20 -9 11 -3 18 -1 14 4 -5 9 -34 13 -34 5z"/>
<path d="M4190 4400 c-9 -6 -10 -10 -3 -10 6 0 15 5 18 10 8 12 4 12 -15 0z"/>
<path d="M2432 4364 c-1 -15 4 -24 12 -24 16 0 27 23 18 36 -13 18 -28 12 -30
-12z"/>
<path d="M4325 4350 c3 -5 13 -10 21 -10 8 0 12 5 9 10 -3 6 -13 10 -21 10 -8
0 -12 -4 -9 -10z"/>
<path d="M2358 4342 c-9 -2 -19 -9 -22 -17 -3 -10 2 -13 22 -10 15 1 33 3 40
4 6 0 12 6 12 12 0 5 -5 7 -11 3 -6 -3 -14 -2 -18 3 -3 5 -13 7 -23 5z"/>
<path d="M3265 4290 c3 -5 8 -10 11 -10 2 0 4 5 4 10 0 6 -5 10 -11 10 -5 0
-7 -4 -4 -10z"/>
<path d="M3290 4290 c0 -5 5 -10 10 -10 6 0 10 5 10 10 0 6 -4 10 -10 10 -5 0
-10 -4 -10 -10z"/>
<path d="M2442 4270 c0 -14 2 -19 5 -12 2 6 2 18 0 25 -3 6 -5 1 -5 -13z"/>
<path d="M3226 4254 c-3 -9 -6 -25 -6 -36 0 -17 3 -18 15 -8 10 9 15 9 15 1 0
-6 5 -11 10 -11 15 0 12 30 -4 36 -8 3 -12 12 -9 20 3 8 1 14 -5 14 -5 0 -13
-7 -16 -16z"/>
<path d="M1405 3980 c-3 -5 1 -10 10 -10 9 0 13 5 10 10 -3 6 -8 10 -10 10 -2
0 -7 -4 -10 -10z"/>
<path d="M2320 3980 c0 -5 5 -10 10 -10 6 0 10 5 10 10 0 6 -4 10 -10 10 -5 0
-10 -4 -10 -10z"/>
<path d="M1500 3800 c0 -5 5 -10 11 -10 5 0 7 5 4 10 -3 6 -8 10 -11 10 -2 0
-4 -4 -4 -10z"/>
<path d="M1454 3752 c3 -5 0 -13 -6 -15 -9 -4 -10 -6 -1 -6 17 -1 25 16 12 25
-7 4 -9 3 -5 -4z"/>
<path d="M1585 3540 c-3 -5 -1 -18 4 -27 9 -16 10 -14 11 10 0 28 -5 34 -15
17z"/>
<path d="M1918 3491 c-21 -43 -22 -51 -8 -51 6 0 10 7 10 16 0 9 11 25 25 36
29 23 32 38 8 38 -11 0 -25 -16 -35 -39z m42 25 c0 -3 -4 -8 -10 -11 -5 -3
-10 -1 -10 4 0 6 5 11 10 11 6 0 10 -2 10 -4z"/>
<path d="M1475 3401 c-3 -5 -1 -12 5 -16 5 -3 10 1 10 9 0 18 -6 21 -15 7z"/>
<path d="M1906 3395 c-3 -8 -1 -15 4 -15 6 0 10 7 10 15 0 8 -2 15 -4 15 -2 0
-6 -7 -10 -15z"/>
<path d="M1976 3334 c-9 -35 -2 -40 12 -9 6 13 7 27 3 30 -5 2 -12 -7 -15 -21z"/>
<path d="M1868 3306 c-2 -36 0 -46 14 -49 11 -3 20 4 27 23 5 16 19 31 30 35
27 8 27 21 1 21 -11 0 -20 -4 -20 -8 0 -4 -7 -8 -15 -8 -8 0 -15 7 -15 15 0 8
-4 15 -9 15 -5 0 -11 -20 -13 -44z"/>
<path d="M2280 3225 c1 -26 2 -28 11 -12 8 14 8 22 0 30 -8 8 -11 3 -11 -18z"/>
<path d="M1836 3185 c-3 -8 -1 -15 4 -15 6 0 10 7 10 15 0 8 -2 15 -4 15 -2 0
-6 -7 -10 -15z"/>
<path d="M2188 3177 c-3 -19 -2 -25 4 -19 6 6 8 18 6 28 -3 14 -5 12 -10 -9z"/>
<path d="M1992 2740 c0 -14 2 -19 5 -12 2 6 2 18 0 25 -3 6 -5 1 -5 -13z"/>
<path d="M751 2711 c-8 -6 -1 -8 23 -7 19 1 38 4 40 7 9 9 -49 9 -63 0z"/>
<path d="M705 2690 c-3 -6 -2 -10 4 -10 6 0 8 -7 5 -15 -4 -8 -12 -15 -20 -15
-8 0 -11 -6 -7 -17 4 -9 2 -14 -3 -11 -5 3 -15 0 -21 -7 -10 -11 -8 -20 12
-43 13 -16 31 -29 39 -29 9 0 14 2 12 5 -2 2 3 12 12 23 30 35 152 19 138 -17
-3 -8 -2 -13 3 -10 5 3 26 0 47 -8 22 -7 48 -11 59 -9 11 2 34 6 51 7 17 2 37
7 43 11 18 11 127 19 148 11 16 -7 16 -9 -7 -21 -14 -8 -21 -14 -17 -15 5 0 1
-7 -7 -16 -21 -21 -20 -37 2 -32 16 5 20 -5 30 -76 7 -45 16 -82 22 -84 5 -2
10 -13 10 -25 -1 -20 -2 -20 -11 -4 -12 21 -33 23 -26 2 4 -8 2 -17 -4 -20 -6
-4 -4 -17 5 -33 7 -15 23 -46 35 -69 12 -24 19 -43 14 -43 -4 0 3 -7 15 -16
12 -8 20 -20 16 -25 -3 -5 -2 -8 3 -7 15 4 58 -15 70 -31 8 -10 12 -12 13 -3
0 8 6 6 18 -5 11 -10 17 -21 15 -25 -2 -4 4 -5 13 -1 13 5 15 3 9 -7 -5 -8 -4
-11 2 -7 6 4 14 0 17 -8 3 -8 9 -15 13 -14 18 3 29 -2 57 -26 24 -20 26 -25
11 -25 -10 0 -15 -3 -12 -6 4 -4 33 -7 66 -7 41 0 58 -4 54 -11 -3 -6 0 -6 7
1 11 10 11 15 0 28 -7 8 -8 15 -3 15 6 0 19 -11 29 -25 15 -20 25 -24 54 -20
20 2 48 -2 63 -10 l27 -14 0 104 c0 127 -18 191 -84 295 -48 74 -112 150 -128
150 -5 0 -31 18 -59 40 -28 22 -55 40 -60 40 -6 0 -23 10 -38 21 -16 12 -34
18 -40 14 -14 -8 -43 13 -35 26 3 5 0 9 -5 9 -6 0 -11 -6 -11 -12 0 -7 -6 -2
-13 11 -6 13 -20 26 -29 28 -70 15 -81 15 -89 0 -7 -12 -19 -14 -47 -10 -20 3
-42 10 -48 14 -6 5 -13 7 -15 4 -3 -2 -59 7 -125 21 -112 24 -141 30 -171 33
-7 0 -13 7 -13 14 0 18 -47 20 -54 2 -3 -8 -1 -17 4 -20 11 -7 2 -35 -11 -35
-4 0 -6 7 -2 16 7 18 -42 70 -52 54z m643 -132 c-5 -15 -42 -22 -66 -13 -14 5
-14 7 -2 15 23 15 72 12 68 -2z m-48 -339 c0 -6 -4 -7 -10 -4 -5 3 -10 11 -10
16 0 6 5 7 10 4 6 -3 10 -11 10 -16z m225 -46 c15 -14 15 -17 2 -25 -19 -10
-65 13 -59 30 5 17 38 15 57 -5z m-134 -49 c27 -32 150 -105 201 -118 56 -14
53 -30 -3 -17 -19 4 -43 5 -54 1 -14 -5 -24 -1 -34 12 -7 11 -19 17 -27 14 -8
-3 -20 6 -28 22 -9 15 -15 24 -16 20 0 -9 -90 87 -90 96 0 10 35 -10 51 -30z
m243 26 c20 0 20 0 0 -15 -19 -15 -56 -20 -67 -9 -13 13 6 35 27 30 11 -3 30
-6 40 -6z"/>
<path d="M1781 2614 c0 -11 3 -14 6 -6 3 7 2 16 -1 19 -3 4 -6 -2 -5 -13z"/>
<path d="M1936 2524 c-4 -14 -5 -29 -2 -31 3 -3 8 7 12 21 3 15 4 29 1 32 -2
3 -8 -7 -11 -22z"/>
<path d="M940 2500 c0 -5 5 -10 11 -10 5 0 7 5 4 10 -3 6 -8 10 -11 10 -2 0
-4 -4 -4 -10z"/>
<path d="M982 2493 c6 -7 19 -13 29 -13 11 0 16 5 14 13 -3 6 -16 12 -29 12
-18 0 -22 -3 -14 -12z"/>
<path d="M1186 2431 c-4 -7 -5 -15 -2 -18 9 -9 19 4 14 18 -4 11 -6 11 -12 0z"/>
<path d="M1813 2414 c-6 -17 15 -36 31 -27 5 4 7 -1 3 -10 -3 -10 -2 -17 3
-17 11 0 15 8 24 45 l8 30 -25 -23 c-24 -22 -47 -16 -32 8 3 6 4 10 0 10 -3 0
-8 -7 -12 -16z"/>
<path d="M920 2360 c0 -5 9 -10 20 -10 11 0 20 5 20 10 0 6 -9 10 -20 10 -11
0 -20 -4 -20 -10z"/>
<path d="M789 2322 c5 -10 20 -29 34 -42 30 -31 56 -81 50 -97 -3 -7 2 -16 10
-19 9 -3 14 -14 12 -24 -2 -11 6 -25 18 -33 13 -8 23 -24 24 -35 1 -11 11 -30
23 -42 24 -24 22 -46 -5 -43 -14 1 -11 -5 12 -28 21 -18 30 -35 26 -47 -4 -15
2 -21 26 -25 18 -4 34 -15 38 -24 4 -10 13 -24 21 -32 17 -17 6 -29 -36 -37
-25 -5 -32 -3 -30 7 2 9 -8 15 -29 17 -18 2 -33 1 -33 -3 0 -3 11 -23 24 -44
18 -28 36 -42 68 -52 36 -12 43 -18 44 -41 1 -15 7 -35 15 -44 12 -15 11 -16
-11 -9 -41 13 -75 12 -72 -4 2 -10 -4 -12 -23 -7 -14 4 -30 4 -36 0 -15 -9 22
-33 52 -34 15 0 29 -7 33 -15 6 -18 2 -19 -26 -4 -32 17 -33 2 -2 -29 28 -27
71 -51 60 -33 -6 10 24 25 32 16 3 -3 0 -5 -6 -5 -7 0 -12 -8 -12 -19 0 -20
26 -31 64 -27 19 2 23 -1 21 -15 -2 -10 -1 -18 3 -18 16 2 51 -14 47 -21 -3
-4 11 -4 29 0 24 5 33 4 30 -4 -2 -6 9 -11 28 -12 17 -1 37 -9 44 -18 8 -11
14 -13 19 -6 3 5 11 8 16 5 5 -4 9 -1 9 5 0 6 4 8 10 5 6 -4 4 -15 -5 -29
l-15 -23 52 2 c29 1 61 6 72 10 10 5 26 4 35 -2 9 -6 28 -6 46 -2 16 5 33 5
38 0 5 -5 -3 -11 -17 -15 -14 -3 -26 -13 -26 -22 0 -8 -6 -17 -14 -20 -16 -6
-42 -62 -33 -71 3 -3 14 2 23 11 23 24 39 14 38 -22 -2 -27 1 -30 16 -22 11 6
21 5 28 -2 9 -9 12 -7 12 9 0 12 -6 23 -12 26 -7 2 -6 3 3 2 9 -1 24 2 33 7
11 6 16 5 16 -3 0 -7 8 -5 20 6 12 11 20 13 20 6 0 -7 5 -9 10 -6 6 4 7 11 4
17 -4 7 -2 8 4 4 7 -4 12 -16 12 -26 0 -14 -5 -18 -17 -13 -13 5 -15 3 -8 -13
4 -10 10 -46 13 -79 4 -56 13 -74 37 -75 6 0 9 32 8 81 -1 59 3 88 13 105 9
14 15 42 14 69 -2 41 -2 95 -1 153 1 13 12 49 25 80 13 31 24 75 24 97 0 34
-2 36 -9 17 -5 -13 -14 -20 -20 -16 -10 6 -9 44 2 84 3 10 -5 16 -22 18 -20 2
-28 -2 -32 -17 -3 -12 -10 -21 -16 -21 -8 0 -9 6 -2 18 9 16 6 18 -22 14 -31
-4 -31 -4 -12 12 19 14 19 15 2 16 -14 0 -17 5 -12 20 5 14 2 20 -10 20 -10 0
-13 5 -9 13 4 6 4 9 -1 5 -4 -4 -15 -2 -23 5 -13 10 -15 9 -10 -4 5 -13 -1
-18 -23 -23 -19 -4 -27 -10 -23 -20 3 -8 1 -17 -5 -20 -5 -4 -8 -16 -6 -29 9
-48 -26 -61 -38 -15 -6 23 -6 23 10 3 15 -20 15 -20 10 3 -3 14 -1 20 5 15 7
-3 8 -1 4 6 -4 6 -12 9 -17 6 -5 -4 -9 -1 -9 6 0 8 -6 7 -17 -4 -15 -13 -21
-13 -35 -3 -12 9 -14 16 -7 23 8 8 7 11 -2 10 -42 -1 -50 3 -44 26 5 19 4 20
-5 5 -15 -25 -27 -22 -26 5 1 15 -4 22 -15 21 -10 -1 -22 9 -29 21 -7 13 -23
29 -36 36 -13 7 -24 18 -24 26 0 7 -5 13 -11 13 -5 0 -7 4 -4 10 3 5 0 7 -7 5
-8 -3 -24 4 -36 15 -12 11 -34 25 -49 31 -24 9 -26 12 -11 20 11 6 15 16 11
27 -9 24 -51 62 -69 62 -8 0 -12 5 -9 10 3 6 -1 10 -9 10 -22 0 -47 30 -41 49
5 18 -14 29 -160 97 -44 20 -83 42 -87 48 -4 6 -8 7 -8 2 0 -5 -12 1 -27 15
-14 13 -23 17 -18 9 6 -12 5 -13 -6 -2 -19 18 -31 15 -20 -6z m131 -143 c0 -5
-4 -9 -10 -9 -5 0 -10 7 -10 16 0 8 5 12 10 9 6 -3 10 -10 10 -16z m273 -380
c-10 -10 -55 0 -48 11 2 4 16 5 30 2 15 -2 23 -8 18 -13z m-73 -125 c0 -8 -5
-12 -10 -9 -6 4 -8 11 -5 16 9 14 15 11 15 -7z m244 -19 c3 -8 1 -15 -4 -15
-6 0 -10 7 -10 15 0 8 2 15 4 15 2 0 6 -7 10 -15z m211 -24 c3 -5 1 -12 -5
-16 -5 -3 -10 1 -10 9 0 18 6 21 15 7z m76 -94 c-16 -16 -20 -5 -8 23 9 22 11
23 14 6 3 -10 0 -23 -6 -29z m49 -32 c0 -8 -4 -15 -10 -15 -5 0 -7 7 -4 15 4
8 8 15 10 15 2 0 4 -7 4 -15z m-428 -17 c-7 -7 -12 -8 -12 -2 0 14 12 26 19
19 2 -3 -1 -11 -7 -17z m365 -23 c0 -10 -6 -13 -18 -10 -10 4 -26 2 -35 -3
-15 -9 -15 -11 5 -22 12 -6 29 -9 38 -6 9 4 13 1 10 -6 -2 -7 -9 -12 -14 -11
-5 1 -27 -2 -49 -7 -46 -11 -80 -4 -88 16 -4 10 -2 12 5 8 23 -14 79 -12 79 3
0 7 -7 16 -16 20 -14 5 -12 8 7 19 33 18 76 18 76 -1z m-242 -24 c3 -5 1 -12
-5 -16 -5 -3 -10 1 -10 9 0 18 6 21 15 7z m35 -26 c0 -8 -4 -15 -10 -15 -5 0
-7 7 -4 15 4 8 8 15 10 15 2 0 4 -7 4 -15z m270 -119 c0 -3 -4 -8 -10 -11 -5
-3 -10 -1 -10 4 0 6 5 11 10 11 6 0 10 -2 10 -4z"/>
<path d="M960 2286 c14 -8 36 -15 50 -15 23 1 22 2 -5 9 -16 4 -39 11 -50 14
-13 5 -12 2 5 -8z"/>
<path d="M2051 2121 c-8 -6 -9 -11 -3 -15 6 -3 14 -1 17 5 9 14 2 20 -14 10z"/>
<path d="M774 2025 c-10 -8 -14 -14 -9 -15 15 0 40 18 34 24 -3 3 -14 -1 -25
-9z"/>
<path d="M2005 1890 c-3 -5 -1 -10 4 -10 6 0 11 5 11 10 0 6 -2 10 -4 10 -3 0
-8 -4 -11 -10z"/>
<path d="M1935 1680 c-3 -6 1 -7 9 -4 18 7 21 14 7 14 -6 0 -13 -4 -16 -10z"/>
<path d="M1020 1470 c0 -6 7 -10 15 -10 8 0 15 2 15 4 0 2 -7 6 -15 10 -8 3
-15 1 -15 -4z"/>
<path d="M1135 1440 c3 -5 10 -10 16 -10 5 0 9 5 9 10 0 6 -7 10 -16 10 -8 0
-12 -4 -9 -10z"/>
<path d="M1292 1369 c2 -6 8 -10 13 -10 5 0 11 4 13 10 2 6 -4 11 -13 11 -9 0
-15 -5 -13 -11z"/>
<path d="M2251 1291 c-10 -7 -10 -10 -1 -16 6 -4 16 -3 22 3 13 13 -4 23 -21
13z"/>
<path d="M1437 1283 c-16 -15 -6 -33 18 -33 18 0 25 5 25 20 0 20 -28 28 -43
13z"/>
<path d="M1487 1250 c-3 -11 2 -25 11 -32 11 -9 14 -9 9 -1 -5 7 1 17 14 24
17 9 19 13 8 20 -22 14 -36 10 -42 -11z"/>
<path d="M1230 1232 c0 -12 34 -42 48 -42 19 0 14 18 -10 34 -25 18 -38 20
-38 8z"/>
<path d="M1547 1194 c-4 -4 -7 -17 -7 -28 1 -19 1 -20 11 -3 11 19 8 43 -4 31z"/>
<path d="M1403 1127 c-25 -11 -28 -29 -12 -75 11 -32 41 -35 32 -4 -3 12 2 18
16 19 12 1 21 -2 21 -7 0 -4 8 -11 18 -15 13 -5 14 -4 5 6 -10 10 -9 16 4 31
11 13 12 18 3 18 -7 0 -10 8 -7 20 4 15 0 20 -13 20 -11 0 -22 -5 -26 -11 -4
-7 -9 -7 -13 -1 -4 6 -14 6 -28 -1z m41 -32 c4 -13 2 -14 -14 -5 -23 13 -26
20 -6 20 8 0 16 -7 20 -15z"/>
<path d="M1530 1049 c7 -11 14 -19 16 -16 7 7 -7 37 -17 37 -6 0 -5 -9 1 -21z"/>
<path d="M2187 1046 c-6 -14 0 -26 14 -26 3 0 9 9 12 20 6 23 -18 28 -26 6z"/>
<path d="M1780 996 c0 -28 14 -35 23 -12 3 8 -1 20 -9 26 -12 10 -14 8 -14
-14z"/>
<path d="M1430 995 c7 -9 22 -21 32 -26 15 -8 18 -6 18 14 0 18 -6 23 -31 25
-28 2 -30 1 -19 -13z"/>
<path d="M1546 881 c-10 -16 5 -41 25 -41 23 0 26 35 3 44 -20 8 -22 8 -28 -3z"/>
<path d="M1760 833 c0 -10 5 -25 10 -33 7 -11 10 -7 10 18 0 17 -4 32 -10 32
-5 0 -10 -8 -10 -17z"/>
<path d="M2265 820 c3 -5 8 -10 11 -10 2 0 4 5 4 10 0 6 -5 10 -11 10 -5 0 -7
-4 -4 -10z"/>
<path d="M2651 558 c-1 -11 6 -16 19 -15 11 1 20 8 20 15 0 11 -3 12 -14 3
-11 -9 -15 -9 -19 1 -4 9 -6 7 -6 -4z"/>
<path d="M2530 440 c0 -5 5 -10 11 -10 5 0 7 5 4 10 -3 6 -8 10 -11 10 -2 0
-4 -4 -4 -10z"/>
<path d="M2637 354 c-3 -3 -22 -6 -41 -6 -20 0 -36 -4 -36 -8 0 -4 -8 -6 -19
-3 -10 3 -22 0 -26 -7 -5 -8 -11 -8 -22 1 -11 10 -22 10 -49 0 -19 -7 -48 -10
-64 -6 -33 7 -39 -4 -16 -28 10 -9 29 -13 54 -10 32 3 41 0 45 -14 4 -17 5
-17 6 0 1 10 9 17 21 17 11 0 20 6 20 13 0 8 3 8 8 2 11 -16 62 -17 62 -2 0 8
12 14 30 14 17 0 30 -4 30 -9 0 -4 5 -8 11 -8 8 0 8 5 -1 15 -7 8 -10 22 -6
30 6 16 3 19 -7 9z"/>
<path d="M2850 330 c-12 -7 -12 -12 -2 -22 6 -6 12 -10 13 -7 0 2 2 12 4 22 4
20 4 19 -15 7z"/>
<path d="M2738 318 c-12 -10 -14 -19 -7 -35 9 -24 31 -32 27 -10 -2 6 3 11 10
10 6 -2 12 2 12 8 0 5 5 7 10 4 6 -3 10 -1 10 4 0 6 7 11 15 11 8 0 15 5 15
10 0 7 -8 7 -22 -1 -16 -9 -23 -9 -26 0 -5 15 -24 14 -44 -1z"/>
<path d="M2734 208 l-19 -21 34 6 c18 4 37 7 42 7 5 0 9 7 9 15 0 23 -44 18
-66 -7z"/>
<path d="M2180 175 c-10 -12 -10 -15 4 -15 9 0 16 7 16 15 0 8 -2 15 -4 15 -2
0 -9 -7 -16 -15z"/>
<path d="M2610 162 c-20 -10 -28 -18 -20 -20 8 -3 16 0 18 7 3 9 7 9 18 0 10
-8 17 -7 28 4 23 23 -4 29 -44 9z"/>
<path d="M2240 155 c0 -8 2 -15 4 -15 2 0 6 7 10 15 3 8 1 15 -4 15 -6 0 -10
-7 -10 -15z"/>
<path d="M2278 143 c7 -3 16 -2 19 1 4 3 -2 6 -13 5 -11 0 -14 -3 -6 -6z"/>
<path d="M2531 131 c-7 -5 -9 -11 -4 -14 5 -3 15 -2 22 2 7 5 9 11 4 14 -5 3
-15 2 -22 -2z"/>
</g>
</svg>
